<svg xmlns="http://www.w3.org/2000/svg" xmlns:xlink= "http://www.w3.org/1999/xlink" width="379" height="405" viewBox="0 0 379 405" fill="none"><circle cx="189.5" cy="189.5" r="189.5" fill="#DBF8FF"></circle><g filter="url(#filter0_d)"><rect x="39" y="69" width="300" height="310.4" rx="10" fill="white"></rect></g><path d="M93.2871 192.608L88.4711 199.648V204H85.4471V199.632L80.6631 192.608H84.0551L86.9351 197.152L89.8631 192.608H93.2871Z" fill="black"></path><path d="M95.8662 204.128C94.9595 204.128 94.1702 203.958 93.4982 203.616C92.8262 203.275 92.3089 202.784 91.9462 202.144C91.5835 201.504 91.4022 200.752 91.4022 199.888C91.4022 199.024 91.5835 198.272 91.9462 197.632C92.3089 196.992 92.8262 196.502 93.4982 196.16C94.1702 195.819 94.9595 195.648 95.8662 195.648C96.7622 195.648 97.5409 195.824 98.2022 196.176C98.8742 196.518 99.3915 197.008 99.7542 197.648C100.117 198.278 100.298 199.024 100.298 199.888C100.298 200.752 100.117 201.504 99.7542 202.144C99.3915 202.774 98.8742 203.264 98.2022 203.616C97.5409 203.958 96.7622 204.128 95.8662 204.128ZM95.8662 201.968C96.9115 201.968 97.4342 201.275 97.4342 199.888C97.4342 199.184 97.3009 198.667 97.0342 198.336C96.7782 197.995 96.3889 197.824 95.8662 197.824C95.3329 197.824 94.9329 197.995 94.6662 198.336C94.3995 198.667 94.2662 199.184 94.2662 199.888C94.2662 200.603 94.3995 201.131 94.6662 201.472C94.9329 201.803 95.3329 201.968 95.8662 201.968Z" fill="black"></path><path d="M109.837 195.872V204H107.005V202.912C106.482 203.723 105.709 204.128 104.685 204.128C103.65 204.128 102.877 203.84 102.365 203.264C101.864 202.688 101.613 201.808 101.613 200.624V195.872H104.509V200.704C104.509 201.504 104.856 201.904 105.549 201.904C105.954 201.904 106.28 201.76 106.525 201.472C106.781 201.184 106.909 200.8 106.909 200.32V195.872H109.837Z" fill="black"></path><path d="M116.703 195.68C117.098 195.68 117.402 195.739 117.615 195.856V198.496C117.156 198.283 116.714 198.176 116.287 198.176C115.071 198.176 114.463 198.758 114.463 199.92V204H111.567V198.208C111.567 197.334 111.524 196.555 111.439 195.872H114.159L114.335 197.232C114.527 196.731 114.836 196.347 115.263 196.08C115.69 195.814 116.17 195.68 116.703 195.68Z" fill="black"></path><path d="M128.443 195.648C129.136 195.648 129.755 195.83 130.299 196.192C130.843 196.555 131.269 197.062 131.579 197.712C131.888 198.363 132.043 199.11 132.043 199.952C132.043 200.784 131.888 201.52 131.579 202.16C131.28 202.79 130.859 203.275 130.315 203.616C129.771 203.958 129.147 204.128 128.443 204.128C127.909 204.128 127.424 204.027 126.987 203.824C126.549 203.611 126.213 203.318 125.979 202.944V207.456H123.083V198.208C123.083 197.334 123.04 196.555 122.955 195.872H125.675L125.835 197.136C126.037 196.688 126.373 196.331 126.843 196.064C127.312 195.787 127.845 195.648 128.443 195.648ZM127.563 201.968C128.085 201.968 128.48 201.798 128.747 201.456C129.013 201.115 129.147 200.614 129.147 199.952C129.147 199.28 129.008 198.763 128.731 198.4C128.464 198.027 128.075 197.84 127.563 197.84C127.04 197.84 126.64 198.016 126.363 198.368C126.085 198.72 125.947 199.238 125.947 199.92C125.947 200.582 126.085 201.088 126.363 201.44C126.64 201.792 127.04 201.968 127.563 201.968Z" fill="black"></path><path d="M141.955 195.872V204H139.107V202.896C138.873 203.28 138.531 203.584 138.083 203.808C137.635 204.022 137.145 204.128 136.611 204.128C135.918 204.128 135.299 203.958 134.755 203.616C134.211 203.275 133.785 202.79 133.475 202.16C133.177 201.52 133.027 200.784 133.027 199.952C133.027 199.11 133.182 198.363 133.491 197.712C133.801 197.062 134.227 196.555 134.771 196.192C135.315 195.83 135.929 195.648 136.611 195.648C137.145 195.648 137.63 195.766 138.067 196C138.515 196.224 138.862 196.528 139.107 196.912V195.872H141.955ZM137.507 201.968C138.019 201.968 138.414 201.792 138.691 201.44C138.969 201.088 139.107 200.582 139.107 199.92C139.107 199.248 138.969 198.736 138.691 198.384C138.414 198.022 138.019 197.84 137.507 197.84C137.006 197.84 136.611 198.027 136.323 198.4C136.035 198.763 135.891 199.28 135.891 199.952C135.891 200.603 136.03 201.104 136.307 201.456C136.585 201.798 136.985 201.968 137.507 201.968Z" fill="black"></path><path d="M152.076 195.872L148.348 204.288C147.858 205.387 147.239 206.187 146.492 206.688C145.756 207.2 144.844 207.52 143.756 207.648L143.084 205.44C143.831 205.291 144.391 205.099 144.764 204.864C145.138 204.63 145.42 204.304 145.612 203.888L145.82 203.44L142.508 195.872H145.516L147.34 200.56L149.228 195.872H152.076Z" fill="black"></path><path d="M162.966 195.648C163.905 195.648 164.598 195.936 165.046 196.512C165.505 197.088 165.734 197.968 165.734 199.152V204H162.838V199.232C162.838 198.752 162.763 198.406 162.614 198.192C162.475 197.979 162.235 197.872 161.894 197.872C161.489 197.872 161.174 198.022 160.95 198.32C160.726 198.619 160.614 199.04 160.614 199.584V204H157.718V199.232C157.718 198.752 157.643 198.406 157.494 198.192C157.345 197.979 157.105 197.872 156.774 197.872C156.369 197.872 156.054 198.022 155.83 198.32C155.617 198.619 155.51 199.04 155.51 199.584V204H152.614V198.208C152.614 197.334 152.571 196.555 152.486 195.872H155.206L155.35 197.008C155.595 196.571 155.937 196.235 156.374 196C156.822 195.766 157.334 195.648 157.91 195.648C159.073 195.648 159.862 196.139 160.278 197.12C160.566 196.672 160.945 196.315 161.414 196.048C161.894 195.782 162.411 195.648 162.966 195.648Z" fill="black"></path><path d="M174.915 200.224H169.811C169.864 200.854 170.046 201.307 170.355 201.584C170.664 201.862 171.118 202 171.715 202C172.12 202 172.526 201.936 172.931 201.808C173.336 201.67 173.704 201.483 174.035 201.248L174.771 203.168C174.366 203.467 173.875 203.702 173.299 203.872C172.723 204.043 172.147 204.128 171.571 204.128C170.643 204.128 169.838 203.958 169.155 203.616C168.472 203.275 167.95 202.79 167.587 202.16C167.224 201.52 167.043 200.768 167.043 199.904C167.043 199.083 167.214 198.352 167.555 197.712C167.907 197.062 168.387 196.555 168.995 196.192C169.614 195.83 170.318 195.648 171.107 195.648C171.875 195.648 172.547 195.819 173.123 196.16C173.699 196.502 174.142 196.992 174.451 197.632C174.76 198.262 174.915 198.998 174.915 199.84V200.224ZM171.187 197.632C170.472 197.632 170.024 198.048 169.843 198.88H172.435C172.328 198.048 171.912 197.632 171.187 197.632Z" fill="black"></path><path d="M181.695 195.648C182.655 195.648 183.369 195.942 183.839 196.528C184.319 197.104 184.559 197.979 184.559 199.152V204H181.663V199.28C181.663 198.779 181.577 198.422 181.407 198.208C181.236 197.984 180.969 197.872 180.607 197.872C180.169 197.872 179.817 198.022 179.551 198.32C179.284 198.608 179.151 198.992 179.151 199.472V204H176.255V198.208C176.255 197.334 176.212 196.555 176.127 195.872H178.847L178.991 197.072C179.3 196.614 179.684 196.262 180.143 196.016C180.601 195.771 181.119 195.648 181.695 195.648Z" fill="black"></path><path d="M191.039 201.792C191.231 201.792 191.487 201.76 191.807 201.696V203.888C191.412 204.048 190.911 204.128 190.303 204.128C189.204 204.128 188.367 203.819 187.791 203.2C187.226 202.582 186.943 201.723 186.943 200.624V198H185.423V195.872H186.943V194.032L189.839 193.104V195.872H191.791V198H189.839V200.624C189.839 201.008 189.951 201.302 190.175 201.504C190.41 201.696 190.698 201.792 191.039 201.792Z" fill="black"></path><path d="M197.536 204V192.224H200.432V204H197.536Z" fill="black"></path><path d="M202.161 204V195.872H205.057V204H202.161ZM202.081 191.888H205.105V194.496H202.081V191.888Z" fill="black"></path><path d="M212.226 195.648C213.186 195.648 213.901 195.942 214.37 196.528C214.85 197.104 215.09 197.979 215.09 199.152V204H212.194V199.28C212.194 198.779 212.109 198.422 211.938 198.208C211.767 197.984 211.501 197.872 211.138 197.872C210.701 197.872 210.349 198.022 210.082 198.32C209.815 198.608 209.682 198.992 209.682 199.472V204H206.786V198.208C206.786 197.334 206.743 196.555 206.658 195.872H209.378L209.522 197.072C209.831 196.614 210.215 196.262 210.674 196.016C211.133 195.771 211.65 195.648 212.226 195.648Z" fill="black"></path><path d="M225.938 204H222.434L219.666 200.496V204H216.77V192.224H219.666V199.264L222.386 195.888H225.81L222.61 199.776L225.938 204Z" fill="black"></path><path d="M230.973 204V195.872H233.869V204H230.973ZM230.893 191.888H233.917V194.496H230.893V191.888Z" fill="black"></path><path d="M238.878 204.128C237.257 204.128 235.977 203.803 235.038 203.152L235.774 201.184C236.212 201.483 236.708 201.718 237.262 201.888C237.817 202.048 238.361 202.128 238.894 202.128C239.225 202.128 239.481 202.08 239.662 201.984C239.844 201.888 239.934 201.755 239.934 201.584C239.934 201.435 239.865 201.318 239.726 201.232C239.598 201.136 239.348 201.051 238.974 200.976L237.662 200.672C236.83 200.502 236.228 200.235 235.854 199.872C235.492 199.499 235.31 198.987 235.31 198.336C235.31 197.814 235.465 197.35 235.774 196.944C236.084 196.539 236.51 196.224 237.054 196C237.609 195.766 238.244 195.648 238.958 195.648C239.545 195.648 240.121 195.734 240.686 195.904C241.252 196.075 241.78 196.315 242.27 196.624L241.502 198.544C241.076 198.267 240.638 198.054 240.19 197.904C239.742 197.755 239.321 197.68 238.926 197.68C238.606 197.68 238.356 197.734 238.174 197.84C237.993 197.936 237.902 198.08 237.902 198.272C237.902 198.39 237.956 198.486 238.062 198.56C238.169 198.624 238.372 198.694 238.67 198.768L240.03 199.072C240.894 199.275 241.513 199.574 241.886 199.968C242.27 200.352 242.462 200.88 242.462 201.552C242.462 202.352 242.142 202.982 241.502 203.44C240.873 203.899 239.998 204.128 238.878 204.128Z" fill="black"></path><path d="M253.484 195.68C253.879 195.68 254.183 195.739 254.396 195.856V198.496C253.938 198.283 253.495 198.176 253.068 198.176C251.852 198.176 251.244 198.758 251.244 199.92V204H248.348V198.208C248.348 197.334 248.306 196.555 248.22 195.872H250.94L251.116 197.232C251.308 196.731 251.618 196.347 252.044 196.08C252.471 195.814 252.951 195.68 253.484 195.68Z" fill="black"></path><path d="M262.571 200.224H257.467C257.52 200.854 257.702 201.307 258.011 201.584C258.32 201.862 258.774 202 259.371 202C259.776 202 260.182 201.936 260.587 201.808C260.992 201.67 261.36 201.483 261.691 201.248L262.427 203.168C262.022 203.467 261.531 203.702 260.955 203.872C260.379 204.043 259.803 204.128 259.227 204.128C258.299 204.128 257.494 203.958 256.811 203.616C256.128 203.275 255.606 202.79 255.243 202.16C254.88 201.52 254.699 200.768 254.699 199.904C254.699 199.083 254.87 198.352 255.211 197.712C255.563 197.062 256.043 196.555 256.651 196.192C257.27 195.83 257.974 195.648 258.763 195.648C259.531 195.648 260.203 195.819 260.779 196.16C261.355 196.502 261.798 196.992 262.107 197.632C262.416 198.262 262.571 198.998 262.571 199.84V200.224ZM258.843 197.632C258.128 197.632 257.68 198.048 257.499 198.88H260.091C259.984 198.048 259.568 197.632 258.843 197.632Z" fill="black"></path><path d="M272.471 195.872V204H269.623V202.896C269.388 203.28 269.047 203.584 268.599 203.808C268.151 204.022 267.66 204.128 267.127 204.128C266.434 204.128 265.815 203.958 265.271 203.616C264.727 203.275 264.3 202.79 263.991 202.16C263.692 201.52 263.543 200.784 263.543 199.952C263.543 199.11 263.698 198.363 264.007 197.712C264.316 197.062 264.743 196.555 265.287 196.192C265.831 195.83 266.444 195.648 267.127 195.648C267.66 195.648 268.146 195.766 268.583 196C269.031 196.224 269.378 196.528 269.623 196.912V195.872H272.471ZM268.023 201.968C268.535 201.968 268.93 201.792 269.207 201.44C269.484 201.088 269.623 200.582 269.623 199.92C269.623 199.248 269.484 198.736 269.207 198.384C268.93 198.022 268.535 197.84 268.023 197.84C267.522 197.84 267.127 198.027 266.839 198.4C266.551 198.763 266.407 199.28 266.407 199.952C266.407 200.603 266.546 201.104 266.823 201.456C267.1 201.798 267.5 201.968 268.023 201.968Z" fill="black"></path><path d="M282.752 192.224V204H279.904V202.896C279.669 203.28 279.328 203.584 278.88 203.808C278.432 204.022 277.941 204.128 277.408 204.128C276.715 204.128 276.096 203.952 275.552 203.6C275.008 203.238 274.581 202.736 274.272 202.096C273.973 201.446 273.824 200.699 273.824 199.856C273.824 199.024 273.973 198.288 274.272 197.648C274.581 197.008 275.008 196.518 275.552 196.176C276.096 195.824 276.715 195.648 277.408 195.648C277.92 195.648 278.389 195.755 278.816 195.968C279.253 196.182 279.6 196.47 279.856 196.832V192.224H282.752ZM278.304 201.968C278.816 201.968 279.211 201.792 279.488 201.44C279.765 201.078 279.904 200.56 279.904 199.888C279.904 199.238 279.76 198.736 279.472 198.384C279.195 198.022 278.805 197.84 278.304 197.84C277.781 197.84 277.381 198.016 277.104 198.368C276.827 198.71 276.688 199.206 276.688 199.856C276.688 200.528 276.827 201.051 277.104 201.424C277.392 201.787 277.792 201.968 278.304 201.968Z" fill="black"></path><path d="M292.873 195.872L289.145 204.288C288.655 205.387 288.036 206.187 287.289 206.688C286.553 207.2 285.641 207.52 284.553 207.648L283.881 205.44C284.628 205.291 285.188 205.099 285.561 204.864C285.935 204.63 286.217 204.304 286.409 203.888L286.617 203.44L283.305 195.872H286.313L288.137 200.56L290.025 195.872H292.873Z" fill="black"></path><path d="M292.563 201.024H295.587V204H292.563V201.024Z" fill="black"></path><path d="M86.9166 224.897C85.5806 224.897 84.5166 224.537 83.7246 223.817L84.0966 223.061C84.5206 223.421 84.9526 223.677 85.3926 223.829C85.8326 223.981 86.3446 224.057 86.9286 224.057C87.6166 224.057 88.1446 223.925 88.5126 223.661C88.8886 223.389 89.0766 223.009 89.0766 222.521C89.0766 222.233 88.9846 222.001 88.8006 221.825C88.6246 221.641 88.3886 221.497 88.0926 221.393C87.8046 221.289 87.4166 221.181 86.9286 221.069C86.2726 220.925 85.7326 220.769 85.3086 220.601C84.8846 220.433 84.5406 220.193 84.2766 219.881C84.0126 219.561 83.8806 219.145 83.8806 218.633C83.8806 218.145 84.0086 217.717 84.2646 217.349C84.5206 216.973 84.8806 216.681 85.3446 216.473C85.8166 216.265 86.3646 216.161 86.9886 216.161C87.5806 216.161 88.1326 216.253 88.6446 216.437C89.1566 216.621 89.5886 216.889 89.9406 217.241L89.5566 217.997C89.1566 217.653 88.7486 217.401 88.3326 217.241C87.9246 217.081 87.4766 217.001 86.9886 217.001C86.3246 217.001 85.8046 217.145 85.4286 217.433C85.0526 217.713 84.8646 218.101 84.8646 218.597C84.8646 219.029 85.0286 219.353 85.3566 219.569C85.6846 219.785 86.1886 219.973 86.8686 220.133C87.6046 220.309 88.1806 220.473 88.5966 220.625C89.0206 220.769 89.3726 220.993 89.6526 221.297C89.9326 221.593 90.0726 221.989 90.0726 222.485C90.0726 222.965 89.9446 223.389 89.6886 223.757C89.4326 224.117 89.0646 224.397 88.5846 224.597C88.1126 224.797 87.5566 224.897 86.9166 224.897Z" fill="#100F0D"></path><path d="M94.5732 218.621C96.0212 218.621 96.7452 219.417 96.7452 221.009V224.801H95.7732V221.057C95.7732 220.497 95.6612 220.089 95.4372 219.833C95.2132 219.569 94.8612 219.437 94.3812 219.437C93.8212 219.437 93.3732 219.609 93.0372 219.953C92.7012 220.297 92.5332 220.761 92.5332 221.345V224.801H91.5612V215.969H92.5332V219.749C92.7252 219.381 92.9972 219.101 93.3492 218.909C93.7092 218.717 94.1172 218.621 94.5732 218.621Z" fill="#100F0D"></path><path d="M103.897 218.765V224.801H102.937V223.709C102.761 224.085 102.493 224.377 102.133 224.585C101.781 224.785 101.369 224.885 100.897 224.885C100.361 224.885 99.8887 224.757 99.4807 224.501C99.0807 224.245 98.7687 223.885 98.5447 223.421C98.3287 222.949 98.2207 222.401 98.2207 221.777C98.2207 221.153 98.3327 220.605 98.5567 220.133C98.7807 219.653 99.0927 219.281 99.4927 219.017C99.9007 218.753 100.369 218.621 100.897 218.621C101.369 218.621 101.781 218.725 102.133 218.933C102.485 219.141 102.753 219.433 102.937 219.809V218.765H103.897ZM101.089 224.081C101.681 224.081 102.137 223.881 102.457 223.481C102.777 223.073 102.937 222.497 102.937 221.753C102.937 221.009 102.777 220.437 102.457 220.037C102.137 219.637 101.681 219.437 101.089 219.437C100.497 219.437 100.033 219.645 99.6967 220.061C99.3687 220.469 99.2047 221.041 99.2047 221.777C99.2047 222.513 99.3687 223.081 99.6967 223.481C100.025 223.881 100.489 224.081 101.089 224.081Z" fill="#100F0D"></path><path d="M108.584 218.621C108.784 218.621 108.968 218.645 109.136 218.693L109.112 219.581C108.928 219.517 108.716 219.485 108.476 219.485C107.892 219.485 107.456 219.669 107.168 220.037C106.888 220.397 106.748 220.837 106.748 221.357V224.801H105.776V220.457C105.776 219.833 105.744 219.269 105.68 218.765H106.604L106.7 219.881C106.852 219.473 107.096 219.161 107.432 218.945C107.768 218.729 108.152 218.621 108.584 218.621Z" fill="#100F0D"></path><path d="M115.058 221.753H110.63C110.638 222.521 110.814 223.101 111.158 223.493C111.51 223.885 112.018 224.081 112.682 224.081C113.386 224.081 114.034 223.845 114.626 223.373L114.95 224.081C114.686 224.329 114.346 224.525 113.93 224.669C113.522 224.813 113.102 224.885 112.67 224.885C111.726 224.885 110.986 224.609 110.45 224.057C109.914 223.497 109.646 222.733 109.646 221.765C109.646 221.149 109.766 220.605 110.006 220.133C110.246 219.653 110.582 219.281 111.014 219.017C111.446 218.753 111.938 218.621 112.49 218.621C113.29 218.621 113.918 218.885 114.374 219.413C114.83 219.933 115.058 220.653 115.058 221.573V221.753ZM112.502 219.377C111.998 219.377 111.586 219.529 111.266 219.833C110.954 220.137 110.754 220.565 110.666 221.117H114.182C114.134 220.549 113.966 220.117 113.678 219.821C113.398 219.525 113.006 219.377 112.502 219.377Z" fill="#100F0D"></path><path d="M124.967 218.765L122.147 225.353C121.851 226.041 121.479 226.545 121.031 226.865C120.583 227.185 120.031 227.405 119.375 227.525L119.171 226.769C119.739 226.641 120.167 226.469 120.455 226.253C120.751 226.045 120.995 225.721 121.187 225.281L121.427 224.741L118.871 218.765H119.891L121.931 223.745L123.995 218.765H124.967Z" fill="#100F0D"></path><path d="M128.463 224.885C127.895 224.885 127.395 224.757 126.963 224.501C126.531 224.245 126.195 223.881 125.955 223.409C125.723 222.937 125.607 222.385 125.607 221.753C125.607 221.121 125.723 220.569 125.955 220.097C126.195 219.625 126.531 219.261 126.963 219.005C127.395 218.749 127.895 218.621 128.463 218.621C129.031 218.621 129.531 218.749 129.963 219.005C130.395 219.261 130.727 219.625 130.959 220.097C131.199 220.569 131.319 221.121 131.319 221.753C131.319 222.385 131.199 222.937 130.959 223.409C130.727 223.881 130.395 224.245 129.963 224.501C129.531 224.757 129.031 224.885 128.463 224.885ZM128.463 224.081C129.063 224.081 129.523 223.885 129.843 223.493C130.163 223.093 130.323 222.513 130.323 221.753C130.323 221.017 130.159 220.449 129.831 220.049C129.503 219.641 129.047 219.437 128.463 219.437C127.871 219.437 127.411 219.641 127.083 220.049C126.755 220.449 126.591 221.017 126.591 221.753C126.591 222.513 126.751 223.093 127.071 223.493C127.399 223.885 127.863 224.081 128.463 224.081Z" fill="#100F0D"></path><path d="M137.887 218.765V224.801H136.939V223.757C136.747 224.125 136.479 224.405 136.135 224.597C135.791 224.789 135.403 224.885 134.971 224.885C134.259 224.885 133.719 224.685 133.351 224.285C132.983 223.885 132.799 223.293 132.799 222.509V218.765H133.771V222.485C133.771 223.029 133.883 223.429 134.107 223.685C134.331 223.941 134.671 224.069 135.127 224.069C135.663 224.069 136.095 223.897 136.423 223.553C136.751 223.201 136.915 222.741 136.915 222.173V218.765H137.887Z" fill="#100F0D"></path><path d="M142.568 218.621C142.768 218.621 142.952 218.645 143.12 218.693L143.096 219.581C142.912 219.517 142.7 219.485 142.46 219.485C141.876 219.485 141.44 219.669 141.152 220.037C140.872 220.397 140.732 220.837 140.732 221.357V224.801H139.76V220.457C139.76 219.833 139.728 219.269 139.664 218.765H140.588L140.684 219.881C140.836 219.473 141.08 219.161 141.416 218.945C141.752 218.729 142.136 218.621 142.568 218.621Z" fill="#100F0D"></path><path d="M147.237 224.801V215.969H148.209V224.801H147.237Z" fill="#100F0D"></path><path d="M150.096 224.801V218.765H151.068V224.801H150.096ZM150 216.209H151.188V217.313H150V216.209Z" fill="#100F0D"></path><path d="M155.968 218.621C157.416 218.621 158.14 219.417 158.14 221.009V224.801H157.168V221.057C157.168 220.497 157.056 220.089 156.832 219.833C156.608 219.569 156.256 219.437 155.776 219.437C155.216 219.437 154.768 219.609 154.432 219.953C154.096 220.297 153.928 220.761 153.928 221.345V224.801H152.956V220.457C152.956 219.833 152.924 219.269 152.86 218.765H153.784L153.88 219.845C154.064 219.453 154.34 219.153 154.708 218.945C155.076 218.729 155.496 218.621 155.968 218.621Z" fill="#100F0D"></path><path d="M165.315 224.801H164.043L160.947 221.897V224.801H159.975V215.969H160.947V221.537L163.791 218.777H165.027L162.003 221.669L165.315 224.801Z" fill="#100F0D"></path><path d="M174.596 218.765V224.801H173.636V223.709C173.46 224.085 173.192 224.377 172.832 224.585C172.48 224.785 172.068 224.885 171.596 224.885C171.06 224.885 170.588 224.757 170.18 224.501C169.78 224.245 169.468 223.885 169.244 223.421C169.028 222.949 168.92 222.401 168.92 221.777C168.92 221.153 169.032 220.605 169.256 220.133C169.48 219.653 169.792 219.281 170.192 219.017C170.6 218.753 171.068 218.621 171.596 218.621C172.068 218.621 172.48 218.725 172.832 218.933C173.184 219.141 173.452 219.433 173.636 219.809V218.765H174.596ZM171.788 224.081C172.38 224.081 172.836 223.881 173.156 223.481C173.476 223.073 173.636 222.497 173.636 221.753C173.636 221.009 173.476 220.437 173.156 220.037C172.836 219.637 172.38 219.437 171.788 219.437C171.196 219.437 170.732 219.645 170.396 220.061C170.068 220.469 169.904 221.041 169.904 221.777C169.904 222.513 170.068 223.081 170.396 223.481C170.724 223.881 171.188 224.081 171.788 224.081Z" fill="#100F0D"></path><path d="M179.487 218.621C180.935 218.621 181.659 219.417 181.659 221.009V224.801H180.687V221.057C180.687 220.497 180.575 220.089 180.351 219.833C180.127 219.569 179.775 219.437 179.295 219.437C178.735 219.437 178.287 219.609 177.951 219.953C177.615 220.297 177.447 220.761 177.447 221.345V224.801H176.475V220.457C176.475 219.833 176.443 219.269 176.379 218.765H177.303L177.399 219.845C177.583 219.453 177.859 219.153 178.227 218.945C178.595 218.729 179.015 218.621 179.487 218.621Z" fill="#100F0D"></path><path d="M188.811 215.969V224.801H187.851V223.709C187.675 224.085 187.407 224.377 187.047 224.585C186.695 224.785 186.283 224.885 185.811 224.885C185.283 224.885 184.815 224.753 184.407 224.489C184.007 224.225 183.695 223.857 183.471 223.385C183.247 222.905 183.135 222.353 183.135 221.729C183.135 221.105 183.243 220.561 183.459 220.097C183.683 219.625 183.999 219.261 184.407 219.005C184.815 218.749 185.283 218.621 185.811 218.621C186.283 218.621 186.695 218.725 187.047 218.933C187.399 219.133 187.663 219.417 187.839 219.785V215.969H188.811ZM186.003 224.081C186.595 224.081 187.051 223.881 187.371 223.481C187.691 223.073 187.851 222.497 187.851 221.753C187.851 221.017 187.691 220.449 187.371 220.049C187.051 219.641 186.595 219.437 186.003 219.437C185.411 219.437 184.947 219.637 184.611 220.037C184.283 220.437 184.119 221.001 184.119 221.729C184.119 222.473 184.283 223.053 184.611 223.469C184.947 223.877 185.411 224.081 186.003 224.081Z" fill="#100F0D"></path><path d="M199.867 220.193H198.943V220.793H199.867V222.077H198.943V224.801H197.179L195.835 220.889V224.801H194.023V222.077H193.111V220.793H194.023V220.193H193.111V218.909H194.023V216.257H195.775L197.119 220.529V216.257H198.943V218.909H199.867V220.193Z" fill="#100F0D"></path><path d="M205.262 223.013H207.11V224.801H201.182V223.013H203.018V218.705L201.302 219.689V217.757L203.942 216.257H205.262V223.013Z" fill="#100F0D"></path><path d="M207.706 216.257H214.054V217.937L210.334 224.801H207.934L211.642 218.045H207.706V216.257Z" fill="#100F0D"></path><path d="M217.253 222.569V223.973C217.253 224.493 217.157 224.965 216.965 225.389C216.781 225.813 216.461 226.245 216.005 226.685L215.201 226.037C215.641 225.597 215.909 225.185 216.005 224.801H214.985V222.569H217.253Z" fill="#100F0D"></path><path d="M221.385 224.909C220.329 224.909 219.517 224.533 218.949 223.781C218.389 223.029 218.109 221.941 218.109 220.517C218.109 219.117 218.389 218.045 218.949 217.301C219.517 216.549 220.329 216.173 221.385 216.173C222.441 216.173 223.249 216.549 223.809 217.301C224.377 218.045 224.661 219.117 224.661 220.517C224.661 221.941 224.377 223.029 223.809 223.781C223.249 224.533 222.441 224.909 221.385 224.909ZM221.385 223.217C221.769 223.217 222.045 223.009 222.213 222.593C222.381 222.169 222.465 221.477 222.465 220.517C222.465 219.581 222.381 218.905 222.213 218.489C222.045 218.073 221.769 217.865 221.385 217.865C221.001 217.865 220.725 218.073 220.557 218.489C220.389 218.905 220.305 219.581 220.305 220.517C220.305 221.477 220.389 222.169 220.557 222.593C220.725 223.009 221.001 223.217 221.385 223.217Z" fill="#100F0D"></path><path d="M228.581 224.909C227.525 224.909 226.713 224.533 226.145 223.781C225.585 223.029 225.305 221.941 225.305 220.517C225.305 219.117 225.585 218.045 226.145 217.301C226.713 216.549 227.525 216.173 228.581 216.173C229.637 216.173 230.445 216.549 231.005 217.301C231.573 218.045 231.857 219.117 231.857 220.517C231.857 221.941 231.573 223.029 231.005 223.781C230.445 224.533 229.637 224.909 228.581 224.909ZM228.581 223.217C228.965 223.217 229.241 223.009 229.409 222.593C229.577 222.169 229.661 221.477 229.661 220.517C229.661 219.581 229.577 218.905 229.409 218.489C229.241 218.073 228.965 217.865 228.581 217.865C228.197 217.865 227.921 218.073 227.753 218.489C227.585 218.905 227.501 219.581 227.501 220.517C227.501 221.477 227.585 222.169 227.753 222.593C227.921 223.009 228.197 223.217 228.581 223.217Z" fill="#100F0D"></path><path d="M235.776 224.909C234.72 224.909 233.908 224.533 233.34 223.781C232.78 223.029 232.5 221.941 232.5 220.517C232.5 219.117 232.78 218.045 233.34 217.301C233.908 216.549 234.72 216.173 235.776 216.173C236.832 216.173 237.64 216.549 238.2 217.301C238.768 218.045 239.052 219.117 239.052 220.517C239.052 221.941 238.768 223.029 238.2 223.781C237.64 224.533 236.832 224.909 235.776 224.909ZM235.776 223.217C236.16 223.217 236.436 223.009 236.604 222.593C236.772 222.169 236.856 221.477 236.856 220.517C236.856 219.581 236.772 218.905 236.604 218.489C236.436 218.073 236.16 217.865 235.776 217.865C235.392 217.865 235.116 218.073 234.948 218.489C234.78 218.905 234.696 219.581 234.696 220.517C234.696 221.477 234.78 222.169 234.948 222.593C235.116 223.009 235.392 223.217 235.776 223.217Z" fill="#100F0D"></path><path d="M251.644 218.765H252.604L250.372 224.801H249.436L247.708 220.085L245.992 224.801H245.056L242.824 218.765H243.844L245.548 223.637L247.312 218.765H248.164L249.904 223.649L251.644 218.765Z" fill="#100F0D"></path><path d="M253.866 224.801V218.765H254.838V224.801H253.866ZM253.77 216.209H254.958V217.313H253.77V216.209Z" fill="#100F0D"></path><path d="M256.725 224.801V215.969H257.697V224.801H256.725Z" fill="#100F0D"></path><path d="M259.585 224.801V215.969H260.557V224.801H259.585Z" fill="#100F0D"></path><path d="M265.573 224.801V215.969H266.545V224.801H265.573Z" fill="#100F0D"></path><path d="M273.484 221.753H269.056C269.064 222.521 269.24 223.101 269.584 223.493C269.936 223.885 270.444 224.081 271.108 224.081C271.812 224.081 272.46 223.845 273.052 223.373L273.376 224.081C273.112 224.329 272.772 224.525 272.356 224.669C271.948 224.813 271.528 224.885 271.096 224.885C270.152 224.885 269.412 224.609 268.876 224.057C268.34 223.497 268.072 222.733 268.072 221.765C268.072 221.149 268.192 220.605 268.432 220.133C268.672 219.653 269.008 219.281 269.44 219.017C269.872 218.753 270.364 218.621 270.916 218.621C271.716 218.621 272.344 218.885 272.8 219.413C273.256 219.933 273.484 220.653 273.484 221.573V221.753ZM270.928 219.377C270.424 219.377 270.012 219.529 269.692 219.833C269.38 220.137 269.18 220.565 269.092 221.117H272.608C272.56 220.549 272.392 220.117 272.104 219.821C271.824 219.525 271.432 219.377 270.928 219.377Z" fill="#100F0D"></path><path d="M280.276 218.765V224.801H279.316V223.709C279.14 224.085 278.872 224.377 278.512 224.585C278.16 224.785 277.748 224.885 277.276 224.885C276.74 224.885 276.268 224.757 275.86 224.501C275.46 224.245 275.148 223.885 274.924 223.421C274.708 222.949 274.6 222.401 274.6 221.777C274.6 221.153 274.712 220.605 274.936 220.133C275.16 219.653 275.472 219.281 275.872 219.017C276.28 218.753 276.748 218.621 277.276 218.621C277.748 218.621 278.16 218.725 278.512 218.933C278.864 219.141 279.132 219.433 279.316 219.809V218.765H280.276ZM277.468 224.081C278.06 224.081 278.516 223.881 278.836 223.481C279.156 223.073 279.316 222.497 279.316 221.753C279.316 221.009 279.156 220.437 278.836 220.037C278.516 219.637 278.06 219.437 277.468 219.437C276.876 219.437 276.412 219.645 276.076 220.061C275.748 220.469 275.584 221.041 275.584 221.777C275.584 222.513 275.748 223.081 276.076 223.481C276.404 223.881 276.868 224.081 277.468 224.081Z" fill="#100F0D"></path><path d="M286.487 218.777H287.459L284.855 224.801H283.931L281.363 218.777H282.383L284.423 223.745L286.487 218.777Z" fill="#100F0D"></path><path d="M293.512 221.753H289.084C289.092 222.521 289.268 223.101 289.612 223.493C289.964 223.885 290.472 224.081 291.136 224.081C291.84 224.081 292.488 223.845 293.08 223.373L293.404 224.081C293.14 224.329 292.8 224.525 292.384 224.669C291.976 224.813 291.556 224.885 291.124 224.885C290.18 224.885 289.44 224.609 288.904 224.057C288.368 223.497 288.1 222.733 288.1 221.765C288.1 221.149 288.22 220.605 288.46 220.133C288.7 219.653 289.036 219.281 289.468 219.017C289.9 218.753 290.392 218.621 290.944 218.621C291.744 218.621 292.372 218.885 292.828 219.413C293.284 219.933 293.512 220.653 293.512 221.573V221.753ZM290.956 219.377C290.452 219.377 290.04 219.529 289.72 219.833C289.408 220.137 289.208 220.565 289.12 221.117H292.636C292.588 220.549 292.42 220.117 292.132 219.821C291.852 219.525 291.46 219.377 290.956 219.377Z" fill="#100F0D"></path><path d="M92.4824 234.765L89.6624 241.353C89.3664 242.041 88.9944 242.545 88.5464 242.865C88.0984 243.185 87.5464 243.405 86.8904 243.525L86.6864 242.769C87.2544 242.641 87.6824 242.469 87.9704 242.253C88.2664 242.045 88.5104 241.721 88.7024 241.281L88.9424 240.741L86.3864 234.765H87.4064L89.4464 239.745L91.5104 234.765H92.4824Z" fill="#100F0D"></path><path d="M95.979 240.885C95.411 240.885 94.911 240.757 94.479 240.501C94.047 240.245 93.711 239.881 93.471 239.409C93.239 238.937 93.123 238.385 93.123 237.753C93.123 237.121 93.239 236.569 93.471 236.097C93.711 235.625 94.047 235.261 94.479 235.005C94.911 234.749 95.411 234.621 95.979 234.621C96.547 234.621 97.047 234.749 97.479 235.005C97.911 235.261 98.243 235.625 98.475 236.097C98.715 236.569 98.835 237.121 98.835 237.753C98.835 238.385 98.715 238.937 98.475 239.409C98.243 239.881 97.911 240.245 97.479 240.501C97.047 240.757 96.547 240.885 95.979 240.885ZM95.979 240.081C96.579 240.081 97.039 239.885 97.359 239.493C97.679 239.093 97.839 238.513 97.839 237.753C97.839 237.017 97.675 236.449 97.347 236.049C97.019 235.641 96.563 235.437 95.979 235.437C95.387 235.437 94.927 235.641 94.599 236.049C94.271 236.449 94.107 237.017 94.107 237.753C94.107 238.513 94.267 239.093 94.587 239.493C94.915 239.885 95.379 240.081 95.979 240.081Z" fill="#100F0D"></path><path d="M105.402 234.765V240.801H104.454V239.757C104.262 240.125 103.994 240.405 103.65 240.597C103.306 240.789 102.918 240.885 102.486 240.885C101.774 240.885 101.234 240.685 100.866 240.285C100.498 239.885 100.314 239.293 100.314 238.509V234.765H101.286V238.485C101.286 239.029 101.398 239.429 101.622 239.685C101.846 239.941 102.186 240.069 102.642 240.069C103.178 240.069 103.61 239.897 103.938 239.553C104.266 239.201 104.43 238.741 104.43 238.173V234.765H105.402Z" fill="#100F0D"></path><path d="M110.084 234.621C110.284 234.621 110.468 234.645 110.636 234.693L110.612 235.581C110.428 235.517 110.216 235.485 109.976 235.485C109.392 235.485 108.956 235.669 108.668 236.037C108.388 236.397 108.248 236.837 108.248 237.357V240.801H107.276V236.457C107.276 235.833 107.244 235.269 107.18 234.765H108.104L108.2 235.881C108.352 235.473 108.596 235.161 108.932 234.945C109.268 234.729 109.652 234.621 110.084 234.621Z" fill="#100F0D"></path><path d="M120.069 234.765V240.801H119.109V239.709C118.933 240.085 118.665 240.377 118.305 240.585C117.953 240.785 117.541 240.885 117.069 240.885C116.533 240.885 116.061 240.757 115.653 240.501C115.253 240.245 114.941 239.885 114.717 239.421C114.501 238.949 114.393 238.401 114.393 237.777C114.393 237.153 114.505 236.605 114.729 236.133C114.953 235.653 115.265 235.281 115.665 235.017C116.073 234.753 116.541 234.621 117.069 234.621C117.541 234.621 117.953 234.725 118.305 234.933C118.657 235.141 118.925 235.433 119.109 235.809V234.765H120.069ZM117.261 240.081C117.853 240.081 118.309 239.881 118.629 239.481C118.949 239.073 119.109 238.497 119.109 237.753C119.109 237.009 118.949 236.437 118.629 236.037C118.309 235.637 117.853 235.437 117.261 235.437C116.669 235.437 116.205 235.645 115.869 236.061C115.541 236.469 115.377 237.041 115.377 237.777C115.377 238.513 115.541 239.081 115.869 239.481C116.197 239.881 116.661 240.081 117.261 240.081Z" fill="#100F0D"></path><path d="M124.48 240.885C123.896 240.885 123.384 240.757 122.944 240.501C122.512 240.245 122.176 239.885 121.936 239.421C121.704 238.949 121.588 238.401 121.588 237.777C121.588 237.153 121.708 236.605 121.948 236.133C122.188 235.653 122.528 235.281 122.968 235.017C123.416 234.753 123.936 234.621 124.528 234.621C124.936 234.621 125.328 234.693 125.704 234.837C126.088 234.973 126.404 235.165 126.652 235.413L126.328 236.133C126.024 235.893 125.728 235.717 125.44 235.605C125.16 235.493 124.872 235.437 124.576 235.437C123.96 235.437 123.476 235.645 123.124 236.061C122.772 236.469 122.596 237.041 122.596 237.777C122.596 238.505 122.768 239.073 123.112 239.481C123.464 239.881 123.952 240.081 124.576 240.081C124.872 240.081 125.16 240.025 125.44 239.913C125.728 239.801 126.024 239.625 126.328 239.385L126.652 240.105C126.396 240.345 126.072 240.537 125.68 240.681C125.296 240.817 124.896 240.885 124.48 240.885Z" fill="#100F0D"></path><path d="M130.421 240.885C129.837 240.885 129.325 240.757 128.885 240.501C128.453 240.245 128.117 239.885 127.877 239.421C127.645 238.949 127.529 238.401 127.529 237.777C127.529 237.153 127.649 236.605 127.889 236.133C128.129 235.653 128.469 235.281 128.909 235.017C129.357 234.753 129.877 234.621 130.469 234.621C130.877 234.621 131.269 234.693 131.645 234.837C132.029 234.973 132.345 235.165 132.593 235.413L132.269 236.133C131.965 235.893 131.669 235.717 131.381 235.605C131.101 235.493 130.813 235.437 130.517 235.437C129.901 235.437 129.417 235.645 129.065 236.061C128.713 236.469 128.537 237.041 128.537 237.777C128.537 238.505 128.709 239.073 129.053 239.481C129.405 239.881 129.893 240.081 130.517 240.081C130.813 240.081 131.101 240.025 131.381 239.913C131.669 239.801 131.965 239.625 132.269 239.385L132.593 240.105C132.337 240.345 132.013 240.537 131.621 240.681C131.237 240.817 130.837 240.885 130.421 240.885Z" fill="#100F0D"></path><path d="M136.327 240.885C135.759 240.885 135.259 240.757 134.827 240.501C134.395 240.245 134.059 239.881 133.819 239.409C133.587 238.937 133.471 238.385 133.471 237.753C133.471 237.121 133.587 236.569 133.819 236.097C134.059 235.625 134.395 235.261 134.827 235.005C135.259 234.749 135.759 234.621 136.327 234.621C136.895 234.621 137.395 234.749 137.827 235.005C138.259 235.261 138.591 235.625 138.823 236.097C139.063 236.569 139.183 237.121 139.183 237.753C139.183 238.385 139.063 238.937 138.823 239.409C138.591 239.881 138.259 240.245 137.827 240.501C137.395 240.757 136.895 240.885 136.327 240.885ZM136.327 240.081C136.927 240.081 137.387 239.885 137.707 239.493C138.027 239.093 138.187 238.513 138.187 237.753C138.187 237.017 138.023 236.449 137.695 236.049C137.367 235.641 136.911 235.437 136.327 235.437C135.735 235.437 135.275 235.641 134.947 236.049C134.619 236.449 134.455 237.017 134.455 237.753C134.455 238.513 134.615 239.093 134.935 239.493C135.263 239.885 135.727 240.081 136.327 240.081Z" fill="#100F0D"></path><path d="M145.75 234.765V240.801H144.802V239.757C144.61 240.125 144.342 240.405 143.998 240.597C143.654 240.789 143.266 240.885 142.834 240.885C142.122 240.885 141.582 240.685 141.214 240.285C140.846 239.885 140.662 239.293 140.662 238.509V234.765H141.634V238.485C141.634 239.029 141.746 239.429 141.97 239.685C142.194 239.941 142.534 240.069 142.99 240.069C143.526 240.069 143.958 239.897 144.286 239.553C144.614 239.201 144.778 238.741 144.778 238.173V234.765H145.75Z" fill="#100F0D"></path><path d="M150.636 234.621C152.084 234.621 152.808 235.417 152.808 237.009V240.801H151.836V237.057C151.836 236.497 151.724 236.089 151.5 235.833C151.276 235.569 150.924 235.437 150.444 235.437C149.884 235.437 149.436 235.609 149.1 235.953C148.764 236.297 148.596 236.761 148.596 237.345V240.801H147.624V236.457C147.624 235.833 147.592 235.269 147.528 234.765H148.452L148.548 235.845C148.732 235.453 149.008 235.153 149.376 234.945C149.744 234.729 150.164 234.621 150.636 234.621Z" fill="#100F0D"></path><path d="M155.939 235.533V238.833C155.939 239.281 156.031 239.597 156.215 239.781C156.399 239.957 156.659 240.045 156.995 240.045C157.219 240.045 157.435 240.009 157.643 239.937V240.765C157.395 240.845 157.115 240.885 156.803 240.885C156.227 240.885 155.775 240.725 155.447 240.405C155.127 240.077 154.967 239.597 154.967 238.965V235.533H153.791V234.765H154.967V233.217L155.939 232.869V234.765H157.667V235.533H155.939Z" fill="#100F0D"></path><path d="M167.283 234.765V240.801H166.323V239.709C166.147 240.085 165.879 240.377 165.519 240.585C165.167 240.785 164.755 240.885 164.283 240.885C163.747 240.885 163.275 240.757 162.867 240.501C162.467 240.245 162.155 239.885 161.931 239.421C161.715 238.949 161.607 238.401 161.607 237.777C161.607 237.153 161.719 236.605 161.943 236.133C162.167 235.653 162.479 235.281 162.879 235.017C163.287 234.753 163.755 234.621 164.283 234.621C164.755 234.621 165.167 234.725 165.519 234.933C165.871 235.141 166.139 235.433 166.323 235.809V234.765H167.283ZM164.475 240.081C165.067 240.081 165.523 239.881 165.843 239.481C166.163 239.073 166.323 238.497 166.323 237.753C166.323 237.009 166.163 236.437 165.843 236.037C165.523 235.637 165.067 235.437 164.475 235.437C163.883 235.437 163.419 235.645 163.083 236.061C162.755 236.469 162.591 237.041 162.591 237.777C162.591 238.513 162.755 239.081 163.083 239.481C163.411 239.881 163.875 240.081 164.475 240.081Z" fill="#100F0D"></path><path d="M171.203 240.885C170.187 240.885 169.383 240.625 168.791 240.105L169.115 239.385C169.443 239.641 169.775 239.825 170.111 239.937C170.447 240.049 170.823 240.105 171.239 240.105C171.695 240.105 172.039 240.029 172.271 239.877C172.511 239.717 172.631 239.489 172.631 239.193C172.631 238.953 172.551 238.761 172.391 238.617C172.231 238.473 171.967 238.361 171.599 238.281L170.579 238.041C170.075 237.929 169.683 237.729 169.403 237.441C169.131 237.153 168.995 236.809 168.995 236.409C168.995 235.881 169.207 235.453 169.631 235.125C170.055 234.789 170.615 234.621 171.311 234.621C171.735 234.621 172.135 234.689 172.511 234.825C172.887 234.961 173.203 235.157 173.459 235.413L173.135 236.121C172.567 235.649 171.959 235.413 171.311 235.413C170.879 235.413 170.543 235.497 170.303 235.665C170.071 235.825 169.955 236.053 169.955 236.349C169.955 236.597 170.027 236.793 170.171 236.937C170.323 237.081 170.563 237.193 170.891 237.273L171.911 237.525C172.471 237.653 172.887 237.853 173.159 238.125C173.431 238.389 173.567 238.737 173.567 239.169C173.567 239.689 173.355 240.105 172.931 240.417C172.507 240.729 171.931 240.885 171.203 240.885Z" fill="#100F0D"></path><path d="M180.285 240.885C179.269 240.885 178.465 240.625 177.873 240.105L178.197 239.385C178.525 239.641 178.857 239.825 179.193 239.937C179.529 240.049 179.905 240.105 180.321 240.105C180.777 240.105 181.121 240.029 181.353 239.877C181.593 239.717 181.713 239.489 181.713 239.193C181.713 238.953 181.633 238.761 181.473 238.617C181.313 238.473 181.049 238.361 180.681 238.281L179.661 238.041C179.157 237.929 178.765 237.729 178.485 237.441C178.213 237.153 178.077 236.809 178.077 236.409C178.077 235.881 178.289 235.453 178.713 235.125C179.137 234.789 179.697 234.621 180.393 234.621C180.817 234.621 181.217 234.689 181.593 234.825C181.969 234.961 182.285 235.157 182.541 235.413L182.217 236.121C181.649 235.649 181.041 235.413 180.393 235.413C179.961 235.413 179.625 235.497 179.385 235.665C179.153 235.825 179.037 236.053 179.037 236.349C179.037 236.597 179.109 236.793 179.253 236.937C179.405 237.081 179.645 237.193 179.973 237.273L180.993 237.525C181.553 237.653 181.969 237.853 182.241 238.125C182.513 238.389 182.649 238.737 182.649 239.169C182.649 239.689 182.437 240.105 182.013 240.417C181.589 240.729 181.013 240.885 180.285 240.885Z" fill="#100F0D"></path><path d="M186.694 240.885C186.126 240.885 185.626 240.757 185.194 240.501C184.762 240.245 184.426 239.881 184.186 239.409C183.954 238.937 183.838 238.385 183.838 237.753C183.838 237.121 183.954 236.569 184.186 236.097C184.426 235.625 184.762 235.261 185.194 235.005C185.626 234.749 186.126 234.621 186.694 234.621C187.262 234.621 187.762 234.749 188.194 235.005C188.626 235.261 188.958 235.625 189.19 236.097C189.43 236.569 189.55 237.121 189.55 237.753C189.55 238.385 189.43 238.937 189.19 239.409C188.958 239.881 188.626 240.245 188.194 240.501C187.762 240.757 187.262 240.885 186.694 240.885ZM186.694 240.081C187.294 240.081 187.754 239.885 188.074 239.493C188.394 239.093 188.554 238.513 188.554 237.753C188.554 237.017 188.39 236.449 188.062 236.049C187.734 235.641 187.278 235.437 186.694 235.437C186.102 235.437 185.642 235.641 185.314 236.049C184.986 236.449 184.822 237.017 184.822 237.753C184.822 238.513 184.982 239.093 185.302 239.493C185.63 239.885 186.094 240.081 186.694 240.081Z" fill="#100F0D"></path><path d="M193.561 240.885C192.993 240.885 192.493 240.757 192.061 240.501C191.629 240.245 191.293 239.881 191.053 239.409C190.821 238.937 190.705 238.385 190.705 237.753C190.705 237.121 190.821 236.569 191.053 236.097C191.293 235.625 191.629 235.261 192.061 235.005C192.493 234.749 192.993 234.621 193.561 234.621C194.129 234.621 194.629 234.749 195.061 235.005C195.493 235.261 195.825 235.625 196.057 236.097C196.297 236.569 196.417 237.121 196.417 237.753C196.417 238.385 196.297 238.937 196.057 239.409C195.825 239.881 195.493 240.245 195.061 240.501C194.629 240.757 194.129 240.885 193.561 240.885ZM193.561 240.081C194.161 240.081 194.621 239.885 194.941 239.493C195.261 239.093 195.421 238.513 195.421 237.753C195.421 237.017 195.257 236.449 194.929 236.049C194.601 235.641 194.145 235.437 193.561 235.437C192.969 235.437 192.509 235.641 192.181 236.049C191.853 236.449 191.689 237.017 191.689 237.753C191.689 238.513 191.849 239.093 192.169 239.493C192.497 239.885 192.961 240.081 193.561 240.081Z" fill="#100F0D"></path><path d="M200.944 234.621C202.392 234.621 203.116 235.417 203.116 237.009V240.801H202.144V237.057C202.144 236.497 202.032 236.089 201.808 235.833C201.584 235.569 201.232 235.437 200.752 235.437C200.192 235.437 199.744 235.609 199.408 235.953C199.072 236.297 198.904 236.761 198.904 237.345V240.801H197.932V236.457C197.932 235.833 197.9 235.269 197.836 234.765H198.76L198.856 235.845C199.04 235.453 199.316 235.153 199.684 234.945C200.052 234.729 200.472 234.621 200.944 234.621Z" fill="#100F0D"></path><path d="M213.397 234.765V240.801H212.437V239.709C212.261 240.085 211.993 240.377 211.633 240.585C211.281 240.785 210.869 240.885 210.397 240.885C209.861 240.885 209.389 240.757 208.981 240.501C208.581 240.245 208.269 239.885 208.045 239.421C207.829 238.949 207.721 238.401 207.721 237.777C207.721 237.153 207.833 236.605 208.057 236.133C208.281 235.653 208.593 235.281 208.993 235.017C209.401 234.753 209.869 234.621 210.397 234.621C210.869 234.621 211.281 234.725 211.633 234.933C211.985 235.141 212.253 235.433 212.437 235.809V234.765H213.397ZM210.589 240.081C211.181 240.081 211.637 239.881 211.957 239.481C212.277 239.073 212.437 238.497 212.437 237.753C212.437 237.009 212.277 236.437 211.957 236.037C211.637 235.637 211.181 235.437 210.589 235.437C209.997 235.437 209.533 235.645 209.197 236.061C208.869 236.469 208.705 237.041 208.705 237.777C208.705 238.513 208.869 239.081 209.197 239.481C209.525 239.881 209.989 240.081 210.589 240.081Z" fill="#100F0D"></path><path d="M217.316 240.885C216.3 240.885 215.496 240.625 214.904 240.105L215.228 239.385C215.556 239.641 215.888 239.825 216.224 239.937C216.56 240.049 216.936 240.105 217.352 240.105C217.808 240.105 218.152 240.029 218.384 239.877C218.624 239.717 218.744 239.489 218.744 239.193C218.744 238.953 218.664 238.761 218.504 238.617C218.344 238.473 218.08 238.361 217.712 238.281L216.692 238.041C216.188 237.929 215.796 237.729 215.516 237.441C215.244 237.153 215.108 236.809 215.108 236.409C215.108 235.881 215.32 235.453 215.744 235.125C216.168 234.789 216.728 234.621 217.424 234.621C217.848 234.621 218.248 234.689 218.624 234.825C219 234.961 219.316 235.157 219.572 235.413L219.248 236.121C218.68 235.649 218.072 235.413 217.424 235.413C216.992 235.413 216.656 235.497 216.416 235.665C216.184 235.825 216.068 236.053 216.068 236.349C216.068 236.597 216.14 236.793 216.284 236.937C216.436 237.081 216.676 237.193 217.004 237.273L218.024 237.525C218.584 237.653 219 237.853 219.272 238.125C219.544 238.389 219.68 238.737 219.68 239.169C219.68 239.689 219.468 240.105 219.044 240.417C218.62 240.729 218.044 240.885 217.316 240.885Z" fill="#100F0D"></path><path d="M224.358 240.801V234.765H225.33V240.801H224.358ZM224.262 232.209H225.45V233.313H224.262V232.209Z" fill="#100F0D"></path><path d="M228.513 235.533V238.833C228.513 239.281 228.605 239.597 228.789 239.781C228.973 239.957 229.233 240.045 229.569 240.045C229.793 240.045 230.009 240.009 230.217 239.937V240.765C229.969 240.845 229.689 240.885 229.377 240.885C228.801 240.885 228.349 240.725 228.021 240.405C227.701 240.077 227.541 239.597 227.541 238.965V235.533H226.365V234.765H227.541V233.217L228.513 232.869V234.765H230.241V235.533H228.513Z" fill="#100F0D"></path><path d="M232.422 232.257V233.133C232.422 233.469 232.366 233.777 232.254 234.057C232.142 234.337 231.954 234.613 231.69 234.885L231.234 234.525C231.546 234.165 231.722 233.821 231.762 233.493H231.186V232.257H232.422Z" fill="#100F0D"></path><path d="M235.82 240.885C234.804 240.885 234 240.625 233.408 240.105L233.732 239.385C234.06 239.641 234.392 239.825 234.728 239.937C235.064 240.049 235.44 240.105 235.856 240.105C236.312 240.105 236.656 240.029 236.888 239.877C237.128 239.717 237.248 239.489 237.248 239.193C237.248 238.953 237.168 238.761 237.008 238.617C236.848 238.473 236.584 238.361 236.216 238.281L235.196 238.041C234.692 237.929 234.3 237.729 234.02 237.441C233.748 237.153 233.612 236.809 233.612 236.409C233.612 235.881 233.824 235.453 234.248 235.125C234.672 234.789 235.232 234.621 235.928 234.621C236.352 234.621 236.752 234.689 237.128 234.825C237.504 234.961 237.82 235.157 238.076 235.413L237.752 236.121C237.184 235.649 236.576 235.413 235.928 235.413C235.496 235.413 235.16 235.497 234.92 235.665C234.688 235.825 234.572 236.053 234.572 236.349C234.572 236.597 234.644 236.793 234.788 236.937C234.94 237.081 235.18 237.193 235.508 237.273L236.528 237.525C237.088 237.653 237.504 237.853 237.776 238.125C238.048 238.389 238.184 238.737 238.184 239.169C238.184 239.689 237.972 240.105 237.548 240.417C237.124 240.729 236.548 240.885 235.82 240.885Z" fill="#100F0D"></path><path d="M245.394 240.885C244.81 240.885 244.298 240.757 243.858 240.501C243.426 240.245 243.09 239.885 242.85 239.421C242.618 238.949 242.502 238.401 242.502 237.777C242.502 237.153 242.622 236.605 242.862 236.133C243.102 235.653 243.442 235.281 243.882 235.017C244.33 234.753 244.85 234.621 245.442 234.621C245.85 234.621 246.242 234.693 246.618 234.837C247.002 234.973 247.318 235.165 247.566 235.413L247.242 236.133C246.938 235.893 246.642 235.717 246.354 235.605C246.074 235.493 245.786 235.437 245.49 235.437C244.874 235.437 244.39 235.645 244.038 236.061C243.686 236.469 243.51 237.041 243.51 237.777C243.51 238.505 243.682 239.073 244.026 239.481C244.378 239.881 244.866 240.081 245.49 240.081C245.786 240.081 246.074 240.025 246.354 239.913C246.642 239.801 246.938 239.625 247.242 239.385L247.566 240.105C247.31 240.345 246.986 240.537 246.594 240.681C246.21 240.817 245.81 240.885 245.394 240.885Z" fill="#100F0D"></path><path d="M248.803 240.801V231.969H249.775V240.801H248.803Z" fill="#100F0D"></path><path d="M256.979 234.765V240.801H256.019V239.709C255.843 240.085 255.575 240.377 255.215 240.585C254.863 240.785 254.451 240.885 253.979 240.885C253.443 240.885 252.971 240.757 252.563 240.501C252.163 240.245 251.851 239.885 251.627 239.421C251.411 238.949 251.303 238.401 251.303 237.777C251.303 237.153 251.415 236.605 251.639 236.133C251.863 235.653 252.175 235.281 252.575 235.017C252.983 234.753 253.451 234.621 253.979 234.621C254.451 234.621 254.863 234.725 255.215 234.933C255.567 235.141 255.835 235.433 256.019 235.809V234.765H256.979ZM254.171 240.081C254.763 240.081 255.219 239.881 255.539 239.481C255.859 239.073 256.019 238.497 256.019 237.753C256.019 237.009 255.859 236.437 255.539 236.037C255.219 235.637 254.763 235.437 254.171 235.437C253.579 235.437 253.115 235.645 252.779 236.061C252.451 236.469 252.287 237.041 252.287 237.777C252.287 238.513 252.451 239.081 252.779 239.481C253.107 239.881 253.571 240.081 254.171 240.081Z" fill="#100F0D"></path><path d="M258.858 240.801V234.765H259.83V240.801H258.858ZM258.762 232.209H259.95V233.313H258.762V232.209Z" fill="#100F0D"></path><path d="M268.413 234.621C269.749 234.621 270.417 235.417 270.417 237.009V240.801H269.445V237.057C269.445 236.489 269.345 236.077 269.145 235.821C268.953 235.565 268.637 235.437 268.197 235.437C267.685 235.437 267.285 235.609 266.997 235.953C266.709 236.297 266.565 236.765 266.565 237.357V240.801H265.593V237.057C265.593 236.497 265.493 236.089 265.293 235.833C265.093 235.569 264.773 235.437 264.333 235.437C263.821 235.437 263.417 235.609 263.121 235.953C262.833 236.297 262.689 236.765 262.689 237.357V240.801H261.717V236.457C261.717 235.833 261.685 235.269 261.621 234.765H262.545L262.641 235.821C262.809 235.437 263.057 235.141 263.385 234.933C263.721 234.725 264.109 234.621 264.549 234.621C265.029 234.621 265.421 234.717 265.725 234.909C266.029 235.101 266.253 235.397 266.397 235.797C266.581 235.437 266.849 235.153 267.201 234.945C267.561 234.729 267.965 234.621 268.413 234.621Z" fill="#100F0D"></path><path d="M277.316 237.753H272.888C272.896 238.521 273.072 239.101 273.416 239.493C273.768 239.885 274.276 240.081 274.94 240.081C275.644 240.081 276.292 239.845 276.884 239.373L277.208 240.081C276.944 240.329 276.604 240.525 276.188 240.669C275.78 240.813 275.36 240.885 274.928 240.885C273.984 240.885 273.244 240.609 272.708 240.057C272.172 239.497 271.904 238.733 271.904 237.765C271.904 237.149 272.024 236.605 272.264 236.133C272.504 235.653 272.84 235.281 273.272 235.017C273.704 234.753 274.196 234.621 274.748 234.621C275.548 234.621 276.176 234.885 276.632 235.413C277.088 235.933 277.316 236.653 277.316 237.573V237.753ZM274.76 235.377C274.256 235.377 273.844 235.529 273.524 235.833C273.212 236.137 273.012 236.565 272.924 237.117H276.44C276.392 236.549 276.224 236.117 275.936 235.821C275.656 235.525 275.264 235.377 274.76 235.377Z" fill="#100F0D"></path><path d="M284.108 231.969V240.801H283.148V239.709C282.972 240.085 282.704 240.377 282.344 240.585C281.992 240.785 281.58 240.885 281.108 240.885C280.58 240.885 280.112 240.753 279.704 240.489C279.304 240.225 278.992 239.857 278.768 239.385C278.544 238.905 278.432 238.353 278.432 237.729C278.432 237.105 278.54 236.561 278.756 236.097C278.98 235.625 279.296 235.261 279.704 235.005C280.112 234.749 280.58 234.621 281.108 234.621C281.58 234.621 281.992 234.725 282.344 234.933C282.696 235.133 282.96 235.417 283.136 235.785V231.969H284.108ZM281.3 240.081C281.892 240.081 282.348 239.881 282.668 239.481C282.988 239.073 283.148 238.497 283.148 237.753C283.148 237.017 282.988 236.449 282.668 236.049C282.348 235.641 281.892 235.437 281.3 235.437C280.708 235.437 280.244 235.637 279.908 236.037C279.58 236.437 279.416 237.001 279.416 237.729C279.416 238.473 279.58 239.053 279.908 239.469C280.244 239.877 280.708 240.081 281.3 240.081Z" fill="#100F0D"></path><path d="M285.819 239.565H287.055V240.801H285.819V239.565Z" fill="#100F0D"></path><path d="M105.98 272.801V265.097H103.004V264.257H109.952V265.097H106.976V272.801H105.98Z" fill="#100F0D"></path><path d="M114.038 266.621C115.486 266.621 116.21 267.417 116.21 269.009V272.801H115.238V269.057C115.238 268.497 115.126 268.089 114.902 267.833C114.678 267.569 114.326 267.437 113.846 267.437C113.286 267.437 112.838 267.609 112.502 267.953C112.166 268.297 111.998 268.761 111.998 269.345V272.801H111.026V263.969H111.998V267.749C112.19 267.381 112.462 267.101 112.814 266.909C113.174 266.717 113.582 266.621 114.038 266.621Z" fill="#100F0D"></path><path d="M118.046 272.801V266.765H119.018V272.801H118.046ZM117.95 264.209H119.138V265.313H117.95V264.209Z" fill="#100F0D"></path><path d="M122.945 272.885C121.929 272.885 121.125 272.625 120.533 272.105L120.857 271.385C121.185 271.641 121.517 271.825 121.853 271.937C122.189 272.049 122.565 272.105 122.981 272.105C123.437 272.105 123.781 272.029 124.013 271.877C124.253 271.717 124.373 271.489 124.373 271.193C124.373 270.953 124.293 270.761 124.133 270.617C123.973 270.473 123.709 270.361 123.341 270.281L122.321 270.041C121.817 269.929 121.425 269.729 121.145 269.441C120.873 269.153 120.737 268.809 120.737 268.409C120.737 267.881 120.949 267.453 121.373 267.125C121.797 266.789 122.357 266.621 123.053 266.621C123.477 266.621 123.877 266.689 124.253 266.825C124.629 266.961 124.945 267.157 125.201 267.413L124.877 268.121C124.309 267.649 123.701 267.413 123.053 267.413C122.621 267.413 122.285 267.497 122.045 267.665C121.813 267.825 121.697 268.053 121.697 268.349C121.697 268.597 121.769 268.793 121.913 268.937C122.065 269.081 122.305 269.193 122.633 269.273L123.653 269.525C124.213 269.653 124.629 269.853 124.901 270.125C125.173 270.389 125.309 270.737 125.309 271.169C125.309 271.689 125.097 272.105 124.673 272.417C124.249 272.729 123.673 272.885 122.945 272.885Z" fill="#100F0D"></path><path d="M129.987 272.801V263.969H130.959V272.801H129.987Z" fill="#100F0D"></path><path d="M132.846 272.801V266.765H133.818V272.801H132.846ZM132.75 264.209H133.938V265.313H132.75V264.209Z" fill="#100F0D"></path><path d="M138.718 266.621C140.166 266.621 140.89 267.417 140.89 269.009V272.801H139.918V269.057C139.918 268.497 139.806 268.089 139.582 267.833C139.358 267.569 139.006 267.437 138.526 267.437C137.966 267.437 137.518 267.609 137.182 267.953C136.846 268.297 136.678 268.761 136.678 269.345V272.801H135.706V268.457C135.706 267.833 135.674 267.269 135.61 266.765H136.534L136.63 267.845C136.814 267.453 137.09 267.153 137.458 266.945C137.826 266.729 138.246 266.621 138.718 266.621Z" fill="#100F0D"></path><path d="M148.065 272.801H146.793L143.697 269.897V272.801H142.725V263.969H143.697V269.537L146.541 266.777H147.777L144.753 269.669L148.065 272.801Z" fill="#100F0D"></path><path d="M160.238 266.765H161.198L158.966 272.801H158.03L156.302 268.085L154.586 272.801H153.65L151.418 266.765H152.438L154.142 271.637L155.906 266.765H156.758L158.498 271.649L160.238 266.765Z" fill="#100F0D"></path><path d="M162.46 272.801V266.765H163.432V272.801H162.46ZM162.364 264.209H163.552V265.313H162.364V264.209Z" fill="#100F0D"></path><path d="M165.319 272.801V263.969H166.291V272.801H165.319Z" fill="#100F0D"></path><path d="M168.178 272.801V263.969H169.15V272.801H168.178Z" fill="#100F0D"></path><path d="M179.219 269.753H174.791C174.799 270.521 174.975 271.101 175.319 271.493C175.671 271.885 176.179 272.081 176.843 272.081C177.547 272.081 178.195 271.845 178.787 271.373L179.111 272.081C178.847 272.329 178.507 272.525 178.091 272.669C177.683 272.813 177.263 272.885 176.831 272.885C175.887 272.885 175.147 272.609 174.611 272.057C174.075 271.497 173.807 270.733 173.807 269.765C173.807 269.149 173.927 268.605 174.167 268.133C174.407 267.653 174.743 267.281 175.175 267.017C175.607 266.753 176.099 266.621 176.651 266.621C177.451 266.621 178.079 266.885 178.535 267.413C178.991 267.933 179.219 268.653 179.219 269.573V269.753ZM176.663 267.377C176.159 267.377 175.747 267.529 175.427 267.833C175.115 268.137 174.915 268.565 174.827 269.117H178.343C178.295 268.549 178.127 268.117 177.839 267.821C177.559 267.525 177.167 267.377 176.663 267.377Z" fill="#100F0D"></path><path d="M183.468 269.693L185.952 272.801H184.788L182.88 270.425L180.996 272.801H179.808L182.316 269.693L179.952 266.765H181.128L182.88 268.985L184.632 266.765H185.82L183.468 269.693Z" fill="#100F0D"></path><path d="M190.046 266.621C190.574 266.621 191.042 266.753 191.45 267.017C191.858 267.281 192.174 267.653 192.398 268.133C192.622 268.605 192.734 269.153 192.734 269.777C192.734 270.401 192.622 270.949 192.398 271.421C192.174 271.885 191.858 272.245 191.45 272.501C191.05 272.757 190.582 272.885 190.046 272.885C189.574 272.885 189.162 272.781 188.81 272.573C188.458 272.365 188.19 272.069 188.006 271.685V275.393H187.034V268.457C187.034 267.833 187.002 267.269 186.938 266.765H187.862L187.958 267.929C188.126 267.513 188.39 267.193 188.75 266.969C189.118 266.737 189.55 266.621 190.046 266.621ZM189.866 272.081C190.458 272.081 190.914 271.881 191.234 271.481C191.562 271.081 191.726 270.513 191.726 269.777C191.726 269.041 191.562 268.469 191.234 268.061C190.906 267.645 190.45 267.437 189.866 267.437C189.266 267.437 188.806 267.637 188.486 268.037C188.166 268.437 188.006 269.009 188.006 269.753C188.006 270.497 188.166 271.073 188.486 271.481C188.806 271.881 189.266 272.081 189.866 272.081Z" fill="#100F0D"></path><path d="M194.229 272.801V266.765H195.201V272.801H194.229ZM194.133 264.209H195.321V265.313H194.133V264.209Z" fill="#100F0D"></path><path d="M199.897 266.621C200.097 266.621 200.281 266.645 200.449 266.693L200.425 267.581C200.241 267.517 200.029 267.485 199.789 267.485C199.205 267.485 198.769 267.669 198.481 268.037C198.201 268.397 198.061 268.837 198.061 269.357V272.801H197.089V268.457C197.089 267.833 197.057 267.269 196.993 266.765H197.917L198.013 267.881C198.165 267.473 198.409 267.161 198.745 266.945C199.081 266.729 199.465 266.621 199.897 266.621Z" fill="#100F0D"></path><path d="M206.371 269.753H201.943C201.951 270.521 202.127 271.101 202.471 271.493C202.823 271.885 203.331 272.081 203.995 272.081C204.699 272.081 205.347 271.845 205.939 271.373L206.263 272.081C205.999 272.329 205.659 272.525 205.243 272.669C204.835 272.813 204.415 272.885 203.983 272.885C203.039 272.885 202.299 272.609 201.763 272.057C201.227 271.497 200.959 270.733 200.959 269.765C200.959 269.149 201.079 268.605 201.319 268.133C201.559 267.653 201.895 267.281 202.327 267.017C202.759 266.753 203.251 266.621 203.803 266.621C204.603 266.621 205.231 266.885 205.687 267.413C206.143 267.933 206.371 268.653 206.371 269.573V269.753ZM203.815 267.377C203.311 267.377 202.899 267.529 202.579 267.833C202.267 268.137 202.067 268.565 201.979 269.117H205.495C205.447 268.549 205.279 268.117 204.991 267.821C204.711 267.525 204.319 267.377 203.815 267.377Z" fill="#100F0D"></path><path d="M210.975 272.801V266.765H211.947V272.801H210.975ZM210.879 264.209H212.067V265.313H210.879V264.209Z" fill="#100F0D"></path><path d="M216.847 266.621C218.295 266.621 219.019 267.417 219.019 269.009V272.801H218.047V269.057C218.047 268.497 217.935 268.089 217.711 267.833C217.487 267.569 217.135 267.437 216.655 267.437C216.095 267.437 215.647 267.609 215.311 267.953C214.975 268.297 214.807 268.761 214.807 269.345V272.801H213.835V268.457C213.835 267.833 213.803 267.269 213.739 266.765H214.663L214.759 267.845C214.943 267.453 215.219 267.153 215.587 266.945C215.955 266.729 216.375 266.621 216.847 266.621Z" fill="#100F0D"></path><path d="M229.539 271.973V272.801H224.043V272.057L227.031 268.745C227.431 268.297 227.723 267.893 227.907 267.533C228.091 267.173 228.183 266.813 228.183 266.453C228.183 265.981 228.047 265.621 227.775 265.373C227.503 265.117 227.115 264.989 226.611 264.989C225.795 264.989 224.987 265.317 224.187 265.973L223.815 265.217C224.151 264.897 224.575 264.641 225.087 264.449C225.599 264.257 226.115 264.161 226.635 264.161C227.419 264.161 228.039 264.365 228.495 264.773C228.951 265.173 229.179 265.717 229.179 266.405C229.179 266.893 229.067 267.365 228.843 267.821C228.627 268.269 228.263 268.773 227.751 269.333L225.315 271.973H229.539Z" fill="#100F0D"></path><path d="M237.046 270.125V270.941H235.75V272.801H234.766V270.941H230.83V270.197L234.946 264.257H235.75V270.125H237.046ZM231.85 270.125H234.766V265.925L231.85 270.125Z" fill="#100F0D"></path><path d="M244.515 266.621C245.963 266.621 246.687 267.417 246.687 269.009V272.801H245.715V269.057C245.715 268.497 245.603 268.089 245.379 267.833C245.155 267.569 244.803 267.437 244.323 267.437C243.763 267.437 243.315 267.609 242.979 267.953C242.643 268.297 242.475 268.761 242.475 269.345V272.801H241.503V263.969H242.475V267.749C242.667 267.381 242.939 267.101 243.291 266.909C243.651 266.717 244.059 266.621 244.515 266.621Z" fill="#100F0D"></path><path d="M251.018 272.885C250.45 272.885 249.95 272.757 249.518 272.501C249.086 272.245 248.75 271.881 248.51 271.409C248.278 270.937 248.162 270.385 248.162 269.753C248.162 269.121 248.278 268.569 248.51 268.097C248.75 267.625 249.086 267.261 249.518 267.005C249.95 266.749 250.45 266.621 251.018 266.621C251.586 266.621 252.086 266.749 252.518 267.005C252.95 267.261 253.282 267.625 253.514 268.097C253.754 268.569 253.874 269.121 253.874 269.753C253.874 270.385 253.754 270.937 253.514 271.409C253.282 271.881 252.95 272.245 252.518 272.501C252.086 272.757 251.586 272.885 251.018 272.885ZM251.018 272.081C251.618 272.081 252.078 271.885 252.398 271.493C252.718 271.093 252.878 270.513 252.878 269.753C252.878 269.017 252.714 268.449 252.386 268.049C252.058 267.641 251.602 267.437 251.018 267.437C250.426 267.437 249.966 267.641 249.638 268.049C249.31 268.449 249.146 269.017 249.146 269.753C249.146 270.513 249.306 271.093 249.626 271.493C249.954 271.885 250.418 272.081 251.018 272.081Z" fill="#100F0D"></path><path d="M260.441 266.765V272.801H259.493V271.757C259.301 272.125 259.033 272.405 258.689 272.597C258.345 272.789 257.957 272.885 257.525 272.885C256.813 272.885 256.273 272.685 255.905 272.285C255.537 271.885 255.353 271.293 255.353 270.509V266.765H256.325V270.485C256.325 271.029 256.437 271.429 256.661 271.685C256.885 271.941 257.225 272.069 257.681 272.069C258.217 272.069 258.649 271.897 258.977 271.553C259.305 271.201 259.469 270.741 259.469 270.173V266.765H260.441Z" fill="#100F0D"></path><path d="M265.123 266.621C265.323 266.621 265.507 266.645 265.675 266.693L265.651 267.581C265.467 267.517 265.255 267.485 265.015 267.485C264.431 267.485 263.995 267.669 263.707 268.037C263.427 268.397 263.287 268.837 263.287 269.357V272.801H262.315V268.457C262.315 267.833 262.283 267.269 262.219 266.765H263.143L263.239 267.881C263.391 267.473 263.635 267.161 263.971 266.945C264.307 266.729 264.691 266.621 265.123 266.621Z" fill="#100F0D"></path><path d="M268.644 272.885C267.628 272.885 266.824 272.625 266.232 272.105L266.556 271.385C266.884 271.641 267.216 271.825 267.552 271.937C267.888 272.049 268.264 272.105 268.68 272.105C269.136 272.105 269.48 272.029 269.712 271.877C269.952 271.717 270.072 271.489 270.072 271.193C270.072 270.953 269.992 270.761 269.832 270.617C269.672 270.473 269.408 270.361 269.04 270.281L268.02 270.041C267.516 269.929 267.124 269.729 266.844 269.441C266.572 269.153 266.436 268.809 266.436 268.409C266.436 267.881 266.648 267.453 267.072 267.125C267.496 266.789 268.056 266.621 268.752 266.621C269.176 266.621 269.576 266.689 269.952 266.825C270.328 266.961 270.644 267.157 270.9 267.413L270.576 268.121C270.008 267.649 269.4 267.413 268.752 267.413C268.32 267.413 267.984 267.497 267.744 267.665C267.512 267.825 267.396 268.053 267.396 268.349C267.396 268.597 267.468 268.793 267.612 268.937C267.764 269.081 268.004 269.193 268.332 269.273L269.352 269.525C269.912 269.653 270.328 269.853 270.6 270.125C270.872 270.389 271.008 270.737 271.008 271.169C271.008 271.689 270.796 272.105 270.372 272.417C269.948 272.729 269.372 272.885 268.644 272.885Z" fill="#100F0D"></path><path d="M272.331 271.565H273.567V272.801H272.331V271.565Z" fill="#100F0D"></path><rect x="55" y="298.4" width="268" height="49.6" rx="4" fill="#F9F9F9"></rect><path d="M147.125 328H144.905L142.517 325.276V328H140.705V319.168H142.517V324.532L144.797 321.928H146.969L144.389 324.844L147.125 328Z" fill="black"></path><path d="M153.392 321.916V328H151.628V327.112C151.436 327.432 151.184 327.676 150.872 327.844C150.56 328.012 150.208 328.096 149.816 328.096C149.056 328.096 148.488 327.884 148.112 327.46C147.736 327.036 147.548 326.396 147.548 325.54V321.916H149.36V325.576C149.36 326.312 149.676 326.68 150.308 326.68C150.684 326.68 150.988 326.552 151.22 326.296C151.452 326.04 151.568 325.704 151.568 325.288V321.916H153.392Z" fill="black"></path><path d="M160.957 319.168V328H159.169V327.1C158.985 327.412 158.725 327.656 158.389 327.832C158.053 328.008 157.673 328.096 157.249 328.096C156.729 328.096 156.265 327.964 155.857 327.7C155.449 327.428 155.129 327.052 154.897 326.572C154.673 326.084 154.561 325.528 154.561 324.904C154.561 324.28 154.673 323.732 154.897 323.26C155.129 322.78 155.445 322.412 155.845 322.156C156.253 321.892 156.721 321.76 157.249 321.76C157.657 321.76 158.029 321.848 158.365 322.024C158.701 322.192 158.961 322.428 159.145 322.732V319.168H160.957ZM157.777 326.716C158.225 326.716 158.569 326.564 158.809 326.26C159.049 325.948 159.169 325.504 159.169 324.928C159.169 324.36 159.045 323.924 158.797 323.62C158.557 323.308 158.217 323.152 157.777 323.152C157.329 323.152 156.981 323.304 156.733 323.608C156.485 323.912 156.361 324.344 156.361 324.904C156.361 325.48 156.485 325.928 156.733 326.248C156.981 326.56 157.329 326.716 157.777 326.716Z" fill="black"></path><path d="M168.516 321.916V328H166.728V327.1C166.544 327.412 166.284 327.656 165.948 327.832C165.612 328.008 165.232 328.096 164.808 328.096C164.28 328.096 163.812 327.968 163.404 327.712C163.004 327.456 162.688 327.092 162.456 326.62C162.232 326.14 162.12 325.588 162.12 324.964C162.12 324.34 162.232 323.784 162.456 323.296C162.688 322.808 163.008 322.432 163.416 322.168C163.824 321.896 164.288 321.76 164.808 321.76C165.232 321.76 165.612 321.852 165.948 322.036C166.284 322.22 166.544 322.468 166.728 322.78V321.916H168.516ZM165.336 326.716C165.784 326.716 166.128 326.564 166.368 326.26C166.608 325.956 166.728 325.516 166.728 324.94C166.728 324.364 166.608 323.924 166.368 323.62C166.128 323.308 165.784 323.152 165.336 323.152C164.888 323.152 164.54 323.312 164.292 323.632C164.044 323.952 163.92 324.396 163.92 324.964C163.92 325.532 164.04 325.968 164.28 326.272C164.528 326.568 164.88 326.716 165.336 326.716Z" fill="black"></path><path d="M173.699 321.76C174.227 321.76 174.695 321.892 175.103 322.156C175.511 322.412 175.827 322.78 176.051 323.26C176.275 323.732 176.387 324.28 176.387 324.904C176.387 325.528 176.271 326.084 176.039 326.572C175.815 327.052 175.499 327.428 175.091 327.7C174.683 327.964 174.219 328.096 173.699 328.096C173.275 328.096 172.891 328.008 172.547 327.832C172.211 327.648 171.955 327.4 171.779 327.088V328H169.979V319.168H171.791V322.768C171.967 322.456 172.223 322.212 172.559 322.036C172.903 321.852 173.283 321.76 173.699 321.76ZM173.183 326.716C173.631 326.716 173.975 326.56 174.215 326.248C174.455 325.936 174.575 325.488 174.575 324.904C174.575 324.344 174.455 323.912 174.215 323.608C173.975 323.304 173.631 323.152 173.183 323.152C172.735 323.152 172.387 323.308 172.139 323.62C171.899 323.924 171.779 324.36 171.779 324.928C171.779 325.504 171.899 325.948 172.139 326.26C172.387 326.564 172.735 326.716 173.183 326.716Z" fill="black"></path><path d="M183.645 321.916V328H181.857V327.1C181.673 327.412 181.413 327.656 181.077 327.832C180.741 328.008 180.361 328.096 179.937 328.096C179.409 328.096 178.941 327.968 178.533 327.712C178.133 327.456 177.817 327.092 177.585 326.62C177.361 326.14 177.249 325.588 177.249 324.964C177.249 324.34 177.361 323.784 177.585 323.296C177.817 322.808 178.137 322.432 178.545 322.168C178.953 321.896 179.417 321.76 179.937 321.76C180.361 321.76 180.741 321.852 181.077 322.036C181.413 322.22 181.673 322.468 181.857 322.78V321.916H183.645ZM180.465 326.716C180.913 326.716 181.257 326.564 181.497 326.26C181.737 325.956 181.857 325.516 181.857 324.94C181.857 324.364 181.737 323.924 181.497 323.62C181.257 323.308 180.913 323.152 180.465 323.152C180.017 323.152 179.669 323.312 179.421 323.632C179.173 323.952 179.049 324.396 179.049 324.964C179.049 325.532 179.169 325.968 179.409 326.272C179.657 326.568 180.009 326.716 180.465 326.716Z" fill="black"></path><path d="M188.863 321.76C190.303 321.76 191.023 322.612 191.023 324.316V328H189.211V324.4C189.211 323.976 189.131 323.668 188.971 323.476C188.819 323.276 188.575 323.176 188.239 323.176C187.839 323.176 187.519 323.304 187.279 323.56C187.039 323.816 186.919 324.16 186.919 324.592V328H185.107V323.656C185.107 323.008 185.075 322.428 185.011 321.916H186.715L186.835 322.876C187.051 322.516 187.331 322.24 187.675 322.048C188.027 321.856 188.423 321.76 188.863 321.76Z" fill="black"></path><path d="M198.887 328H196.667L194.279 325.276V328H192.467V319.168H194.279V324.532L196.559 321.928H198.731L196.151 324.844L198.887 328Z" fill="black"></path><path d="M199.377 326.068H201.333V328H199.377V326.068Z" fill="black"></path><path d="M205.413 328.096C204.421 328.096 203.641 327.816 203.073 327.256C202.513 326.696 202.233 325.932 202.233 324.964C202.233 324.332 202.369 323.776 202.641 323.296C202.913 322.808 203.293 322.432 203.781 322.168C204.277 321.896 204.849 321.76 205.497 321.76C205.937 321.76 206.365 321.828 206.781 321.964C207.197 322.1 207.529 322.284 207.777 322.516L207.297 323.776C207.057 323.584 206.793 323.436 206.505 323.332C206.217 323.22 205.937 323.164 205.665 323.164C205.169 323.164 204.781 323.316 204.501 323.62C204.229 323.916 204.093 324.352 204.093 324.928C204.093 325.512 204.229 325.956 204.501 326.26C204.773 326.556 205.161 326.704 205.665 326.704C205.937 326.704 206.217 326.652 206.505 326.548C206.793 326.436 207.057 326.284 207.297 326.092L207.777 327.352C207.513 327.584 207.169 327.768 206.745 327.904C206.321 328.032 205.877 328.096 205.413 328.096Z" fill="black"></path><path d="M211.543 328.096C210.895 328.096 210.327 327.968 209.839 327.712C209.359 327.456 208.987 327.088 208.723 326.608C208.467 326.128 208.339 325.568 208.339 324.928C208.339 324.288 208.467 323.728 208.723 323.248C208.987 322.768 209.359 322.4 209.839 322.144C210.327 321.888 210.895 321.76 211.543 321.76C212.183 321.76 212.743 321.888 213.223 322.144C213.703 322.4 214.071 322.768 214.327 323.248C214.591 323.728 214.723 324.288 214.723 324.928C214.723 325.568 214.591 326.128 214.327 326.608C214.071 327.088 213.703 327.456 213.223 327.712C212.743 327.968 212.183 328.096 211.543 328.096ZM211.543 326.716C211.991 326.716 212.331 326.568 212.563 326.272C212.803 325.976 212.923 325.528 212.923 324.928C212.923 324.336 212.803 323.892 212.563 323.596C212.331 323.292 211.991 323.14 211.543 323.14C211.087 323.14 210.739 323.292 210.499 323.596C210.259 323.892 210.139 324.336 210.139 324.928C210.139 326.12 210.607 326.716 211.543 326.716Z" fill="black"></path><path d="M223.321 321.76C224.017 321.76 224.533 321.972 224.869 322.396C225.213 322.812 225.385 323.452 225.385 324.316V328H223.573V324.376C223.573 323.952 223.505 323.648 223.369 323.464C223.233 323.272 223.009 323.176 222.697 323.176C222.329 323.176 222.045 323.304 221.845 323.56C221.645 323.816 221.545 324.176 221.545 324.64V328H219.733V324.376C219.733 323.96 219.661 323.656 219.517 323.464C219.381 323.272 219.161 323.176 218.857 323.176C218.489 323.176 218.201 323.304 217.993 323.56C217.793 323.816 217.693 324.176 217.693 324.64V328H215.881V323.656C215.881 323.008 215.849 322.428 215.785 321.916H217.489L217.597 322.828C217.781 322.484 218.037 322.22 218.365 322.036C218.701 321.852 219.085 321.76 219.517 321.76C220.421 321.76 221.021 322.136 221.317 322.888C221.517 322.544 221.793 322.272 222.145 322.072C222.505 321.864 222.897 321.76 223.321 321.76Z" fill="black"></path><path d="M227.246 328.732H225.758L228.902 318.94H230.402L227.246 328.732Z" fill="black"></path><path d="M233.679 328.108C232.647 328.108 231.855 327.732 231.303 326.98C230.759 326.228 230.487 325.14 230.487 323.716C230.487 322.308 230.759 321.232 231.303 320.488C231.855 319.744 232.647 319.372 233.679 319.372C234.711 319.372 235.499 319.744 236.043 320.488C236.595 321.232 236.871 322.308 236.871 323.716C236.871 325.14 236.595 326.228 236.043 326.98C235.499 327.732 234.711 328.108 233.679 328.108ZM233.679 326.668C234.151 326.668 234.495 326.436 234.711 325.972C234.927 325.508 235.035 324.756 235.035 323.716C235.035 322.7 234.927 321.964 234.711 321.508C234.495 321.044 234.151 320.812 233.679 320.812C233.207 320.812 232.863 321.044 232.647 321.508C232.431 321.964 232.323 322.7 232.323 323.716C232.323 324.756 232.431 325.508 232.647 325.972C232.863 326.436 233.207 326.668 233.679 326.668Z" fill="black"></path><path d="M242.29 323.608C242.786 323.752 243.166 324.004 243.43 324.364C243.702 324.716 243.838 325.152 243.838 325.672C243.838 326.424 243.554 327.016 242.986 327.448C242.418 327.88 241.646 328.096 240.67 328.096C240.078 328.096 239.51 328.012 238.966 327.844C238.422 327.668 237.982 327.432 237.646 327.136L238.246 325.792C239.006 326.344 239.786 326.62 240.586 326.62C241.106 326.62 241.482 326.532 241.714 326.356C241.954 326.172 242.074 325.884 242.074 325.492C242.074 325.116 241.954 324.844 241.714 324.676C241.482 324.5 241.106 324.412 240.586 324.412H239.362V322.948H240.382C240.878 322.948 241.246 322.864 241.486 322.696C241.726 322.52 241.846 322.256 241.846 321.904C241.846 321.552 241.738 321.284 241.522 321.1C241.314 320.916 241.014 320.824 240.622 320.824C240.254 320.824 239.878 320.896 239.494 321.04C239.11 321.176 238.734 321.38 238.366 321.652L237.766 320.308C238.11 320.012 238.55 319.78 239.086 319.612C239.622 319.436 240.174 319.348 240.742 319.348C241.318 319.348 241.822 319.444 242.254 319.636C242.694 319.828 243.03 320.096 243.262 320.44C243.502 320.784 243.622 321.188 243.622 321.652C243.622 322.116 243.506 322.52 243.274 322.864C243.042 323.2 242.714 323.448 242.29 323.608Z" fill="black"></path><path d="M247.781 319.348C248.893 319.348 249.749 319.716 250.349 320.452C250.949 321.188 251.249 322.236 251.249 323.596C251.249 324.532 251.105 325.34 250.817 326.02C250.529 326.692 250.117 327.208 249.581 327.568C249.045 327.928 248.405 328.108 247.661 328.108C247.133 328.108 246.621 328.024 246.125 327.856C245.629 327.688 245.205 327.452 244.853 327.148L245.465 325.804C246.193 326.356 246.897 326.632 247.577 326.632C248.137 326.632 248.569 326.408 248.873 325.96C249.185 325.504 249.357 324.84 249.389 323.968C249.205 324.288 248.941 324.544 248.597 324.736C248.253 324.92 247.869 325.012 247.445 325.012C246.949 325.012 246.501 324.896 246.101 324.664C245.709 324.424 245.401 324.096 245.177 323.68C244.961 323.256 244.853 322.776 244.853 322.24C244.853 321.688 244.977 321.192 245.225 320.752C245.481 320.312 245.829 319.968 246.269 319.72C246.717 319.472 247.221 319.348 247.781 319.348ZM247.889 323.536C248.273 323.536 248.581 323.412 248.813 323.164C249.053 322.908 249.173 322.576 249.173 322.168C249.173 321.768 249.053 321.444 248.813 321.196C248.573 320.94 248.265 320.812 247.889 320.812C247.505 320.812 247.197 320.936 246.965 321.184C246.741 321.432 246.629 321.76 246.629 322.168C246.629 322.592 246.741 322.928 246.965 323.176C247.189 323.416 247.497 323.536 247.889 323.536Z" fill="black"></path><path d="M256.8 323.596C257.352 323.74 257.78 323.992 258.084 324.352C258.388 324.712 258.54 325.152 258.54 325.672C258.54 326.168 258.4 326.6 258.12 326.968C257.848 327.328 257.464 327.608 256.968 327.808C256.472 328 255.904 328.096 255.264 328.096C254.624 328.096 254.056 328 253.56 327.808C253.064 327.608 252.676 327.328 252.396 326.968C252.124 326.6 251.988 326.168 251.988 325.672C251.988 325.152 252.14 324.712 252.444 324.352C252.756 323.984 253.184 323.732 253.728 323.596C253.248 323.436 252.872 323.188 252.6 322.852C252.328 322.516 252.192 322.12 252.192 321.664C252.192 321.2 252.324 320.792 252.588 320.44C252.852 320.088 253.216 319.82 253.68 319.636C254.152 319.444 254.68 319.348 255.264 319.348C255.848 319.348 256.372 319.444 256.836 319.636C257.308 319.82 257.676 320.088 257.94 320.44C258.204 320.792 258.336 321.2 258.336 321.664C258.336 322.128 258.196 322.532 257.916 322.876C257.644 323.22 257.272 323.46 256.8 323.596ZM255.264 320.788C254.864 320.788 254.544 320.88 254.304 321.064C254.072 321.248 253.956 321.516 253.956 321.868C253.956 322.204 254.072 322.476 254.304 322.684C254.544 322.884 254.864 323.024 255.264 323.104C255.664 323.024 255.98 322.884 256.212 322.684C256.452 322.476 256.572 322.204 256.572 321.868C256.572 321.516 256.452 321.248 256.212 321.064C255.98 320.88 255.664 320.788 255.264 320.788ZM255.264 326.656C255.736 326.656 256.108 326.56 256.38 326.368C256.66 326.176 256.8 325.896 256.8 325.528C256.8 325.184 256.66 324.904 256.38 324.688C256.108 324.472 255.736 324.328 255.264 324.256C254.792 324.328 254.416 324.472 254.136 324.688C253.864 324.904 253.728 325.184 253.728 325.528C253.728 325.896 253.864 326.176 254.136 326.368C254.416 326.56 254.792 326.656 255.264 326.656Z" fill="black"></path><path d="M263.876 323.608C264.372 323.752 264.752 324.004 265.016 324.364C265.288 324.716 265.424 325.152 265.424 325.672C265.424 326.424 265.14 327.016 264.572 327.448C264.004 327.88 263.232 328.096 262.256 328.096C261.664 328.096 261.096 328.012 260.552 327.844C260.008 327.668 259.568 327.432 259.232 327.136L259.832 325.792C260.592 326.344 261.372 326.62 262.172 326.62C262.692 326.62 263.068 326.532 263.3 326.356C263.54 326.172 263.66 325.884 263.66 325.492C263.66 325.116 263.54 324.844 263.3 324.676C263.068 324.5 262.692 324.412 262.172 324.412H260.948V322.948H261.968C262.464 322.948 262.832 322.864 263.072 322.696C263.312 322.52 263.432 322.256 263.432 321.904C263.432 321.552 263.324 321.284 263.108 321.1C262.9 320.916 262.6 320.824 262.208 320.824C261.84 320.824 261.464 320.896 261.08 321.04C260.696 321.176 260.32 321.38 259.952 321.652L259.352 320.308C259.696 320.012 260.136 319.78 260.672 319.612C261.208 319.436 261.76 319.348 262.328 319.348C262.904 319.348 263.408 319.444 263.84 319.636C264.28 319.828 264.616 320.096 264.848 320.44C265.088 320.784 265.208 321.188 265.208 321.652C265.208 322.116 265.092 322.52 264.86 322.864C264.628 323.2 264.3 323.448 263.876 323.608Z" fill="black"></path><path d="M266.595 319.456H272.727V320.848L268.923 328H266.919L270.711 320.956H266.595V319.456Z" fill="black"></path><path d="M277.174 320.596C276.894 320.596 276.67 320.676 276.502 320.836C276.334 320.988 276.25 321.236 276.25 321.58V321.916H277.522V323.272H276.25V328H274.438V323.272H273.298V321.916H274.438V321.532C274.438 320.764 274.634 320.168 275.026 319.744C275.418 319.32 275.986 319.108 276.73 319.108C277.146 319.108 277.49 319.16 277.762 319.264V320.68C277.53 320.624 277.334 320.596 277.174 320.596Z" fill="black"></path><path d="M282.356 321.76C283.796 321.76 284.516 322.612 284.516 324.316V328H282.704V324.4C282.704 323.976 282.624 323.668 282.464 323.476C282.312 323.276 282.068 323.176 281.732 323.176C281.332 323.176 281.012 323.304 280.772 323.56C280.532 323.816 280.412 324.16 280.412 324.592V328H278.6V319.168H280.412V322.744C280.628 322.424 280.904 322.18 281.24 322.012C281.576 321.844 281.948 321.76 282.356 321.76Z" fill="black"></path><path d="M78.4851 326.95C77.8809 326.95 77.3529 326.821 76.9011 326.563C76.4553 326.299 76.1121 325.927 75.8715 325.446C75.631 324.964 75.5107 324.395 75.5107 323.738C75.5107 323.087 75.631 322.521 75.8715 322.04C76.1121 321.559 76.4553 321.189 76.9011 320.931C77.3529 320.673 77.8809 320.544 78.4851 320.544C78.9134 320.544 79.3094 320.611 79.6731 320.746C80.0427 320.875 80.3537 321.066 80.6059 321.318L80.2891 321.987C79.9958 321.747 79.7054 321.574 79.4179 321.468C79.1363 321.356 78.8283 321.301 78.4939 321.301C77.8427 321.301 77.3382 321.512 76.9803 321.934C76.6283 322.357 76.4523 322.958 76.4523 323.738C76.4523 324.524 76.6283 325.132 76.9803 325.56C77.3382 325.982 77.8427 326.194 78.4939 326.194C78.8283 326.194 79.1363 326.141 79.4179 326.035C79.7054 325.924 79.9958 325.748 80.2891 325.507L80.6059 326.176C80.3537 326.428 80.0427 326.622 79.6731 326.757C79.3094 326.886 78.9134 326.95 78.4851 326.95Z" fill="#40196D"></path><path d="M84.336 326.95C83.7435 326.95 83.2272 326.821 82.7872 326.563C82.3531 326.299 82.0158 325.927 81.7752 325.446C81.5406 324.964 81.4232 324.398 81.4232 323.747C81.4232 323.09 81.5406 322.521 81.7752 322.04C82.0099 321.559 82.3472 321.189 82.7872 320.931C83.2272 320.673 83.7435 320.544 84.336 320.544C84.9344 320.544 85.4507 320.673 85.8848 320.931C86.3248 321.189 86.6622 321.559 86.8968 322.04C87.1315 322.521 87.2488 323.087 87.2488 323.738C87.2488 324.395 87.1315 324.964 86.8968 325.446C86.6622 325.927 86.3248 326.299 85.8848 326.563C85.4448 326.821 84.9286 326.95 84.336 326.95ZM84.336 326.211C84.9638 326.211 85.4507 325.997 85.7968 325.569C86.1488 325.14 86.3248 324.53 86.3248 323.738C86.3248 322.952 86.1488 322.348 85.7968 321.926C85.4507 321.497 84.9638 321.283 84.336 321.283C83.7083 321.283 83.2214 321.497 82.8752 321.926C82.5291 322.348 82.356 322.952 82.356 323.738C82.356 324.53 82.5291 325.14 82.8752 325.569C83.2272 325.997 83.7142 326.211 84.336 326.211Z" fill="#40196D"></path><path d="M88.5011 320.614H91.1059C91.7629 320.614 92.2733 320.776 92.6371 321.098C93.0067 321.415 93.1915 321.849 93.1915 322.401C93.1915 322.952 93.0037 323.389 92.6283 323.712C92.2587 324.029 91.7512 324.187 91.1059 324.187H89.4075V326.88H88.5011V320.614ZM91.0003 323.466C91.4344 323.466 91.76 323.375 91.9771 323.193C92.2 323.011 92.3115 322.747 92.3115 322.401C92.3115 322.06 92.2 321.799 91.9771 321.618C91.76 321.436 91.4344 321.345 91.0003 321.345H89.4075V323.466H91.0003Z" fill="#40196D"></path><path d="M99.2043 320.614L96.7051 324.363V326.88H95.7899V324.346L93.2995 320.614H94.3379L96.2563 323.571L98.1659 320.614H99.2043Z" fill="#40196D"></path><path d="M105.645 320C105.645 318.232 107.077 316.8 108.845 316.8H112.845C114.612 316.8 116.045 318.232 116.045 320V324C116.045 325.767 114.612 327.2 112.845 327.2H108.845C107.077 327.2 105.645 325.767 105.645 324V320Z" fill="white"></path><path fill-rule="evenodd" clip-rule="evenodd" d="M112.845 317.6H108.845C107.519 317.6 106.445 318.674 106.445 320V324C106.445 325.325 107.519 326.4 108.845 326.4H112.845C114.17 326.4 115.245 325.325 115.245 324V320C115.245 318.674 114.17 317.6 112.845 317.6ZM108.845 316.8C107.077 316.8 105.645 318.232 105.645 320V324C105.645 325.767 107.077 327.2 108.845 327.2H112.845C114.612 327.2 116.045 325.767 116.045 324V320C116.045 318.232 114.612 316.8 112.845 316.8H108.845Z" fill="#F4E6FF"></path><path d="M103.244 322.4C103.244 320.632 104.677 319.2 106.444 319.2H110.444C112.211 319.2 113.644 320.632 113.644 322.4V326.4C113.644 328.167 112.211 329.6 110.444 329.6H106.444C104.677 329.6 103.244 328.167 103.244 326.4V322.4Z" fill="#F4E6FF"></path><path fill-rule="evenodd" clip-rule="evenodd" d="M110.444 320H106.444C105.119 320 104.044 321.074 104.044 322.4V326.4C104.044 327.725 105.119 328.8 106.444 328.8H110.444C111.77 328.8 112.844 327.725 112.844 326.4V322.4C112.844 321.074 111.77 320 110.444 320ZM106.444 319.2C104.677 319.2 103.244 320.632 103.244 322.4V326.4C103.244 328.167 104.677 329.6 106.444 329.6H110.444C112.211 329.6 113.644 328.167 113.644 326.4V322.4C113.644 320.632 112.211 319.2 110.444 319.2H106.444Z" fill="#40196D"></path><path d="M212.512 168.829H168.037C162.161 168.829 157.355 164.037 157.355 158.178V113.851C157.355 107.992 162.161 103.2 168.037 103.2H212.493C218.368 103.2 223.174 107.992 223.174 113.851V158.178C223.193 164.037 218.388 168.829 212.512 168.829Z" fill="#F4E6FF"></path><path d="M209.337 165.648H164.881C159.006 165.648 154.2 160.856 154.2 154.998V110.65C154.2 104.792 159.006 100 164.881 100H209.337C215.213 100 220.018 104.792 220.018 110.65V154.978C220.038 160.856 215.232 165.648 209.337 165.648Z" fill="#40196D"></path><path d="M186.301 137.434L188.163 135.572C186.973 135.451 186.048 135.032 185.409 134.393C183.591 132.575 183.591 130.031 185.398 128.224L189.11 124.512C190.928 122.705 193.462 122.705 195.279 124.512C197.108 126.34 197.097 128.885 195.29 130.692L193.649 132.333C194.034 133.225 194.189 134.349 193.935 135.33L197.02 132.245C199.796 129.502 199.796 125.569 197.009 122.782C194.222 119.995 190.311 120.017 187.557 122.771L183.657 126.66C180.903 129.425 180.892 133.347 183.679 136.123C184.274 136.729 185.144 137.213 186.301 137.434ZM187.91 127.96L186.048 129.832C187.238 129.954 188.163 130.361 188.802 131C190.62 132.818 190.62 135.374 188.813 137.169L185.1 140.882C183.283 142.688 180.738 142.699 178.931 140.882C177.103 139.053 177.114 136.519 178.92 134.713L180.562 133.071C180.176 132.179 180.022 131.044 180.275 130.064L177.18 133.148C174.415 135.902 174.415 139.824 177.191 142.611C179.989 145.398 183.9 145.387 186.654 142.622L190.542 138.733C193.307 135.968 193.318 132.058 190.531 129.271C189.937 128.665 189.066 128.18 187.91 127.96Z" fill="white"></path><defs><filter id="filter0_d" x="14" y="44" width="350" height="360.4" filterUnits="userSpaceOnUse" color-interpolation-filters="sRGB"><feFlood flood-opacity="0" result="BackgroundImageFix"></feFlood><feColorMatrix in="SourceAlpha" type="matrix" values="0 0 0 0 0 0 0 0 0 0 0 0 0 0 0 0 0 0 127 0"></feColorMatrix><feOffset></feOffset><feGaussianBlur stdDeviation="12.5"></feGaussianBlur><feColorMatrix type="matrix" values="0 0 0 0 0 0 0 0 0 0 0 0 0 0 0 0 0 0 0.06 0"></feColorMatrix><feBlend mode="normal" in2="BackgroundImageFix" result="effect1_dropShadow"></feBlend><feBlend mode="normal" in="SourceGraphic" in2="effect1_dropShadow" result="shape"></feBlend></filter></defs></svg>