<svg width="564" height="310" viewBox="0 0 564 310" fill="none" xmlns="http://www.w3.org/2000/svg">
<path fill-rule="evenodd" clip-rule="evenodd" d="M349.654 48.7476L303.204 125.81C296.148 121.529 293.943 112.228 298.206 105.142L336.939 40.9232C332.676 34.8704 332.162 26.6769 336.204 19.9597C341.643 10.9543 353.256 8.07554 362.222 13.5378C371.115 19.0001 373.982 30.7367 368.543 39.7421C364.427 46.5331 356.93 49.781 349.654 48.7476ZM356.857 22.3956C352.741 19.8859 347.376 21.2146 344.877 25.3482C343.333 27.9318 343.26 31.032 344.436 33.6155C345.171 35.1656 346.273 36.4943 347.817 37.3801C349.36 38.3397 351.051 38.7087 352.668 38.6349C355.46 38.4873 358.18 37.011 359.797 34.4275C362.296 30.2938 360.973 24.9053 356.857 22.3956Z" fill="#124923"/>
<path d="M461.59 111.49C453.947 111.859 450.786 109.054 447.185 103.74L441.452 107.726C446.45 115.107 451.815 118.946 461.884 118.503C466.147 118.281 467.396 111.195 461.59 111.49Z" fill="white"/>
<path d="M477.893 78.6019C477.749 76.5284 476.542 74.677 474.703 73.7086L414.366 41.9362C410.169 39.8437 405.222 40.009 401.174 42.3771L245.47 141.919C239.544 145.745 237.872 153.336 241.65 159.35L303.33 251.346C307.099 257.082 315.134 258.767 321.059 254.94L476.763 155.399C480.811 153.031 482.861 148.497 482.437 144.045L477.893 78.6019ZM429.198 107.029C423.468 100.243 425.607 90.1243 433.721 85.9457C439.674 82.9556 447.151 84.3803 451.175 89.5487C456.905 96.3347 454.767 106.454 446.652 110.633C440.699 113.623 433.223 112.198 429.198 107.029Z" fill="#9ED187"/>
<path fill-rule="evenodd" clip-rule="evenodd" d="M286.594 42.1042C280.052 33.9107 281.375 21.8789 289.533 15.3094C297.692 8.73984 309.598 10.0685 316.139 18.262C320.99 24.3886 321.505 32.6559 318.05 39.1516L364.647 97.7607C369.792 104.256 368.763 113.705 362.296 118.872L306.364 48.5261C299.309 50.5191 291.444 48.2308 286.594 42.1042ZM294.531 35.6823C296.442 38.0444 299.309 39.1516 302.101 38.9302C303.718 38.7825 305.409 38.192 306.805 37.011C308.202 35.9037 309.157 34.4274 309.672 32.8035C310.554 30.0724 310.039 27.0459 308.202 24.6101C305.188 20.8455 299.676 20.1812 295.928 23.2814C292.179 26.3816 291.518 31.9177 294.531 35.6823Z" fill="#124923"/>
<path fill-rule="evenodd" clip-rule="evenodd" d="M124.699 171.758L134.43 179.076C136.641 180.686 139.59 180.686 141.654 178.93L151.089 171.319C154.185 168.831 158.608 170.002 160.23 173.661L164.948 184.785C165.98 187.273 168.634 188.736 171.288 188.297L183.377 186.395C187.21 185.809 190.601 189.029 190.159 192.835L188.684 204.836C188.39 207.471 189.864 209.959 192.37 210.984L203.723 215.375C207.408 216.838 208.588 221.229 206.229 224.303L198.857 233.963C197.235 236.158 197.236 239.085 199.005 241.135L206.671 250.502C209.178 253.575 207.998 257.966 204.312 259.576L193.107 264.26C190.601 265.285 189.127 267.919 189.569 270.554L191.486 282.555C192.075 286.361 188.832 289.727 184.999 289.288L172.909 287.824C170.256 287.532 167.749 288.995 166.717 291.484L162.294 302.754C160.82 306.413 156.397 307.584 153.301 305.242L143.57 297.924C141.359 296.314 138.41 296.314 136.346 298.07L126.911 305.681C123.815 308.169 119.392 306.998 117.77 303.339L113.052 292.215C112.02 289.727 109.366 288.264 106.712 288.703L94.6231 290.605C90.7899 291.191 87.3989 287.971 87.8412 284.165L89.3155 272.164C89.6104 269.529 88.1361 267.041 85.6297 266.016L74.2775 261.625C70.5917 260.162 69.4123 255.771 71.7712 252.697L79.1428 243.037C80.7645 240.842 80.7645 237.915 78.9953 235.865L71.3288 226.498C68.8225 223.425 70.002 219.034 73.6878 217.424L84.8926 212.74C87.3989 211.716 88.8733 209.081 88.431 206.446L86.5144 194.445C85.9246 190.639 89.1681 187.273 93.0013 187.712L105.091 189.176C107.744 189.468 110.251 188.005 111.283 185.516L115.706 174.246C117.033 170.587 121.456 169.416 124.699 171.758Z" fill="#9ED187"/>
<path fill-rule="evenodd" clip-rule="evenodd" d="M238.306 90.8959L246.023 96.8011C247.714 98.1297 250.066 98.0559 251.756 96.7273L259.253 90.6006C261.678 88.6814 265.279 89.5672 266.455 92.446L270.204 101.378C271.012 103.371 273.07 104.552 275.202 104.183L284.756 102.706C287.843 102.263 290.489 104.847 290.048 107.947L288.872 117.617C288.578 119.758 289.828 121.824 291.812 122.562L300.779 126.106C303.645 127.213 304.674 130.83 302.837 133.339L297.03 141.09C295.707 142.788 295.781 145.15 297.104 146.848L303.13 154.451C305.041 156.886 304.159 160.503 301.293 161.684L292.4 165.449C290.415 166.261 289.313 168.328 289.607 170.468L291.077 180.064C291.518 183.165 288.946 185.822 285.932 185.453L276.378 184.272C274.246 183.977 272.262 185.231 271.453 187.224L267.999 196.304C266.896 199.182 263.295 200.216 260.87 198.37L253.152 192.465C251.462 191.137 249.11 191.21 247.42 192.539L239.923 198.666C237.498 200.585 233.896 199.699 232.72 196.82L228.972 187.889C228.163 185.896 226.106 184.715 223.974 185.084L214.419 186.56C211.333 187.003 208.687 184.419 209.128 181.319L210.304 171.649C210.598 169.509 209.348 167.442 207.364 166.704L198.397 163.161C195.531 162.053 194.502 158.437 196.339 155.927L202.145 148.176C203.468 146.479 203.395 144.116 202.072 142.419L196.045 134.816C194.134 132.38 195.016 128.763 197.883 127.582L206.776 123.817C208.76 123.005 209.863 120.939 209.569 118.798L208.099 109.202C207.658 106.102 210.23 103.444 213.244 103.813L222.798 104.995C224.93 105.29 226.914 104.035 227.722 102.042L231.177 92.9627C232.279 90.0101 235.807 88.9767 238.306 90.8959Z" fill="#0AAD0A"/>
<path fill-rule="evenodd" clip-rule="evenodd" d="M329.883 104.478C329.663 104.921 329.663 105.511 329.957 106.028L334.881 114.517C335.322 115.329 336.351 115.55 337.086 115.107C337.895 114.664 338.115 113.631 337.674 112.893L332.75 104.404C332.309 103.592 331.28 103.371 330.545 103.813C330.177 103.961 329.957 104.256 329.883 104.478ZM339.732 121.455C339.511 121.898 339.511 122.489 339.805 123.005L344.73 131.494C345.171 132.306 346.2 132.527 346.935 132.085C347.743 131.642 347.964 130.608 347.523 129.87L342.598 121.381C342.157 120.569 341.128 120.348 340.393 120.791C340.099 120.939 339.879 121.16 339.732 121.455ZM349.654 138.433C349.434 138.876 349.434 139.466 349.728 139.983L354.652 148.472C355.093 149.283 356.122 149.505 356.857 149.062C357.665 148.619 357.886 147.586 357.445 146.848L352.52 138.359C352.079 137.547 351.051 137.325 350.316 137.768C350.022 137.916 349.801 138.137 349.654 138.433ZM359.576 155.41C359.356 155.853 359.356 156.444 359.65 156.96L364.574 165.449C365.015 166.261 366.044 166.482 366.779 166.039C367.587 165.597 367.808 164.563 367.367 163.825L362.443 155.336C362.002 154.524 360.973 154.303 360.238 154.746C359.87 154.893 359.723 155.115 359.576 155.41ZM369.425 172.388C369.204 172.83 369.204 173.421 369.498 173.938L374.423 182.426C374.864 183.238 375.893 183.46 376.628 183.017C377.436 182.574 377.656 181.541 377.215 180.802L372.291 172.314C371.85 171.502 370.821 171.28 370.086 171.723C369.792 171.871 369.572 172.092 369.425 172.388ZM379.347 189.365C379.126 189.808 379.126 190.398 379.42 190.915L384.345 199.404C384.786 200.216 385.815 200.437 386.55 199.994C387.358 199.551 387.579 198.518 387.138 197.78L382.213 189.291C381.772 188.479 380.743 188.258 380.008 188.701C379.714 188.848 379.494 189.07 379.347 189.365Z" fill="white"/>
<path fill-rule="evenodd" clip-rule="evenodd" d="M328.34 68.4562C327.384 67.2752 327.605 65.5774 328.781 64.6179C329.957 63.6583 331.647 63.8797 332.603 65.0607C333.558 66.2418 333.338 67.9395 332.162 68.8991C330.986 69.7849 329.295 69.6373 328.34 68.4562Z" fill="#DEEED6"/>
<path fill-rule="evenodd" clip-rule="evenodd" d="M124.459 213.503C126.884 207.893 133.205 205.457 138.717 207.893C144.156 210.255 146.802 216.677 144.45 222.213C142.025 227.823 135.63 230.332 130.118 227.896C124.606 225.461 122.107 219.112 124.459 213.503ZM159.003 218.448C159.517 218.079 160.178 218.079 160.546 218.227L166.132 220.663C167.234 221.179 167.455 222.508 166.499 223.246L119.829 261.556C119.461 261.777 118.653 261.925 118.285 261.777L112.846 259.415C111.744 258.899 111.523 257.57 112.479 256.832L159.003 218.448ZM136.953 218.965C137.541 217.636 136.88 215.938 135.557 215.348C134.161 214.757 132.47 215.422 131.882 216.75C131.294 218.153 131.956 219.851 133.352 220.515C134.675 221.032 136.365 220.367 136.953 218.965ZM149.154 252.182C154.666 254.617 157.312 261.039 154.887 266.649C152.535 272.185 146.067 274.769 140.481 272.333C135.042 269.971 132.47 263.401 134.822 257.939C137.247 252.329 143.642 249.819 149.154 252.182ZM143.715 264.804C145.112 265.394 146.802 264.73 147.39 263.401C147.978 261.999 147.316 260.301 145.92 259.637C144.597 259.046 142.907 259.711 142.319 261.113C141.731 262.516 142.392 264.213 143.715 264.804Z" fill="white"/>
<path fill-rule="evenodd" clip-rule="evenodd" d="M264.324 155.041C265.206 147.512 259.253 143.6 254.549 140.278L255.651 131.199C257.93 132.528 259.179 133.709 260.502 134.963C260.943 135.406 261.604 135.406 262.119 134.816L266.014 130.461C266.308 130.092 266.529 128.984 265.867 128.468C264.544 127.213 261.163 124.334 256.533 123.005L256.901 119.905C256.974 119.093 256.46 118.355 255.651 118.281L252.711 117.912C251.903 117.838 251.168 118.355 251.094 119.167L250.727 122.267C243.451 122.562 239.188 126.991 238.453 132.675C237.644 139.318 242.863 143.452 247.714 146.848L246.464 157.329C243.965 156.296 242.201 154.746 240.658 153.196C239.923 152.458 239.335 152.531 238.673 153.417L236.101 157.108C235.44 158.067 235.219 158.806 236.027 159.618C237.13 160.799 240.364 163.751 245.509 165.08L244.921 169.656C244.847 170.468 245.362 171.207 246.17 171.28L249.11 171.649C249.918 171.723 250.653 171.207 250.727 170.395L251.315 165.744C258.738 165.597 263.662 160.946 264.324 155.041ZM247.346 132.454C247.493 131.273 248.522 130.313 249.845 129.944L249.036 136.661C247.64 135.332 247.126 134.225 247.346 132.454ZM252.417 158.067L253.299 150.834C254.402 152.236 254.99 153.639 254.769 155.115C254.622 156.517 253.667 157.551 252.417 158.067Z" fill="white"/>
<path d="M174.718 36.3248C180.56 33.9779 182.436 24.8951 178.908 16.0377C175.381 7.18037 167.785 1.90253 161.943 4.24935C156.101 6.59618 154.225 15.679 157.753 24.5364C161.281 33.3937 168.876 38.6716 174.718 36.3248Z" fill="#F9BB1F"/>
<path d="M181.713 53.6198C180.023 54.1365 178.332 54.5794 176.569 54.8746C168.263 56.2771 160.179 54.8746 153.196 51.2577C148.346 45.8692 144.597 39.2997 142.613 31.9182C142.172 30.3681 141.804 28.818 141.584 27.194C140.849 22.8389 140.702 18.5577 141.143 14.3502L167.381 26.6035C167.381 26.6773 167.381 26.7511 167.455 26.8249C168.778 34.6493 171.938 41.7356 176.422 47.6408C177.965 49.7814 179.802 51.7744 181.713 53.6198Z" fill="#44AE49"/>
<path d="M177.671 56.2771C176.569 56.5723 175.907 56.7938 174.731 57.0152C169.219 57.8272 165.765 56.7938 162.604 56.3509C159.223 53.6197 147.317 36.6423 147.317 25.2748L163.192 31.5491C165.177 40.1854 170.983 48.5265 174.07 52.3649C175.099 53.7674 176.348 55.096 177.671 56.2771Z" fill="#70CA51"/>
<path d="M208.466 62.6252C206.408 63.5848 204.277 64.3968 202.072 65.0611C200.308 65.5778 198.397 66.0207 196.56 66.3898C179.949 69.2686 163.78 63.0681 153.27 51.3315C160.179 54.8747 168.337 56.351 176.642 54.9485C178.406 54.6532 180.096 54.2103 181.787 53.6936C183.183 53.2507 184.58 52.734 185.829 52.1435L208.466 62.6252Z" fill="#278A00"/>
<path d="M174.719 36.3248C180.56 33.9779 182.436 24.8951 178.909 16.0377C175.381 7.18037 167.786 1.90253 161.944 4.24935C156.102 6.59618 154.226 15.679 157.754 24.5364C161.281 33.3937 168.877 38.6716 174.719 36.3248Z" fill="#F9BB1F"/>
<path d="M181.713 53.6198C180.023 54.1365 178.332 54.5794 176.568 54.8746C168.263 56.2771 160.178 54.8746 153.196 51.2577C148.345 45.8692 144.597 39.2997 142.613 31.9182C142.172 30.3681 141.804 28.818 141.584 27.194C140.849 22.8389 140.702 18.5577 141.143 14.3502L167.381 26.6035C167.381 26.6773 167.381 26.7511 167.455 26.8249C168.777 34.6493 171.938 41.7356 176.421 47.6408C177.965 49.7814 179.802 51.7744 181.713 53.6198Z" fill="#44AE49"/>
<path d="M177.671 56.2771C176.568 56.5723 175.907 56.7938 174.731 57.0152C169.219 57.8272 165.764 56.7938 162.604 56.3509C159.223 53.6197 147.316 36.6423 147.316 25.2748L163.192 31.5491C165.176 40.1854 170.982 48.5265 174.069 52.3649C175.098 53.7674 176.348 55.096 177.671 56.2771Z" fill="#70CA51"/>
<path d="M208.466 62.6252C206.408 63.5848 204.277 64.3968 202.072 65.0611C200.308 65.5778 198.397 66.0207 196.559 66.3898C179.949 69.2686 163.78 63.0681 153.27 51.3315C160.178 54.8747 168.337 56.351 176.642 54.9485C178.406 54.6532 180.096 54.2103 181.787 53.6936C183.183 53.2507 184.579 52.734 185.829 52.1435L208.466 62.6252Z" fill="#278A00"/>
<path d="M286.325 274.161C283.978 268.319 274.895 266.443 266.038 269.971C257.18 273.499 251.903 281.094 254.249 286.936C256.596 292.778 265.679 294.654 274.536 291.126C283.394 287.598 288.672 280.003 286.325 274.161Z" fill="#F9BB1F"/>
<path d="M303.62 267.167C304.136 268.857 304.579 270.547 304.875 272.311C306.277 280.617 304.875 288.701 301.258 295.683C295.869 300.534 289.3 304.283 281.918 306.267C280.368 306.708 278.818 307.076 277.194 307.296C272.839 308.031 268.558 308.178 264.35 307.737L276.603 281.499C276.677 281.499 276.751 281.499 276.825 281.425C284.649 280.102 291.736 276.942 297.641 272.458C299.781 270.915 301.774 269.078 303.62 267.167Z" fill="#44AE49"/>
<path d="M306.277 271.209C306.572 272.311 306.794 272.973 307.015 274.149C307.827 279.661 306.794 283.115 306.351 286.276C303.62 289.657 286.642 301.563 275.275 301.563L281.549 285.688C290.185 283.703 298.526 277.897 302.365 274.81C303.767 273.781 305.096 272.532 306.277 271.209Z" fill="#70CA51"/>
<path d="M312.625 240.414C313.585 242.472 314.397 244.603 315.061 246.808C315.578 248.572 316.021 250.483 316.39 252.32C319.269 268.931 313.068 285.1 301.332 295.61C304.875 288.701 306.351 280.543 304.948 272.238C304.653 270.474 304.21 268.784 303.694 267.093C303.251 265.697 302.734 264.3 302.144 263.051L312.625 240.414Z" fill="#278A00"/>
<path d="M477.136 266.235C473.094 266.383 469.199 266.604 465.524 266.899C469.199 264.168 472.947 261.88 476.622 260.404L460.526 244.46C448.84 249.184 436.125 261.068 429.657 273.026C426.497 273.912 423.704 274.724 421.278 275.536C429.584 257.82 444.283 243.795 462.437 236.414L487.499 261.142C483.824 262.544 480.37 264.242 477.136 266.235Z" fill="#43AA2A"/>
<path d="M427.305 278.045L443.401 293.989C447.37 284.689 455.969 274.133 465.524 266.899C469.199 266.604 473.094 266.382 477.136 266.235C462.143 275.093 450.383 288.896 444.063 305.357L419 280.629C419.661 278.857 420.396 277.159 421.205 275.536C423.63 274.724 426.497 273.912 429.584 273.026C428.702 274.724 427.893 276.421 427.305 278.045Z" fill="#278A00"/>
<path d="M460.526 244.459L476.622 260.403C472.947 261.88 469.125 264.168 465.524 266.899C450.824 268.154 438.771 270.59 429.657 273.026C436.051 261.068 448.84 249.184 460.526 244.459Z" fill="#70CA51"/>
<path d="M443.401 293.989L427.305 278.045C427.967 276.348 428.702 274.65 429.657 273.026C438.771 270.59 450.824 268.154 465.524 266.899C455.969 274.059 447.37 284.615 443.401 293.989Z" fill="#43AA2A"/>
<path d="M462.878 298.197C471.848 298.197 479.12 290.893 479.12 281.884C479.12 272.874 471.848 265.571 462.878 265.571C453.907 265.571 446.635 272.874 446.635 281.884C446.635 290.893 453.907 298.197 462.878 298.197Z" fill="#FFBE1D"/>
<path d="M100.852 113.142C99.9481 117.085 99.1538 120.905 98.4879 124.531C96.8009 120.274 95.5608 116.061 95.0859 112.13L75.5192 123.55C77.0579 136.061 85.2462 151.419 95.1228 160.761C95.1604 164.043 95.2219 166.951 95.3784 169.504C80.416 156.896 70.6736 139.068 68.2422 119.622L98.6142 101.814C99.0178 105.726 99.7636 109.503 100.852 113.142Z" fill="#43AA2A"/>
<path d="M99.3625 164.332L118.929 152.911C110.973 146.67 103.002 135.632 98.488 124.531C99.1539 120.905 99.9482 117.085 100.852 113.142C105.527 129.917 115.817 144.848 130.081 155.214L99.7085 173.023C98.1685 171.925 96.7188 170.776 95.3595 169.575C95.2029 167.022 95.1605 164.043 95.1039 160.832C96.5155 162.123 97.9461 163.344 99.3625 164.332Z" fill="#278A00"/>
<path d="M75.5193 123.55L95.086 112.13C95.5609 116.061 96.782 120.345 98.488 124.531C95.8956 139.054 95.1288 151.327 95.1229 160.761C85.2273 151.49 77.0579 136.061 75.5193 123.55Z" fill="#70CA51"/>
<path d="M118.929 152.911L99.3626 164.332C97.8939 163.253 96.4442 162.104 95.1229 160.761C95.1288 151.327 95.8956 139.054 98.488 124.531C102.931 135.613 110.901 146.651 118.929 152.911Z" fill="#43AA2A"/>
<path d="M128.034 135.187C130.356 126.522 125.183 117.607 116.481 115.276C107.778 112.944 98.8415 118.078 96.5198 126.743C94.198 135.408 99.3706 144.323 108.073 146.654C116.776 148.986 125.712 143.852 128.034 135.187Z" fill="#FFBE1D"/>
</svg>
