<?xml version="1.0" encoding="UTF-8"?>
<svg id="Illustration" xmlns="http://www.w3.org/2000/svg" xmlns:xlink="http://www.w3.org/1999/xlink" viewBox="0 0 1685.45 1679.2">
  <defs>
    <style>
      .cls-1 {
        fill: #fff;
      }

      .cls-2 {
        fill: #2d353a;
      }

      .cls-3 {
        fill: #84524d;
      }

      .cls-4 {
        fill: #8b865c;
      }

      .cls-5 {
        fill: #f7f1eb;
      }

      .cls-6 {
        fill: #007cff;
      }

      .cls-7 {
        clip-path: url(#clippath);
      }

      .cls-8 {
        fill: none;
      }

      .cls-9 {
        fill: #efbc73;
      }

      .cls-10 {
        fill: #f2e6dc;
      }

      .cls-11 {
        fill: #363e44;
      }
    </style>
    <clipPath id="clippath">
      <path class="cls-8" d="m423.28,478.35s19.28-10.37,39.27-5.96c19.98,4.41,33.1,21.94,33.1,21.94,0,0-19.28,10.37-39.27,5.96-19.98-4.41-33.1-21.94-33.1-21.94Z"/>
    </clipPath>
  </defs>
  <g id="Mortgage_loan" data-name="Mortgage loan">
    <g>
      <g>
        <path class="cls-11" d="m1500.92,1178.68c-.55,0-1-.45-1-1v-184.65c0-.55.45-1,1-1s1,.45,1,1v184.65c0,.55-.45,1-1,1Z"/>
        <path class="cls-11" d="m1280.9,1621.16H338.16c-.55,0-1-.45-1-1V232.03c0-.55.45-1,1-1h261.97c.55,0,1,.45,1,1s-.45,1-1,1h-260.97v1386.12h941.74c.55,0,1,.45,1,1s-.45,1-1,1Z"/>
        <path class="cls-11" d="m1500.92,690.43c-.55,0-1-.45-1-1V233.03h-278.15c-.55,0-1-.45-1-1s.45-1,1-1h279.15c.55,0,1,.45,1,1v457.4c0,.55-.45,1-1,1Z"/>
      </g>
      <g>
        <rect class="cls-1" x="456.55" y="274.49" width="925.97" height="1246.03" transform="translate(1839.08 1795.02) rotate(180)"/>
        <g>
          <rect class="cls-10" x="582.67" y="499.16" width="673.73" height="23.66"/>
          <rect class="cls-10" x="582.67" y="544.35" width="673.73" height="261.18"/>
        </g>
        <g>
          <rect class="cls-10" x="582.67" y="853.69" width="673.73" height="23.66"/>
          <rect class="cls-10" x="582.67" y="898.89" width="673.73" height="261.18"/>
        </g>
        <path class="cls-5" d="m1034.37,158.8h0c0-75.28-61.03-136.32-136.32-136.32s-136.32,61.03-136.32,136.32h-149.47v179.64h571.58v-179.64h-149.47Zm-236.76,0c0-55.47,44.97-100.44,100.44-100.44s100.44,44.97,100.44,100.44h-200.89Z"/>
        <path class="cls-6" d="m1206.33,317.95h-573.58v-181.64h149.48C782.76,61.06,844.16,0,919.54,0s136.77,61.06,137.31,136.32h149.48v181.64Zm-571.58-2h569.58v-177.64h-149.47v-1c0-74.61-60.7-135.32-135.31-135.32s-135.32,60.7-135.32,135.32v1h-149.47v177.64Zm422.11-178.64h0,0Zm-35.87,1h-202.89v-1c0-55.94,45.51-101.44,101.44-101.44s101.44,45.51,101.44,101.44v1Zm-200.88-2h198.88c-.54-54.37-44.94-98.44-99.44-98.44s-98.9,44.07-99.44,98.44Z"/>
      </g>
      <g>
        <rect class="cls-6" x="1162.19" y="770.42" width="448.71" height="166.55"/>
        <path class="cls-11" d="m1327.46,895.83c-1.37,0-2.74-.08-4.13-.24-18.17-2.15-29.25-16.28-35.88-30.64-14.64,4.32-33.26.33-40.63-13.58-.26-.49-.07-1.09.42-1.35.49-.26,1.09-.07,1.35.41,6.86,12.94,24.25,16.66,38.04,12.68-4.75-10.9-7-21.64-7.92-27.12-9.14-54.22-1.05-111.36,22.79-160.91,9.63-20.02,27.16-39.64,47.44-34.7,22.34,5.45,27.03,34.52,24.26,57.77-5.52,46.27-21.65,91.52-46.65,130.84-8.43,13.26-19.19,27.73-35.07,34.51-.69.29-1.4.57-2.12.82,6.41,13.8,17.01,27.23,34.21,29.27,17.85,2.11,34.14-10.69,42.39-24.31.94-1.56,1.82-3.15,2.64-4.78-13.91-12.84-20.85-33.16-16.87-52.04,1.68-7.96,7.2-15.55,13.42-18.46,3.75-1.75,7.55-1.7,10.97.13,6.63,3.54,8.87,12.14,6.67,25.55-2.35,14.31-4.97,30.28-11.73,44.34,2.34,2.03,4.87,3.85,7.57,5.4,19.21,11.08,45.4,7.78,60.93-7.68,1.71-1.7,3.27-3.53,4.67-5.47-4.66-5.89-7.78-13.33-8.85-21.5-1.77-13.53,2.43-26.58,11.24-34.91.22-.2.51-.3.81-.27.3.04.56.2.72.45,10.66,16.63,9.69,39.71-1.41,56.13,2.7,3.14,5.87,5.76,9.43,7.69,10.09,5.48,23.12,5.42,34.86-.18,11.74-5.6,19.99-15.68,22.08-26.97.1-.54.62-.9,1.17-.8.54.1.9.62.8,1.17-2.2,11.92-10.87,22.54-23.19,28.41-12.31,5.88-26.03,5.92-36.68.14-3.63-1.97-6.88-4.61-9.66-7.77-1.39,1.87-2.92,3.65-4.58,5.31-16.15,16.07-43.38,19.51-63.34,7.99-2.66-1.54-5.16-3.31-7.48-5.29-.77,1.51-1.6,2.99-2.48,4.44-7.94,13.12-23.14,25.5-40.21,25.5Zm43.16-101.1c-1.51,0-3.06.37-4.63,1.1-5.6,2.61-10.78,9.78-12.31,17.06-3.79,18,2.71,37.36,15.83,49.75,6.45-13.68,9.01-29.27,11.3-43.26,2.05-12.48.15-20.37-5.63-23.46-1.47-.79-3-1.18-4.56-1.18Zm-28.04-153.12c-16.64,0-30.95,17.03-39.28,34.34-23.66,49.18-31.7,105.89-22.62,159.71.91,5.41,3.15,16.09,7.86,26.84.73-.26,1.45-.53,2.16-.83,15.38-6.56,25.9-20.74,34.16-33.74,24.84-39.08,40.87-84.03,46.35-130.01,2.68-22.43-1.67-50.45-22.74-55.59-1.99-.48-3.95-.71-5.88-.71Zm104.54,160.59c-7.74,7.92-11.38,19.9-9.75,32.34.99,7.59,3.83,14.51,8.06,20.04,10.14-15.39,11.13-36.66,1.69-52.37Z"/>
      </g>
    </g>
    <g>
      <path class="cls-6" d="m564.25,1040.16c-113.94-20.89-227.89-41.78-341.84-62.67C45.57,1247.37,57.76,1585.58,90.52,1678.25c43.01,1.34,109.51,1.02,259.73.5v-351.99h49.73l21.17,351.44c120.72-.42,272.95-.67,307.1.06-72.4-309.45-144.86-587.8-164-638.1Z"/>
      <g>
        <g>
          <path class="cls-3" d="m559.84,891.36c92.39,22.16,355.12,102.44,387.61-8.23,26.87-91.54-232.44-158.44-322.76-186.39-21.62,64.88-43.23,129.75-64.85,194.63Z"/>
          <g>
            <path class="cls-3" d="m775.62,819.83s0,0,0-.01c92.9-145.44,156.02-250.41,176.78-282.05,2.17-3.31,5.98-9.18,12.82-15.18,25.32-22.22,51.57-10.63,88.85-21.84,42.31-12.72,58.92-43.84,68.37-37.67,6.57,4.29,3.61,17.79-11.98,40.89,0,0,0,0,0,0,13.86-16.19,33.61-37.32,42.53-29.64,9.83,9.42-10.46,36.98-23.55,53.05,15.84-19.45,30.09-25.05,33.99-19.53,6.15,8.69-2.62,26.64-24.56,51.53h0c19.95-12.96,26.72-13.13,28.98-7.4,4.13,10.45-14.29,30.58-33.3,45.88-21.4,17.22-43.97,23.15-58.29,26.55,0,0,0,0,0,0-54.5,108.61-94.32,176.35-131.64,267.14-23.79,57.86-161.26,22.61-169.01-71.72Z"/>
            <path class="cls-11" d="m773.92,821.6c-.18,0-.37-.05-.54-.16-.47-.3-.6-.92-.3-1.38,12.7-19.88,25.69-40.34,38.61-60.82.3-.47.91-.61,1.38-.31.47.3.61.91.31,1.38-12.93,20.48-25.92,40.94-38.62,60.83-.19.3-.51.46-.84.46Z"/>
            <path class="cls-3" d="m1022.27,519.01c21.13-38.27,20.64-56.55,14.47-59.7-10.38-5.31-41.79,19.98-79.71,72.02,18.48-1.8,46.76-10.52,65.24-12.32Z"/>
            <g>
              <path class="cls-11" d="m1014.01,592.36c-.16,0-.33-.04-.48-.12-.48-.27-.66-.87-.39-1.36,3.81-6.92,10.96-16.54,23.36-23.08,17.56-9.25,34.74-6.3,41.31-4.61.54.14.86.68.72,1.22-.14.54-.69.86-1.22.72-6.35-1.64-22.94-4.49-39.88,4.44-11.97,6.31-18.87,15.59-22.54,22.28-.18.33-.52.52-.88.52Z"/>
              <path class="cls-11" d="m985.17,513.69c-.42,0-.82-.27-.95-.7-.17-.53.12-1.09.65-1.25,9.22-2.92,18.94-3.58,29.23-4.27,4.81-.32,9.79-.66,14.98-1.24.56-.07,1.04.34,1.1.88.06.55-.33,1.04-.88,1.1-5.24.58-10.23.92-15.07,1.24-10.17.69-19.77,1.33-28.76,4.18-.1.03-.2.05-.3.05Z"/>
              <path class="cls-11" d="m1076.33,525.39c-.42,0-.8-.26-.95-.67-.18-.52.1-1.09.62-1.27,4.97-1.72,9.8-3.9,14.36-6.49,6.61-3.76,12.71-8.41,18.13-13.82.39-.39,1.02-.39,1.41,0,.39.39.39,1.02,0,1.41-5.54,5.53-11.79,10.29-18.55,14.14-4.66,2.65-9.61,4.89-14.7,6.65-.11.04-.22.06-.33.06Z"/>
              <path class="cls-11" d="m1097.27,546.21c-.42,0-.8-.26-.95-.67-.18-.52.1-1.09.62-1.27,4.97-1.72,9.8-3.9,14.36-6.49,6.61-3.76,12.71-8.41,18.13-13.82.39-.39,1.02-.39,1.41,0,.39.39.39,1.02,0,1.41-5.55,5.53-11.79,10.29-18.55,14.14-4.66,2.65-9.61,4.89-14.7,6.64-.11.04-.22.06-.33.06Z"/>
              <path class="cls-11" d="m1105.41,581.2c-.42,0-.8-.26-.95-.67-.18-.52.1-1.09.62-1.27,4.97-1.71,9.8-3.9,14.36-6.49,6.61-3.76,12.71-8.41,18.13-13.82.39-.39,1.02-.39,1.41,0,.39.39.39,1.02,0,1.41-5.54,5.53-11.79,10.29-18.55,14.14-4.66,2.65-9.61,4.89-14.7,6.65-.11.04-.22.06-.33.06Z"/>
            </g>
          </g>
        </g>
        <path class="cls-6" d="m0,782.9c37.06-40.39,213.73-198.65,452.49-159.59,137.69,22.53,225.17,62.05,275.75,94.13-50.5,91.38-66.85,111.6-95.34,147.05,14.56,74.07,29.12,148.13,43.68,222.2-108.25-.95-457.68-11.39-567.83-15.19,19.62-62.67,39.25-96.19,58.87-158.87-15.19,12.66-12.48-30.46-27.67-17.8-35.13-58.58-85.85-84.11-139.96-111.93Z"/>
        <g>
          <polygon class="cls-1" points="394.07 1409.16 193.47 1314.72 405.91 1100.89 606.51 1195.32 394.07 1409.16"/>
          <g>
            <path class="cls-3" d="m30.64,797.61c-16.84,80.11-86.1,293.97,63.89,331.19,56.58,14.04,83.42-152.13,105.3-230.59-51.99-38.29-114.81-69.75-169.19-100.6Z"/>
            <g>
              <path class="cls-3" d="m164.06,993.4c59.12,47.8,203.9,153.48,217.63,164.36,25.65,20.34,160.49,133.04,146.34,154.26-6.76,10.14-33.72-10.4-42.63-17.61,4.33,9.37,24.84,43.56,14.57,52.57-12.07,10.59-42.75-26.41-43.59-26.68,5.36,9.07,28.17,44.34,20.73,51.39-9.68,9.18-40.74-17.26-49.67-25.61-.2,2.09,26.32,32.41,15.25,43.85-8.13,8.4-36.59-15.91-48.96-26.42-22.81-18.05-299.4-213.63-346.17-256.54-18.31-16.8,75.58-113.32,116.5-113.57Z"/>
              <path class="cls-11" d="m294.52,1092.9c-.21,0-.42-.07-.6-.2-30.84-23.24-110.54-84.8-129.74-99.98-.43-.34-.51-.97-.16-1.4.34-.43.97-.51,1.4-.16,19.2,15.18,98.88,76.72,129.71,99.96.44.33.53.96.2,1.4-.2.26-.5.4-.8.4Z"/>
              <g>
                <path class="cls-11" d="m486.46,1294.71c-.34,0-.66-.17-.85-.48-3.57-5.8-7.56-11.4-11.88-16.64-7.76-9.42-16.71-17.89-26.62-25.2-.44-.33-.54-.95-.21-1.4.33-.44.95-.54,1.4-.21,10.03,7.4,19.11,15.99,26.97,25.53,4.38,5.31,8.43,10.98,12.04,16.86.29.47.14,1.09-.33,1.38-.16.1-.34.15-.52.15Z"/>
                <path class="cls-11" d="m457.41,1321.05c-.3,0-.59-.13-.79-.39-.88-1.13-1.78-2.26-2.72-3.4-7.76-9.42-16.71-17.9-26.61-25.2-.44-.33-.54-.95-.21-1.4.33-.44.95-.54,1.4-.21,10.03,7.4,19.11,15.99,26.97,25.53.94,1.14,1.87,2.3,2.76,3.45.34.44.26,1.06-.18,1.4-.18.14-.4.21-.61.21Z"/>
                <path class="cls-11" d="m427.04,1346.31c-.26,0-.52-.1-.71-.3-5.58-5.7-11.68-11-18.14-15.77-.44-.33-.54-.95-.21-1.4.33-.44.95-.54,1.4-.21,6.55,4.83,12.73,10.21,18.39,15.98.39.4.38,1.03-.02,1.41-.19.19-.45.29-.7.29Z"/>
              </g>
            </g>
          </g>
        </g>
        <g>
          <path class="cls-5" d="m294.64,708.66c-6.09,0-12.04-3.11-16.93-8.89-5.26-6.23-8.66-14.83-9.59-24.24-.92-9.41.75-18.51,4.7-25.64,4.02-7.25,9.92-11.6,16.61-12.25,6.7-.65,13.32,2.47,18.67,8.8,5.26,6.23,8.67,14.83,9.59,24.24.92,9.41-.75,18.51-4.7,25.64-4.02,7.25-9.92,11.6-16.61,12.25h0c-.58.06-1.17.09-1.75.09Zm1.65-1.08h0,0Zm-5.11-68.03c-.51,0-1.03.02-1.54.08-6.02.59-11.37,4.58-15.06,11.23-3.76,6.78-5.34,15.47-4.46,24.48.88,9.01,4.12,17.23,9.12,23.15,4.91,5.81,10.94,8.69,16.95,8.1h0c6.02-.59,11.37-4.58,15.06-11.23,3.76-6.78,5.34-15.47,4.46-24.48-.88-9.01-4.12-17.23-9.12-23.15-4.49-5.32-9.91-8.18-15.41-8.18Z"/>
          <path class="cls-5" d="m317.77,749.31c-9.94,0-21.44-6.28-29.66-17.26-5.67-7.57-8.96-16.22-9.28-24.36-.32-8.28,2.46-15.06,7.85-19.09,5.38-4.03,12.67-4.8,20.53-2.16,7.73,2.59,15.1,8.19,20.77,15.75,5.67,7.57,8.96,16.22,9.28,24.36.32,8.28-2.46,15.06-7.85,19.09-3.32,2.49-7.34,3.67-11.64,3.67Zm-19.42-62.41c-3.97,0-7.55,1.11-10.48,3.3-4.84,3.63-7.34,9.81-7.05,17.42.3,7.74,3.46,16,8.88,23.24,11.12,14.84,28.39,20.76,38.5,13.19h0c4.84-3.63,7.34-9.81,7.05-17.42-.3-7.74-3.46-16-8.88-23.24-5.43-7.24-12.46-12.59-19.81-15.06-2.85-.96-5.62-1.43-8.21-1.43Z"/>
          <path class="cls-5" d="m356.56,781.99c-7.34,0-15.53-2.28-23.17-6.94-8.07-4.92-14.35-11.73-17.67-19.17-3.38-7.57-3.31-14.9.19-20.64,3.5-5.74,9.98-9.16,18.26-9.64,8.12-.46,17.06,1.99,25.14,6.91,8.07,4.92,14.35,11.73,17.67,19.17,3.38,7.57,3.31,14.9-.19,20.64h0c-3.89,6.39-11.45,9.66-20.23,9.66Zm-20.41-54.44c-.62,0-1.24.02-1.86.05-7.6.43-13.52,3.52-16.66,8.68-3.15,5.16-3.17,11.84-.07,18.79,3.16,7.08,9.15,13.57,16.88,18.28,15.84,9.65,34.07,8.73,40.65-2.06,3.15-5.16,3.17-11.84.07-18.79-3.16-7.08-9.15-13.57-16.88-18.28-7.12-4.34-14.9-6.67-22.13-6.67Zm39.79,44.26h0,0Z"/>
          <path class="cls-5" d="m398.64,791.18c-.9,0-1.8-.02-2.7-.07-19.62-1.02-35.01-13.01-34.3-26.72.71-13.72,17.26-24.05,36.88-23.02,19.62,1.02,35.01,13.01,34.3,26.72l-1-.05,1,.05c-.35,6.72-4.43,12.81-11.48,17.16-6.27,3.87-14.25,5.94-22.7,5.94Zm-2.8-47.89c-17.37,0-31.58,9.17-32.2,21.2-.66,12.61,13.88,23.66,32.41,24.62,9.03.47,17.65-1.51,24.25-5.58,6.48-3.99,10.22-9.52,10.53-15.56h0c.66-12.61-13.88-23.66-32.41-24.62-.87-.04-1.73-.07-2.58-.07Z"/>
          <path class="cls-5" d="m442.41,786.52c-12.54,0-23.04-5.42-26.22-14.72-4.43-13,7.09-28.73,25.69-35.08,8.95-3.05,18.19-3.51,26.04-1.3,7.98,2.25,13.56,7,15.73,13.36,2.17,6.36.65,13.54-4.29,20.19-4.85,6.55-12.45,11.83-21.4,14.89-5.28,1.8-10.58,2.66-15.55,2.66Zm15.09-50.48c-4.86,0-9.96.86-14.97,2.57-17.56,5.99-28.52,20.59-24.44,32.54,4.08,11.95,21.68,16.81,39.23,10.82,8.57-2.92,15.83-7.96,20.44-14.18,4.53-6.11,5.95-12.63,4-18.36h0c-1.95-5.72-7.06-10.02-14.38-12.09-3.09-.87-6.42-1.31-9.87-1.31Z"/>
          <path class="cls-5" d="m483.78,759.16c-3.83,0-7.38-1-10.43-3-11.5-7.51-12.1-27.01-1.35-43.46,5.17-7.91,12.18-13.97,19.72-17.05,7.67-3.13,15-2.83,20.63.85,11.5,7.51,12.1,27.01,1.35,43.46-5.17,7.91-12.18,13.97-19.72,17.05-3.51,1.44-6.95,2.15-10.19,2.15Zm18.13-63.65c-2.98,0-6.16.66-9.43,2-7.17,2.93-13.85,8.72-18.8,16.29-10.15,15.53-9.8,33.78.77,40.69,5.06,3.31,11.73,3.55,18.78.67,7.17-2.93,13.85-8.72,18.8-16.29,10.15-15.53,9.8-33.78-.77-40.69-2.72-1.78-5.9-2.67-9.35-2.67Z"/>
          <path class="cls-5" d="m510.73,713.09c-1.18,0-2.37-.12-3.54-.35-6.59-1.33-12.02-6.25-15.3-13.86-3.22-7.49-3.96-16.72-2.1-25.99,1.86-9.27,6.12-17.49,11.98-23.16,5.96-5.76,12.87-8.2,19.46-6.88h0c13.46,2.71,21.27,20.58,17.4,39.85-1.86,9.27-6.12,17.49-11.98,23.16-4.9,4.74-10.45,7.23-15.93,7.23Zm6.98-68.58c-4.96,0-10.03,2.3-14.55,6.67-5.57,5.38-9.62,13.24-11.41,22.11-1.78,8.87-1.08,17.68,1.98,24.8,3,6.99,7.92,11.5,13.85,12.69,5.93,1.19,12.21-1.06,17.68-6.35,5.57-5.38,9.62-13.24,11.41-22.11,3.66-18.18-3.45-35-15.83-37.49h0c-1.04-.21-2.08-.31-3.13-.31Z"/>
        </g>
      </g>
      <g>
        <path class="cls-11" d="m216.4,503.27c-68.45,0-124.13-55.69-124.13-124.13s55.69-124.13,124.13-124.13,124.13,55.69,124.13,124.13-55.69,124.13-124.13,124.13Zm0-246.27c-67.34,0-122.13,54.79-122.13,122.13s54.79,122.13,122.13,122.13,122.13-54.79,122.13-122.13-54.79-122.13-122.13-122.13Z"/>
        <circle class="cls-11" cx="238.44" cy="326.54" r="153.43" transform="translate(-161.06 264.25) rotate(-45)"/>
        <circle class="cls-11" cx="399.98" cy="445.98" r="103.51" transform="translate(-198.21 413.45) rotate(-45)"/>
        <path class="cls-3" d="m484.6,572.78c-22.87,16.24-87.48-27.85-87.48-27.85l-36.96-77.32c0-39.46,31.99-71.45,71.45-71.45h0c39.46,0,71.45,31.99,71.45,71.45,0,0,4.83,88.63-18.47,105.17Z"/>
        <ellipse class="cls-3" cx="407.49" cy="651.43" rx="82.74" ry="33.92"/>
        <rect class="cls-3" x="360.16" y="466.8" width="88.31" height="180.64"/>
        <path class="cls-3" d="m494.86,486.4s20.04,21,18.98,26.54c-1.27,6.62-23.6,10.65-23.6,10.65,0,0,5.16-37.14,4.62-37.2Z"/>
        <path class="cls-11" d="m462.66,577.77c-.06,0-.12,0-.18-.02-27.87-4.96-65.55-30.52-65.93-30.77-.46-.31-.57-.93-.26-1.39.31-.46.94-.57,1.39-.26.37.26,37.7,25.57,65.15,30.46.54.1.91.62.81,1.16-.09.48-.51.82-.98.82Z"/>
        <g>
          <path class="cls-1" d="m423.28,478.35s13.11-7.05,28.91-7.05c3.36,0-2.98,26.91-6.17,25.38-14.03-6.7-22.74-18.33-22.74-18.33Z"/>
          <g class="cls-7">
            <circle class="cls-11" cx="471.79" cy="489.54" r="26.77"/>
          </g>
        </g>
        <path class="cls-11" d="m469.5,537.03c-2.27,0-4.53-.64-6.5-1.92-3.79-2.46-5.9-6.97-5.37-11.49.07-.55.56-.94,1.11-.88.55.06.94.56.88,1.11-.45,3.77,1.31,7.53,4.47,9.58,3.28,2.13,7.54,2.13,10.86,0,.47-.3,1.09-.16,1.38.3.3.46.16,1.08-.3,1.38-1.99,1.28-4.26,1.92-6.53,1.92Z"/>
        <path class="cls-11" d="m342.77,486.4s22.78-9.14,46.3,15l15.25-8.35s-8.83-97.23,97.74-59.01c0,0-36.55-81.65-107.84-51.66-71.29,29.98-51.45,104.03-51.45,104.03Z"/>
        <g>
          <path class="cls-3" d="m341.87,503.48c4.17,13.96,17.39,22.34,29.53,18.72,12.14-3.62,18.6-17.88,14.43-31.84-4.17-13.96-17.39-22.34-29.53-18.72-12.14,3.62-18.6,17.88-14.43,31.84Z"/>
          <path class="cls-11" d="m376.37,493.73c-.43,0-.83-.28-.96-.71-2.22-7.44-9.24-11.94-15.65-10.03-3.83,1.14-6.76,4.41-7.83,8.74-.13.54-.68.86-1.21.73-.54-.13-.86-.67-.73-1.21,1.24-5.02,4.68-8.83,9.2-10.18,7.46-2.23,15.6,2.88,18.13,11.38.16.53-.14,1.09-.67,1.24-.1.03-.19.04-.29.04Z"/>
        </g>
        <path class="cls-9" d="m364.87,558.33c-12.3,0-22.3-10-22.3-22.3s10-22.3,22.3-22.3,22.3,10,22.3,22.3-10,22.3-22.3,22.3Zm0-42.6c-11.19,0-20.3,9.11-20.3,20.3s9.11,20.3,20.3,20.3,20.3-9.11,20.3-20.3-9.11-20.3-20.3-20.3Z"/>
      </g>
    </g>
    <g>
      <g>
        <path class="cls-11" d="m928.74,315.74c-34.59,0-62.72-28.14-62.72-62.72s28.14-62.72,62.72-62.72,62.72,28.14,62.72,62.72-28.14,62.72-62.72,62.72Zm0-123.45c-33.48,0-60.72,27.24-60.72,60.72s27.24,60.72,60.72,60.72,60.72-27.24,60.72-60.72-27.24-60.72-60.72-60.72Z"/>
        <path class="cls-11" d="m1085.62,462.78c-34.59,0-62.72-28.14-62.72-62.72s28.14-62.72,62.72-62.72,62.72,28.14,62.72,62.72-28.14,62.72-62.72,62.72Zm0-123.45c-33.48,0-60.72,27.24-60.72,60.72s27.24,60.72,60.72,60.72,60.72-27.24,60.72-60.72-27.24-60.72-60.72-60.72Z"/>
      </g>
      <path class="cls-11" d="m872.72,462c-.26,0-.51-.1-.71-.29-.39-.39-.39-1.02,0-1.41l268.93-268.93c.39-.39,1.02-.39,1.41,0,.39.39.39,1.02,0,1.41l-268.93,268.93c-.2.2-.45.29-.71.29Z"/>
    </g>
    <g>
      <rect class="cls-5" x="971.99" y="1258.41" width="691.56" height="327.17" transform="translate(2635.53 2843.98) rotate(180)"/>
      <path class="cls-6" d="m1684.45,1259.41h-11.53c-.55,0-1-.45-1-1s.45-1,1-1h10.53v-20.59l-398.57-86.35c-.54-.12-.88-.65-.77-1.19.12-.54.65-.88,1.19-.77l399.36,86.52c.46.1.79.51.79.98v22.4c0,.55-.45,1-1,1Z"/>
      <polygon class="cls-4" points="877.18 1585.57 1279.52 1585.57 1279.52 1077.67 1078.35 933.93 877.18 1077.67 877.18 1585.57"/>
      <path class="cls-2" d="m1279.52,1064.38c-.2,0-.4-.06-.58-.19l-200.59-143.32-200.59,143.32c-.45.32-1.07.22-1.39-.23-.32-.45-.22-1.07.23-1.4l201.17-143.74c.35-.25.81-.25,1.16,0l201.17,143.74c.45.32.55.95.23,1.4-.2.27-.5.42-.81.42Z"/>
      <rect class="cls-9" x="930" y="1077.07" width="295.66" height="133.56" transform="translate(2155.65 2287.7) rotate(180)"/>
      <rect class="cls-11" x="1093.15" y="1359.93" width="133.56" height="225.64" transform="translate(2319.85 2945.5) rotate(180)"/>
      <rect class="cls-9" x="929.99" y="1287.46" width="133.56" height="225.64" transform="translate(1993.55 2800.56) rotate(180)"/>
      <path class="cls-2" d="m1663.54,1586.58c-.55,0-1-.45-1-1v-326.17h-823.28c-.55,0-1-.45-1-1s.45-1,1-1h824.28c.55,0,1,.45,1,1v327.17c0,.55-.45,1-1,1Z"/>
      <g>
        <path class="cls-2" d="m1616.33,1586.58c-.55,0-1-.45-1-1v-221.7h-291.99v221.7c0,.55-.45,1-1,1s-1-.45-1-1v-222.7c0-.55.45-1,1-1h293.99c.55,0,1,.45,1,1v222.7c0,.55-.45,1-1,1Z"/>
        <g>
          <path class="cls-2" d="m1601.84,1392.65h-265.02c-.55,0-1-.45-1-1s.45-1,1-1h265.02c.55,0,1,.45,1,1s-.45,1-1,1Z"/>
          <path class="cls-2" d="m1601.84,1425.68h-265.02c-.55,0-1-.45-1-1s.45-1,1-1h265.02c.55,0,1,.45,1,1s-.45,1-1,1Z"/>
          <path class="cls-2" d="m1601.84,1458.71h-265.02c-.55,0-1-.45-1-1s.45-1,1-1h265.02c.55,0,1,.45,1,1s-.45,1-1,1Z"/>
          <path class="cls-2" d="m1601.84,1491.74h-265.02c-.55,0-1-.45-1-1s.45-1,1-1h265.02c.55,0,1,.45,1,1s-.45,1-1,1Z"/>
          <path class="cls-2" d="m1601.84,1524.77h-265.02c-.55,0-1-.45-1-1s.45-1,1-1h265.02c.55,0,1,.45,1,1s-.45,1-1,1Z"/>
          <path class="cls-2" d="m1601.84,1557.79h-265.02c-.55,0-1-.45-1-1s.45-1,1-1h265.02c.55,0,1,.45,1,1s-.45,1-1,1Z"/>
        </g>
      </g>
      <rect class="cls-9" x="1322.34" y="1287.46" width="293.99" height="49.92"/>
    </g>
  </g>
</svg>