<?xml version="1.0" encoding="UTF-8"?>
<svg xmlns="http://www.w3.org/2000/svg" viewBox="0 0 500 372.61">
  <defs>
    <style>
      .cls-1 {
        fill: #f0f0f0;
      }

      .cls-2, .cls-3, .cls-4, .cls-5, .cls-6, .cls-7, .cls-8, .cls-9 {
        fill: #fff;
      }

      .cls-10 {
        fill: #fafafa;
      }

      .cls-11 {
        fill: #a24e3f;
      }

      .cls-12 {
        fill: #f5f5f5;
      }

      .cls-13, .cls-3, .cls-4, .cls-5, .cls-14, .cls-7, .cls-15, .cls-16, .cls-8, .cls-9 {
        isolation: isolate;
      }

      .cls-13, .cls-17 {
        fill: #263238;
      }

      .cls-13, .cls-9 {
        opacity: .6;
      }

      .cls-3 {
        opacity: .3;
      }

      .cls-18 {
        stroke: #263238;
        stroke-linecap: round;
        stroke-linejoin: round;
        stroke-width: .72px;
      }

      .cls-18, .cls-19 {
        fill: none;
      }

      .cls-20 {
        fill: #e0e0e0;
      }

      .cls-21 {
        fill: #de5753;
      }

      .cls-4 {
        opacity: .7;
      }

      .cls-5, .cls-16 {
        opacity: .5;
      }

      .cls-22 {
        fill: #e6e6e6;
      }

      .cls-14, .cls-6, .cls-8 {
        opacity: .2;
      }

      .cls-23, .cls-15 {
        opacity: .1;
      }

      .cls-24 {
        fill: #ebebeb;
      }

      .cls-25 {
        fill: #407bff;
      }

      .cls-26 {
        fill: #b97964;
      }

      .cls-7 {
        opacity: .4;
      }

      .cls-27 {
        fill: #e4897b;
      }

      .cls-19 {
        stroke: #407bff;
        stroke-miterlimit: 10;
      }
    </style>
  </defs>
  <g id="Background_Complete" data-name="Background Complete">
    <g>
      <rect class="cls-24" y="327.45" width="500" height=".25"/>
      <rect class="cls-24" x="416.78" y="343.54" width="33.12" height=".25"/>
      <rect class="cls-24" x="322.53" y="346.26" width="8.69" height=".25"/>
      <rect class="cls-24" x="396.59" y="334.26" width="19.19" height=".25"/>
      <rect class="cls-24" x="52.46" y="335.94" width="43.19" height=".25"/>
      <rect class="cls-24" x="104.56" y="335.94" width="6.33" height=".25"/>
      <rect class="cls-24" x="131.47" y="340.16" width="93.68" height=".25"/>
      <path class="cls-24" d="m237.01,282.85H43.91c-3.15,0-5.71-2.56-5.71-5.71V5.71c0-3.15,2.56-5.71,5.71-5.71h193.1c3.15,0,5.71,2.56,5.71,5.71v271.43c0,3.15-2.56,5.71-5.71,5.71ZM43.91.25c-3.01,0-5.46,2.45-5.46,5.46v271.43c0,3.01,2.45,5.46,5.46,5.46h193.1c3.01,0,5.46-2.45,5.46-5.46V5.71c0-3.01-2.45-5.46-5.46-5.46H43.91Z"/>
      <path class="cls-24" d="m453.31,282.85h-193.1c-3.15,0-5.71-2.56-5.71-5.71V5.71c0-3.15,2.56-5.71,5.71-5.71h193.1c3.15,0,5.71,2.56,5.71,5.71v271.43c0,3.15-2.56,5.71-5.71,5.71ZM260.21.25c-3.01,0-5.46,2.45-5.46,5.46v271.43c0,3.01,2.45,5.46,5.46,5.46h193.1c3.01,0,5.46-2.45,5.46-5.46V5.71c0-3.01-2.45-5.46-5.46-5.46h-193.1Z"/>
    </g>
    <g>
      <g>
        <g>
          <path class="cls-12" d="m318.26,227.47h120.14c0,4.41-3.47,8.03-7.88,8.23-12.91.58-32.77,2.63-39.07,9.77-11.74,13.32-10.6,60.09,3.46,70.93,4.41,3.4,17.26,10.14,17.26,10.14h-67.69s12.01-6.88,16.19-10.14c13.98-10.92,14.39-57.67,2.6-70.93-6.05-6.8-24.67-9-37.16-9.69-4.41-.24-7.85-3.9-7.85-8.31Z"/>
          <path class="cls-22" d="m423.52,236.14c-12.2.98-26.83,3.39-32.07,9.33-1.55,1.76-2.87,4.11-3.97,6.88h-20.18c-1.13-2.77-2.47-5.12-4.03-6.88-5.26-5.91-20.01-8.34-31.98-9.33h92.23Z"/>
        </g>
        <g>
          <polygon class="cls-24" points="369.43 227.53 371.07 208.86 347.39 208.86 345.75 227.53 369.43 227.53"/>
          <polygon class="cls-20" points="369.43 227.53 371.07 208.86 372.34 208.86 370.71 227.53 369.43 227.53"/>
          <polygon class="cls-1" points="367.19 225.63 368.49 210.76 349.63 210.76 348.33 225.63 367.19 225.63"/>
          <polygon class="cls-10" points="365.74 224.4 366.83 211.98 351.08 211.98 349.99 224.4 365.74 224.4"/>
        </g>
        <g>
          <g>
            <polygon class="cls-22" points="377.12 227.47 400.91 227.47 398.27 197.3 374.48 197.3 377.12 227.47"/>
            <polygon class="cls-20" points="377.12 227.47 375.98 227.47 373.34 197.3 374.48 197.3 377.12 227.47"/>
            <polygon class="cls-1" points="379.27 224.4 398.21 224.4 396.11 200.38 377.17 200.38 379.27 224.4"/>
            <polygon class="cls-10" points="380.66 222.42 396.48 222.42 394.72 202.36 378.9 202.36 380.66 222.42"/>
          </g>
          <path class="cls-24" d="m388.65,211.38h0c-1.07,1.07-2.82,1.07-3.89,0h0c-1.07-1.07-1.07-2.82,0-3.89h0c1.07-1.07,2.82-1.07,3.89,0h0c1.07,1.07,1.07,2.82,0,3.89Z"/>
          <path class="cls-1" d="m387.49,214.75h0c.79-.79,2.06-.79,2.85,0h0c1.27,1.27.37,3.44-1.43,3.44h0c-1.8,0-2.69-2.17-1.42-3.44Z"/>
        </g>
      </g>
      <g>
        <path class="cls-12" d="m185.87,320.37h23.17l-12.18-99.21c-.52-4.2-4.34-7.6-8.54-7.6h-101.1l14.82,106.81h83.83Z"/>
        <path class="cls-1" d="m112.38,320.37h-23.17l-12.18-99.21c-.52-4.2,2.47-7.6,6.67-7.6h7.96c4.2,0,8.02,3.4,8.54,7.6l12.18,99.21Z"/>
        <path class="cls-22" d="m120.92,320.25l-4.2-47.98c-.19-2.14-1.84-3.87-3.98-4.14l-1.73-.22c-2.86-.37-5.08-2.68-5.34-5.55l-.77-8.75c-.31-3.59,2.51-6.67,6.11-6.67h-38.72c-3.6,0-6.43,3.08-6.11,6.67l.77,8.75c.25,2.88,2.47,5.19,5.34,5.55l1.73.22c2.13.27,3.79,2,3.98,4.14l4.2,47.98c.31,3.5,3.24,6.18,6.75,6.18h38.72c-3.51,0-6.44-2.68-6.75-6.18Z"/>
        <path class="cls-22" d="m227.48,260.26c.66-7.54,6.97-13.32,14.53-13.32h-33.71c-7.56,0-13.87,5.78-14.53,13.32l-3.33,38.04h33.71l3.33-38.04Z"/>
        <path class="cls-1" d="m256.99,246.94h-14.97c-7.56,0-13.87,5.78-14.53,13.32l-3.33,38.04h-80.29l-3.33-38.04c-.66-7.54-6.97-13.32-14.53-13.32h-14.97c-3.6,0-6.43,3.08-6.11,6.67l.77,8.75c.25,2.88,2.47,5.19,5.34,5.55l1.73.22c2.13.27,3.79,2,3.98,4.14l4.2,47.98c.31,3.5,3.24,6.18,6.75,6.18h112.69c3.51,0,6.44-2.68,6.75-6.18l4.2-47.98c.19-2.14,1.84-3.87,3.98-4.14l1.73-.22c2.86-.37,5.08-2.68,5.34-5.55l.77-8.75c.31-3.59-2.51-6.67-6.11-6.67Z"/>
      </g>
      <g>
        <path class="cls-22" d="m392.66,76.34s1.17-7.73-4.46-12.68c-5.64-4.95-5.14-7.9-3.53-8.29s3.1,4.57,5.57,5.93c0,0,.08-7.06-2.44-9.66-2.52-2.6-3.84-9.3-1.44-9.42s2.64,3.98,3.14,6.88,3.16,6.99,3.16,6.99c0,0,.52-6.32,2.15-8.92,1.63-2.6-2.71-8.55-1.04-11.15,1.67-2.6,4.64,2.35,4.4,7.93-.25,5.57-3.96,11.52-3.1,17.34,0,0,1.64-4.09,3.11-4.46,1.47-.37,2.96-3.07,3.95-4.08.99-1,2.23,2.47,0,5.69-2.23,3.22-7.93,11.83-7.06,18.8l-2.41-.92Z"/>
        <path class="cls-22" d="m389.3,72.82l-1.85,11.58c-.57,3.58,2.19,6.81,5.81,6.81h1.97c3.62,0,6.38-3.24,5.81-6.81l-1.85-11.58h-9.91Z"/>
        <rect class="cls-20" x="286.77" y="86.94" width="130.44" height="6.7"/>
        <rect class="cls-24" x="292.77" y="62.24" width="5.75" height="24.7"/>
        <rect class="cls-24" x="320.56" y="62.24" width="5.75" height="24.7"/>
        <rect class="cls-24" x="354.24" y="61.93" width="5.75" height="24.7" transform="translate(-7.43 61.73) rotate(-9.78)"/>
        <rect class="cls-24" x="299.89" y="65.5" width="5.75" height="21.45"/>
        <rect class="cls-24" x="313.1" y="65.5" width="5.75" height="21.45"/>
        <rect class="cls-24" x="346.44" y="65.5" width="5.75" height="21.45"/>
        <rect class="cls-24" x="330.5" y="65.13" width="5.75" height="21.45" transform="translate(-8.52 74.11) rotate(-12.53)"/>
        <rect class="cls-24" x="307.73" y="61.01" width="2.87" height="25.93"/>
        <rect class="cls-24" x="341.91" y="61.01" width="2.87" height="25.93"/>
      </g>
      <g>
        <rect class="cls-20" x="286.77" y="136.98" width="130.44" height="6.7" transform="translate(703.97 280.65) rotate(180)"/>
        <rect class="cls-24" x="405.46" y="112.27" width="5.75" height="24.7" transform="translate(816.66 249.25) rotate(180)"/>
        <rect class="cls-24" x="377.67" y="112.27" width="5.75" height="24.7" transform="translate(761.08 249.25) rotate(180)"/>
        <rect class="cls-24" x="343.98" y="111.96" width="5.75" height="24.7" transform="translate(667.56 305.74) rotate(-170.22)"/>
        <rect class="cls-24" x="398.33" y="115.53" width="5.75" height="21.45" transform="translate(802.42 252.5) rotate(180)"/>
        <rect class="cls-24" x="385.13" y="115.53" width="5.75" height="21.45" transform="translate(776 252.5) rotate(180)"/>
        <rect class="cls-24" x="351.79" y="115.53" width="5.75" height="21.45" transform="translate(709.32 252.5) rotate(180)"/>
        <rect class="cls-24" x="367.73" y="115.16" width="5.75" height="21.45" transform="translate(705.07 329.15) rotate(-167.47)"/>
        <rect class="cls-24" x="393.37" y="111.05" width="2.87" height="25.93" transform="translate(789.6 248.02) rotate(180)"/>
        <rect class="cls-24" x="359.19" y="111.05" width="2.87" height="25.93" transform="translate(721.24 248.02) rotate(180)"/>
        <rect class="cls-24" x="299.28" y="117.42" width="28" height="19.33" transform="translate(626.57 254.18) rotate(180)"/>
      </g>
      <g>
        <rect class="cls-20" x="70.83" y="46.95" width="163.56" height="6.51" rx="2.12" ry="2.12"/>
        <rect class="cls-22" x="80.55" y="52.13" width="144.13" height="127.9"/>
        <rect class="cls-1" x="84.16" y="55.63" width="136.73" height="120.95"/>
        <polygon class="cls-2" points="116.25 55.63 84.16 176.32 84.16 119.61 101.1 55.63 116.25 55.63"/>
        <polygon class="cls-2" points="127.61 55.63 95.24 176.58 90.08 176.58 122.45 55.63 127.61 55.63"/>
        <polygon class="cls-2" points="220.89 131.95 220.89 151.28 214.34 176.58 209.17 176.58 220.89 131.95"/>
        <rect class="cls-22" x="129.54" y="53.46" width="2.3" height="125.83"/>
        <rect class="cls-22" x="174.18" y="53.46" width="2.3" height="125.83"/>
        <g>
          <path class="cls-20" d="m201.19,49.03s3.31,43.27,22.38,65.32c0,0-13.89,55.69-13.88,75.1l25.81-4.76-9.3-70.02,4.45-65.65h-29.46Z"/>
          <path class="cls-20" d="m104.04,49.03s-3.31,43.27-22.38,65.32c0,0,13.89,55.69,13.88,75.1l-25.81-4.76,9.3-70.02-4.45-65.65h29.46Z"/>
        </g>
      </g>
    </g>
  </g>
  <g id="Shadow">
    <ellipse id="_Path_" data-name="&amp;lt;Path&amp;gt;" class="cls-12" cx="250" cy="361.29" rx="193.89" ry="11.32"/>
  </g>
  <g id="Plant">
    <g>
      <g>
        <path class="cls-19" d="m367.69,295.32s6.21-5.18,11.53,0c5.32,5.18,6.35,37.24,6.35,37.24"/>
        <path class="cls-19" d="m386.01,338.75s-3.66-37.63,10.12-53.45"/>
        <path class="cls-19" d="m384.7,334.78s2.82-42.84-7.52-52.34"/>
        <path class="cls-19" d="m386.01,334.78s.24-28.31,7.92-32.71c7.68-4.4,11.59,9.95,11.59,9.95"/>
        <path class="cls-19" d="m382.98,334.78s1.25-21.73-4.7-29.5c-5.95-7.77-12.21,3.33-12.21,3.33"/>
        <path class="cls-19" d="m385.05,337.69s-3.85-50.82,2.52-59.44"/>
      </g>
      <g>
        <path class="cls-25" d="m400.51,306.2s-3.83,1.41-2.69,4.74c1.14,3.33,13.25,8.82,13.25,8.82,0,0,5.07-4.65.41-12.21-4.66-7.56-10.87-3.74-10.97-1.35Z"/>
        <path class="cls-8" d="m400.51,306.2s-3.83,1.41-2.69,4.74c1.14,3.33,13.25,8.82,13.25,8.82,0,0,5.07-4.65.41-12.21-4.66-7.56-10.87-3.74-10.97-1.35Z"/>
      </g>
      <g>
        <path class="cls-25" d="m383.86,299.85s4.08-.17,4.31,3.34c.23,3.51-8.83,13.24-8.83,13.24,0,0-6.47-2.34-5.08-11.11s8.59-7.63,9.6-5.47Z"/>
        <path class="cls-8" d="m383.86,299.85s4.08-.17,4.31,3.34c.23,3.51-8.83,13.24-8.83,13.24,0,0-6.47-2.34-5.08-11.11s8.59-7.63,9.6-5.47Z"/>
      </g>
      <g>
        <path class="cls-25" d="m380.41,283.03s2.72-.29,2.5-1.95c-.22-1.66-10.57-5.92-16.67.97,0,0,3.91,6.72,9.56,6.8,5.65.09,4.61-5.83,4.61-5.83Z"/>
        <path class="cls-8" d="m380.41,283.03s2.72-.29,2.5-1.95c-.22-1.66-10.57-5.92-16.67.97,0,0,3.91,6.72,9.56,6.8,5.65.09,4.61-5.83,4.61-5.83Z"/>
      </g>
      <g>
        <path class="cls-25" d="m385.48,279.01s-2.46,1.19-3.15-.33c-.69-1.52,5.84-10.61,14.67-7.99,0,0,.23,7.77-4.52,10.83-4.75,3.06-7-2.51-7-2.51Z"/>
        <path class="cls-8" d="m385.48,279.01s-2.46,1.19-3.15-.33c-.69-1.52,5.84-10.61,14.67-7.99,0,0,.23,7.77-4.52,10.83-4.75,3.06-7-2.51-7-2.51Z"/>
      </g>
      <g>
        <path class="cls-25" d="m372.61,304.86s1.88-1.51-.15-2.25c-2.02-.74-11.96-.53-12.06,9.31,0,0,11.57,1.92,13-1.83,1.43-3.75-.79-5.23-.79-5.23Z"/>
        <path class="cls-8" d="m372.61,304.86s1.88-1.51-.15-2.25c-2.02-.74-11.96-.53-12.06,9.31,0,0,11.57,1.92,13-1.83,1.43-3.75-.79-5.23-.79-5.23Z"/>
      </g>
      <g>
        <path class="cls-25" d="m396.2,282.79s-1.88-1.51.15-2.25c2.02-.74,11.96-.53,12.06,9.31,0,0-11.57,1.92-13-1.83-1.43-3.75.79-5.23.79-5.23Z"/>
        <path class="cls-8" d="m396.2,282.79s-1.88-1.51.15-2.25c2.02-.74,11.96-.53,12.06,9.31,0,0-11.57,1.92-13-1.83-1.43-3.75.79-5.23.79-5.23Z"/>
      </g>
      <g>
        <path class="cls-25" d="m390.08,290.71s-.17-1.84,1.32-1.12c1.49.72,6.67,6.31,1.3,11.61,0,0-7.23-5.35-5.92-8.14,1.3-2.79,3.31-2.35,3.31-2.35Z"/>
        <path class="cls-8" d="m390.08,290.71s-.17-1.84,1.32-1.12c1.49.72,6.67,6.31,1.3,11.61,0,0-7.23-5.35-5.92-8.14,1.3-2.79,3.31-2.35,3.31-2.35Z"/>
      </g>
      <g>
        <path class="cls-25" d="m370.93,293.34s1.12-1.47-.52-1.65c-1.64-.18-9,1.78-7.29,9.13,0,0,8.97-.67,9.35-3.73.38-3.05-1.54-3.75-1.54-3.75Z"/>
        <path class="cls-8" d="m370.93,293.34s1.12-1.47-.52-1.65c-1.64-.18-9,1.78-7.29,9.13,0,0,8.97-.67,9.35-3.73.38-3.05-1.54-3.75-1.54-3.75Z"/>
      </g>
      <polygon class="cls-17" points="401.23 362.06 370.46 362.06 367.14 328.37 404.54 328.37 401.23 362.06"/>
      <rect class="cls-17" x="365.49" y="324.66" width="40.69" height="7.43"/>
      <rect class="cls-8" x="365.49" y="324.66" width="40.69" height="7.43"/>
    </g>
  </g>
  <g id="Device">
    <g>
      <g>
        <path class="cls-25" d="m330.4,362.06h-92.83c-5.75,0-10-4.66-9.49-10.4l23.98-274.12c.5-5.75,5.57-10.4,11.31-10.4h92.83c5.75,0,9.99,4.66,9.49,10.4l-23.98,274.12c-.5,5.75-5.57,10.4-11.31,10.4Z"/>
        <path class="cls-7" d="m330.4,362.06h-92.83c-5.75,0-10-4.66-9.49-10.4l23.98-274.12c.5-5.75,5.57-10.4,11.31-10.4h92.83c5.75,0,9.99,4.66,9.49,10.4l-23.98,274.12c-.5,5.75-5.57,10.4-11.31,10.4Z"/>
        <path class="cls-17" d="m320.4,362.06h-92.83c-5.75,0-10-4.66-9.49-10.4l23.98-274.12c.5-5.75,5.57-10.4,11.31-10.4h92.83c5.75,0,9.99,4.66,9.49,10.4l-23.98,274.12c-.5,5.75-5.57,10.4-11.31,10.4Z"/>
        <path class="cls-25" d="m320.4,362.06h-92.83c-5.75,0-10-4.66-9.49-10.4l23.98-274.12c.5-5.75,5.57-10.4,11.31-10.4h92.83c5.75,0,9.99,4.66,9.49,10.4l-23.98,274.12c-.5,5.75-5.57,10.4-11.31,10.4Z"/>
        <path class="cls-17" d="m351.91,77.02l-24.03,274.64c-.2,2.26-1.61,4.01-3.17,4.01h-100.62c-1.44,0-2.38-1.61-2.2-3.68l24.09-275.3c.16-1.8,1.21-3.37,2.46-3.37h25.15c.71,0,1.3.67,1.48,1.63l.72,3.7c.18.96.77,1.62,1.48,1.62h42.82c.71,0,1.41-.63,1.76-1.59l1.37-3.72c.35-.96,1.05-1.64,1.76-1.64h24.79c1.37,0,2.32,1.72,2.14,3.7Z"/>
        <polygon class="cls-25" points="350.73 90.47 330.11 326.13 224.15 326.13 244.77 90.47 350.73 90.47"/>
        <g>
          <g>
            <polygon class="cls-9" points="256.98 84.38 258.29 84.38 258.51 81.87 257.2 81.87 256.98 84.38"/>
            <polygon class="cls-9" points="254.84 84.38 256.15 84.38 256.45 81.03 255.14 81.03 254.84 84.38"/>
            <polygon class="cls-9" points="252.71 84.38 254.02 84.38 254.39 80.19 253.08 80.19 252.71 84.38"/>
            <polygon class="cls-9" points="250.58 84.38 251.89 84.38 252.33 79.35 251.02 79.35 250.58 84.38"/>
          </g>
          <g>
            <polygon class="cls-9" points="339.35 83.46 338.57 83.46 338.8 80.95 339.57 80.95 339.35 83.46"/>
            <polygon class="cls-9" points="339.8 84.38 345.98 84.38 346.37 80.03 340.18 80.03 339.8 84.38"/>
          </g>
        </g>
        <g>
          <path class="cls-13" d="m299.2,73.68c-.1,1.16-.83,2.1-1.64,2.1s-1.37-.94-1.27-2.1c.1-1.16.83-2.1,1.64-2.1s1.37.94,1.27,2.1Z"/>
          <path class="cls-13" d="m302.14,73.68c-.07.74-.53,1.34-1.05,1.34s-.88-.6-.81-1.34c.06-.74.53-1.34,1.05-1.34s.88.6.81,1.34Z"/>
        </g>
        <polygon class="cls-4" points="350.73 90.48 347.87 123.17 347.38 128.81 345.09 155 344.73 159.07 341.48 196.2 341.13 200.27 338.01 235.92 337.56 241.05 330.12 326.13 224.15 326.13 244.77 90.48 350.73 90.48"/>
      </g>
      <g>
        <g>
          <polygon class="cls-25" points="249.6 148.59 246.8 153.75 252.41 157.32 249.6 148.59"/>
          <polygon class="cls-25" points="257.8 251.76 261.42 247.73 256.59 242.33 257.8 251.76"/>
          <polygon class="cls-25" points="299.36 100.19 299.09 93.69 293.2 96.2 299.36 100.19"/>
          <polygon class="cls-25" points="239.45 249.26 236.64 254.42 242.26 257.99 239.45 249.26"/>
          <polygon class="cls-25" points="242.87 227.15 240.75 232.76 236.39 229.06 239.89 223.04 242.87 227.15"/>
          <polygon class="cls-25" points="286.49 306.64 290.98 307.04 290.42 314.18 285.09 312.19 286.49 306.64"/>
          <path class="cls-25" d="m250,185.45l2.81.79s-4.21,3.97-2.24,7.14c1.96,3.17-1.4,5.95-1.4,5.95l-2.53-2.38s2.24-2.38,1.12-5.55,2.24-5.95,2.24-5.95Z"/>
          <path class="cls-25" d="m288.31,162.88l2.81.79s-4.21,3.97-2.24,7.14c1.96,3.17-1.4,5.95-1.4,5.95l-2.53-2.38s2.24-2.38,1.12-5.55c-1.12-3.17,2.24-5.95,2.24-5.95Z"/>
          <polygon class="cls-25" points="250.28 125.27 247.7 130.66 253.46 133.73 250.28 125.27"/>
          <polygon class="cls-25" points="300.69 128.01 298.11 133.4 303.87 136.48 300.69 128.01"/>
          <polygon class="cls-25" points="276.4 119.45 277.96 113.33 271.85 112.34 276.4 119.45"/>
          <polygon class="cls-25" points="275.24 143.8 276.06 137.55 281.01 139.2 278.97 146.45 275.24 143.8"/>
          <polygon class="cls-25" points="334.03 134.79 334.86 128.54 339.8 130.19 337.76 137.43 334.03 134.79"/>
          <polygon class="cls-25" points="329.93 171.63 330.75 165.38 335.7 167.03 333.66 174.27 329.93 171.63"/>
          <path class="cls-25" d="m315.97,163.89l-2.84.45s3.16-5.59.61-7.77c-2.55-2.18.06-6.27.06-6.27l2.92,1.18s-1.63,3.23.12,5.77c1.75,2.54-.86,6.63-.86,6.63Z"/>
          <polygon class="cls-25" points="292.39 238.01 289.58 243.17 295.19 246.74 292.39 238.01"/>
          <polygon class="cls-25" points="274.88 257.99 272.07 263.15 277.68 266.72 274.88 257.99"/>
          <polygon class="cls-25" points="306.65 213.5 311.14 213.89 310.58 221.03 305.25 219.05 306.65 213.5"/>
          <polygon class="cls-25" points="323.42 273.73 327.91 274.13 327.35 281.27 322.02 279.29 323.42 273.73"/>
          <path class="cls-25" d="m301.27,280.14l2.81.79s-4.21,3.97-2.24,7.14c1.96,3.17-1.4,5.95-1.4,5.95l-2.53-2.38s2.24-2.38,1.12-5.55,2.24-5.95,2.24-5.95Z"/>
          <path class="cls-25" d="m326.05,251.46l-1.76.58s.75-5.29-1.44-7.12c-2.19-1.83-1.45-5.72-1.45-5.72l2.2.9s-.3,3.04,1.45,5.25c1.75,2.21,1,6.1,1,6.1Z"/>
          <path class="cls-25" d="m327.28,109.19l-1.76.58s.75-5.29-1.44-7.12-1.45-5.72-1.45-5.72l2.2.9s-.3,3.04,1.45,5.25c1.75,2.21,1,6.1,1,6.1Z"/>
          <path class="cls-25" d="m257.64,309.84l-2.65,1.52s1.97-6.59-.9-7.71-1.14-6.06-1.14-6.06l3.04.02s-.95,3.73,1.22,5.51.44,6.71.44,6.71Z"/>
          <path class="cls-25" d="m256.49,100.19c0,1.64-.94,2.98-2.1,2.98s-2.1-1.33-2.1-2.98.94-2.98,2.1-2.98,2.1,1.33,2.1,2.98Z"/>
          <path class="cls-25" d="m279.79,214.6c0,1.64-.94,2.98-2.1,2.98s-2.1-1.33-2.1-2.98.94-2.98,2.1-2.98,2.1,1.33,2.1,2.98Z"/>
          <ellipse class="cls-25" cx="334.92" cy="203.11" rx="2.1" ry="2.98"/>
          <path class="cls-25" d="m345.19,102.36c0,1.64-.94,2.98-2.1,2.98s-2.1-1.33-2.1-2.98.94-2.98,2.1-2.98,2.1,1.33,2.1,2.98Z"/>
          <polygon class="cls-25" points="234.55 287.41 236.78 281.72 230.85 279.37 234.55 287.41"/>
          <polygon class="cls-25" points="318.47 315.15 317.29 321.44 323.44 321.66 318.47 315.15"/>
          <path class="cls-25" d="m232.09,319.81c-.1-1.64.75-3.08,1.91-3.23,1.16-.14,2.18,1.06,2.28,2.7.1,1.64-.75,3.08-1.91,3.23-1.16.14-2.18-1.07-2.28-2.7Z"/>
          <g class="cls-16">
            <polygon class="cls-2" points="249.6 148.59 246.8 153.75 252.41 157.32 249.6 148.59"/>
            <polygon class="cls-2" points="257.8 251.76 261.42 247.73 256.59 242.33 257.8 251.76"/>
            <polygon class="cls-2" points="299.36 100.19 299.09 93.69 293.2 96.2 299.36 100.19"/>
            <polygon class="cls-2" points="239.45 249.26 236.64 254.42 242.26 257.99 239.45 249.26"/>
            <polygon class="cls-2" points="242.87 227.15 240.75 232.76 236.39 229.06 239.89 223.04 242.87 227.15"/>
            <polygon class="cls-2" points="286.49 306.64 290.98 307.04 290.42 314.18 285.09 312.19 286.49 306.64"/>
            <path class="cls-2" d="m250,185.45l2.81.79s-4.21,3.97-2.24,7.14c1.96,3.17-1.4,5.95-1.4,5.95l-2.53-2.38s2.24-2.38,1.12-5.55,2.24-5.95,2.24-5.95Z"/>
            <path class="cls-2" d="m288.31,162.88l2.81.79s-4.21,3.97-2.24,7.14c1.96,3.17-1.4,5.95-1.4,5.95l-2.53-2.38s2.24-2.38,1.12-5.55c-1.12-3.17,2.24-5.95,2.24-5.95Z"/>
            <polygon class="cls-2" points="250.28 125.27 247.7 130.66 253.46 133.73 250.28 125.27"/>
            <polygon class="cls-2" points="300.69 128.01 298.11 133.4 303.87 136.48 300.69 128.01"/>
            <polygon class="cls-2" points="276.4 119.45 277.96 113.33 271.85 112.34 276.4 119.45"/>
            <polygon class="cls-2" points="275.24 143.8 276.06 137.55 281.01 139.2 278.97 146.45 275.24 143.8"/>
            <polygon class="cls-2" points="334.03 134.79 334.86 128.54 339.8 130.19 337.76 137.43 334.03 134.79"/>
            <polygon class="cls-2" points="329.93 171.63 330.75 165.38 335.7 167.03 333.66 174.27 329.93 171.63"/>
            <path class="cls-2" d="m315.97,163.89l-2.84.45s3.16-5.59.61-7.77c-2.55-2.18.06-6.27.06-6.27l2.92,1.18s-1.63,3.23.12,5.77c1.75,2.54-.86,6.63-.86,6.63Z"/>
            <polygon class="cls-2" points="292.39 238.01 289.58 243.17 295.19 246.74 292.39 238.01"/>
            <polygon class="cls-2" points="274.88 257.99 272.07 263.15 277.68 266.72 274.88 257.99"/>
            <polygon class="cls-2" points="306.65 213.5 311.14 213.89 310.58 221.03 305.25 219.05 306.65 213.5"/>
            <polygon class="cls-2" points="323.42 273.73 327.91 274.13 327.35 281.27 322.02 279.29 323.42 273.73"/>
            <path class="cls-2" d="m301.27,280.14l2.81.79s-4.21,3.97-2.24,7.14c1.96,3.17-1.4,5.95-1.4,5.95l-2.53-2.38s2.24-2.38,1.12-5.55,2.24-5.95,2.24-5.95Z"/>
            <path class="cls-2" d="m326.05,251.46l-1.76.58s.75-5.29-1.44-7.12c-2.19-1.83-1.45-5.72-1.45-5.72l2.2.9s-.3,3.04,1.45,5.25c1.75,2.21,1,6.1,1,6.1Z"/>
            <path class="cls-2" d="m327.28,109.19l-1.76.58s.75-5.29-1.44-7.12-1.45-5.72-1.45-5.72l2.2.9s-.3,3.04,1.45,5.25c1.75,2.21,1,6.1,1,6.1Z"/>
            <path class="cls-2" d="m257.64,309.84l-2.65,1.52s1.97-6.59-.9-7.71-1.14-6.06-1.14-6.06l3.04.02s-.95,3.73,1.22,5.51.44,6.71.44,6.71Z"/>
            <path class="cls-2" d="m256.49,100.19c0,1.64-.94,2.98-2.1,2.98s-2.1-1.33-2.1-2.98.94-2.98,2.1-2.98,2.1,1.33,2.1,2.98Z"/>
            <path class="cls-2" d="m279.79,214.6c0,1.64-.94,2.98-2.1,2.98s-2.1-1.33-2.1-2.98.94-2.98,2.1-2.98,2.1,1.33,2.1,2.98Z"/>
            <ellipse class="cls-2" cx="334.92" cy="203.11" rx="2.1" ry="2.98"/>
            <path class="cls-2" d="m345.19,102.36c0,1.64-.94,2.98-2.1,2.98s-2.1-1.33-2.1-2.98.94-2.98,2.1-2.98,2.1,1.33,2.1,2.98Z"/>
            <polygon class="cls-2" points="234.55 287.41 236.78 281.72 230.85 279.37 234.55 287.41"/>
            <polygon class="cls-2" points="318.47 315.15 317.29 321.44 323.44 321.66 318.47 315.15"/>
            <path class="cls-2" d="m232.09,319.81c-.1-1.64.75-3.08,1.91-3.23,1.16-.14,2.18,1.06,2.28,2.7.1,1.64-.75,3.08-1.91,3.23-1.16.14-2.18-1.07-2.28-2.7Z"/>
          </g>
        </g>
        <g>
          <ellipse class="cls-25" cx="287.44" cy="195.99" rx="46.53" ry="35.05" transform="translate(38.29 438.81) rotate(-78.55)"/>
          <ellipse class="cls-3" cx="287.44" cy="195.99" rx="46.53" ry="35.05" transform="translate(38.29 438.81) rotate(-78.55)"/>
          <g>
            <path class="cls-27" d="m232.88,199.09l11.75-8.24,7.82,4.35,22.43-4.2-.99,8.65-21.66.89s-10.23,6.22-12.21,6.53c-1.98.32-7.13-8-7.13-8Z"/>
            <path class="cls-25" d="m322.79,195.76c-.05.59-.11,1.17-.17,1.75l-56.7,4.33-.4.03v-1.86s.05-7.27.05-7.27l.02-3.15,1.19-.24,54.87-11.27c1.24,5.46,1.68,11.42,1.14,17.67Z"/>
            <path class="cls-14" d="m322.79,195.76c-.05.59-.11,1.17-.17,1.75l-56.7,4.33-.4.03v-1.86s.05-7.27.05-7.27l.02-3.15,1.19-.24,54.87-11.27c1.24,5.46,1.68,11.42,1.14,17.67Z"/>
            <polygon class="cls-25" points="262.96 189.27 266.83 188.54 265.76 204.2 261.45 203.65 262.96 189.27"/>
            <polygon class="cls-5" points="262.96 189.27 266.83 188.54 265.76 204.2 261.45 203.65 262.96 189.27"/>
          </g>
          <g>
            <g>
              <polygon class="cls-17" points="205.39 174.19 205.54 174.17 205.53 174.14 205.55 174.14 205.54 174.1 205.39 174.19"/>
              <polygon class="cls-17" points="266.59 161.43 266.02 161.5 225.07 164.39 205.87 173.79 205.53 173.81 211.81 211.39 250.75 208.64 271.97 198.35 266.59 161.43"/>
            </g>
            <g>
              <polygon class="cls-6" points="210.48 176.45 212.17 177.8 214.25 177.18 213.48 179.21 214.71 180.99 212.55 180.88 211.24 182.61 210.67 180.52 208.62 179.8 210.43 178.61 210.48 176.45"/>
              <polygon class="cls-6" points="232.88 178 232.88 180.16 234.67 181.39 232.61 182.06 232 184.14 230.72 182.39 228.56 182.45 229.83 180.7 229.1 178.66 231.16 179.32 232.88 178"/>
              <polygon class="cls-6" points="233.79 201.33 233.8 203.5 235.58 204.72 233.53 205.39 232.92 207.47 231.64 205.72 229.47 205.79 230.74 204.03 230.01 201.99 232.07 202.65 233.79 201.33"/>
              <polygon class="cls-6" points="223.92 196.18 223.93 198.34 225.72 199.57 223.66 200.24 223.05 202.32 221.77 200.57 219.6 200.63 220.87 198.88 220.14 196.84 222.21 197.5 223.92 196.18"/>
              <polygon class="cls-6" points="234.63 194.7 234.64 195.97 235.68 196.69 234.48 197.08 234.12 198.3 233.37 197.27 232.1 197.31 232.85 196.28 232.42 195.09 233.63 195.48 234.63 194.7"/>
              <polygon class="cls-6" points="217.06 204.71 217.06 205.98 218.11 206.7 216.91 207.09 216.55 208.31 215.8 207.29 214.53 207.32 215.27 206.3 214.85 205.1 216.06 205.49 217.06 204.71"/>
              <polygon class="cls-6" points="214.73 192.45 214.74 193.72 215.78 194.43 214.58 194.83 214.22 196.05 213.47 195.02 212.2 195.06 212.95 194.03 212.52 192.83 213.73 193.22 214.73 192.45"/>
              <polygon class="cls-6" points="240.37 172.36 240.37 173.63 241.42 174.35 240.22 174.74 239.86 175.96 239.11 174.94 237.84 174.97 238.58 173.94 238.16 172.75 239.37 173.14 240.37 172.36"/>
              <polygon class="cls-6" points="218.09 182.58 219.54 185.05 222.4 185.27 220.49 187.4 221.17 190.19 218.55 189.04 216.11 190.54 216.4 187.69 214.21 185.84 217.01 185.23 218.09 182.58"/>
              <polygon class="cls-6" points="237.14 186.48 239.81 187.51 242.18 185.9 242.02 188.76 244.28 190.51 241.51 191.24 240.55 193.94 238.99 191.53 236.13 191.45 237.94 189.23 237.14 186.48"/>
              <polygon class="cls-6" points="243.33 198.35 244.78 200.82 247.64 201.03 245.73 203.17 246.41 205.96 243.79 204.8 241.35 206.31 241.64 203.46 239.45 201.61 242.25 201 243.33 198.35"/>
            </g>
            <g>
              <polygon class="cls-6" points="248.62 172.45 249.62 173.65 250.62 172.84 250.42 174.93 251.21 176.6 250.1 176.7 249.59 178.55 249.1 176.51 247.99 175.98 248.8 174.63 248.62 172.45"/>
              <polygon class="cls-6" points="260.22 171.92 260.43 174.09 261.46 175.15 260.47 176.01 260.35 178.15 259.53 176.52 258.43 176.78 258.92 174.91 258.35 172.93 259.47 173.41 260.22 171.92"/>
              <polygon class="cls-6" points="262.88 195.18 263.08 197.35 264.11 198.41 263.12 199.27 263 201.41 262.19 199.78 261.08 200.04 261.57 198.17 261.01 196.2 262.12 196.67 262.88 195.18"/>
              <polygon class="cls-6" points="257.35 190.95 257.55 193.11 258.58 194.17 257.59 195.04 257.47 197.17 256.66 195.54 255.55 195.81 256.04 193.93 255.48 191.96 256.59 192.43 257.35 190.95"/>
              <polygon class="cls-6" points="262.69 188.47 262.81 189.74 263.41 190.36 262.83 190.87 262.76 192.12 262.28 191.16 261.64 191.32 261.92 190.22 261.59 189.06 262.25 189.34 262.69 188.47"/>
              <polygon class="cls-6" points="254.64 200.13 254.76 201.39 255.36 202.01 254.78 202.52 254.71 203.77 254.23 202.82 253.59 202.97 253.87 201.87 253.54 200.72 254.19 200.99 254.64 200.13"/>
              <polygon class="cls-6" points="252.3 188.07 252.42 189.34 253.02 189.96 252.44 190.47 252.37 191.72 251.89 190.76 251.25 190.92 251.53 189.82 251.2 188.66 251.86 188.94 252.3 188.07"/>
              <polygon class="cls-6" points="263.53 165.59 263.65 166.85 264.25 167.47 263.67 167.98 263.6 169.23 263.13 168.28 262.48 168.43 262.76 167.33 262.43 166.18 263.09 166.45 263.53 165.59"/>
              <polygon class="cls-6" points="253.09 177.88 254.06 180.22 255.55 180.17 254.77 182.49 255.38 185.21 253.93 184.3 252.83 186.04 252.7 183.16 251.41 181.51 252.79 180.64 253.09 177.88"/>
              <polygon class="cls-6" points="263.2 180.01 264.66 180.8 265.72 178.96 265.91 181.84 267.23 183.38 265.88 184.37 265.64 187.16 264.62 184.9 263.15 185.08 263.87 182.69 263.2 180.01"/>
              <polygon class="cls-6" points="267.48 191.31 268.45 193.65 269.93 193.6 269.16 195.92 269.77 198.64 268.32 197.73 267.21 199.47 267.09 196.59 265.8 194.94 267.17 194.07 267.48 191.31"/>
            </g>
            <polygon class="cls-14" points="244.45 171.18 266.6 161.6 271.99 198.65 250.78 209.08 244.45 171.18"/>
            <polygon class="cls-6" points="205.37 173.97 225.07 164.39 266.3 161.49 244.44 170.93 205.37 173.97"/>
            <g>
              <polygon class="cls-25" points="264.67 202.35 259.36 164.17 219.16 167 215.5 169.24 252.29 167.66 259.61 204.61 264.67 202.35"/>
              <polygon class="cls-25" points="245.08 162.98 226.77 172.13 231.7 209.99 225.88 210.4 219.2 172.78 239.74 163.36 245.08 162.98"/>
              <polygon class="cls-14" points="259.38 164.5 252.3 167.74 259.62 204.73 264.68 202.51 259.38 164.5"/>
              <polygon class="cls-15" points="219.21 172.95 226.78 172.21 231.7 209.99 225.88 210.4 219.21 172.95"/>
            </g>
            <g>
              <path class="cls-25" d="m233.24,166.8s-11.51-7.47-16.1-5.08c-3.63,1.9-2.74,6.74,6.83,7.31-3.54.57-7.71,1.43-10.16,2.57l7.21.34s6.76-2.43,12.92-3.38c0,0,.38,1.1.17,2.46l4.86-.77s-1.54-1.28-2.79-2.21c5.57-.95,17.46-3.6,18.29-8.97,1.09-7.02-15.89-1.2-21.25,7.71Zm-16-3.69c1.02-1.9,15.36,4.34,15.36,4.34-6.42,1.36-16.38-2.44-15.36-4.34Zm17.26,3.9s14.06-11.65,17.8-9.54c3.74,2.11-13.3,9.65-17.8,9.54Z"/>
              <path class="cls-23" d="m233.24,166.8s-11.51-7.47-16.1-5.08c-3.63,1.9-2.74,6.74,6.83,7.31-3.54.57-7.71,1.43-10.16,2.57l7.21.34s6.76-2.43,12.92-3.38c0,0,.38,1.1.17,2.46l4.86-.77s-1.54-1.28-2.79-2.21c5.57-.95,17.46-3.6,18.29-8.97,1.09-7.02-15.89-1.2-21.25,7.71Zm-16-3.69c1.02-1.9,15.36,4.34,15.36,4.34-6.42,1.36-16.38-2.44-15.36-4.34Zm17.26,3.9s14.06-11.65,17.8-9.54c3.74,2.11-13.3,9.65-17.8,9.54Z"/>
            </g>
          </g>
          <g>
            <path class="cls-27" d="m256.23,199.28l13.06-5.94,6.89,5.72h22.82l-2.57,8.32-21.46-3.11s-11.2,4.23-13.21,4.18-5.54-9.17-5.54-9.17Z"/>
            <path class="cls-25" d="m322.73,196.38c-.03.38-.07.76-.11,1.13-.68,5.96-2.19,11.64-4.36,16.83l-30.31-5.27-.33-.06.55-2.82,1.38-7.13.41-2.11,1.14-.02,31.65-.56Z"/>
            <polygon class="cls-25" points="287.61 195.16 291.54 195.16 287.61 210.35 283.47 209.01 287.61 195.16"/>
            <polygon class="cls-4" points="287.61 195.16 291.54 195.16 287.61 210.35 283.47 209.01 287.61 195.16"/>
          </g>
        </g>
      </g>
    </g>
  </g>
  <g id="Speech_Bubble" data-name="Speech Bubble">
    <g>
      <rect class="cls-25" x="176.74" y="71.73" width="21.1" height="21.1" rx="3.69" ry="3.69" transform="translate(16.78 -30.74) rotate(9.82)"/>
      <path class="cls-9" d="m193.72,79.18c-1.06-2.64-4.02-2.21-5.79-.61-1.13-2.1-3.78-3.51-5.66-1.37-3.17,3.59,1.29,8.2,3.44,10.07.24.21.45.39.62.53.21-.08.46-.17.76-.29,2.66-1.04,8.41-3.88,6.63-8.33Z"/>
      <path class="cls-25" d="m188.01,91.45s-3.81,5.76-10.25,6.66c0,0,3.72-1.36,4.58-7.91l5.67,1.25Z"/>
    </g>
  </g>
  <g id="Character">
    <g>
      <path class="cls-26" d="m192.59,131.32l3.71-9.32s-.33-3.59,0-4.07,9.38-6.6,9.38-6.6c0,0,1.4,3.35,1.31,4.84-.08,1.49-6.18,5.16-6.18,5.16l-3.7,9.13-4.53.86Z"/>
      <path class="cls-25" d="m199.79,126.19s-12.13,27.62-17.14,29.99c-3.43,1.63-15.18-.04-22.24-1.26-3.25-.56-5.5-1.02-5.5-1.02l4.3-5.73,3.31-4.41s10.9,4.51,15.12,5.3c4.22.79,16.75-25.77,16.75-25.77l5.4,2.9Z"/>
      <path class="cls-14" d="m160.41,154.92c-3.25-.56-5.5-1.02-5.5-1.02l4.3-5.73c.86,1.28,1.85,3.58,1.2,6.75Z"/>
      <path class="cls-17" d="m160.81,101.26c5.03,2.57,7.84,6.15,8.59,13.06.75,6.9-3.16,9.11,0,11.87s1.26,6.99-.95,7.55c-2.21.56,1.54,3.33,1.54,3.33l-1.54,1.1s.35,1.11-2.61,0c-2.96-1.11-1.68,1.36-6.38,1.91-4.7.55-13.62,1.35-17.37-3-3.75-4.36-2.22-11.04-4.25-13.78s2.81-17.64,8.78-20.92c5.97-3.28,14.19-1.1,14.19-1.1Z"/>
      <path class="cls-26" d="m105.43,102.37l3.25-9.48s2.59-2.51,2.64-3.1c.05-.59-2.83-11.11-2.83-11.11,0,0-3.24,1.63-4.14,2.82s1.33,7.94,1.33,7.94l-3.14,9.34,2.88,3.6Z"/>
      <polygon class="cls-26" points="130.99 351.17 124.38 351.17 126.4 342.03 128.28 333.64 136.56 332.37 133.61 342.32 130.99 351.17"/>
      <polygon class="cls-14" points="133.54 342.53 126.34 342.21 128.24 333.73 136.54 332.42 133.54 342.53"/>
      <polygon class="cls-26" points="117.3 351.17 110.69 351.17 112.71 342.03 114.59 333.64 122.87 332.37 119.92 342.32 117.3 351.17"/>
      <polygon class="cls-14" points="119.86 342.53 112.65 342.21 114.56 333.73 122.85 332.42 119.86 342.53"/>
      <g>
        <path class="cls-17" d="m105.33,176.46s-.33.71-.87,2.03c-2.49,6.15-9.31,25.57-6.76,48.1,1.51,13.32,16.23,37.29,18.42,50.35,2.55,15.21-4.12,42.01-2.41,61.67l10.52.92,3.17-2,9.01-1.34s23.47-53.36,23.04-71.81c-.34-14.49-23.04-66.43-23.04-66.43l2.16-19.21"/>
        <path class="cls-14" d="m129.05,337.29l-1.65.24-2.7,1.7c1.72-5.99,16.54-57.88,16.81-69.3.29-12.13-16.97-55.19-16.97-55.19l4.43-8-.66,12.17s16.34,33.49,17.63,51.02c1.24,16.81-15.51,63.57-16.88,67.36Z"/>
      </g>
      <path class="cls-17" d="m122.51,350.88c.02-.73,8.97-.16,8.97-.16,0,0,5.51,5.61,10.86,6.87,5.35,1.26,2.36,4.47-3.62,4.47h-14.8c-4.25,0-1.59-3.62-1.42-11.18Z"/>
      <path class="cls-25" d="m132.49,351.88s-.05-.03-.07-.06h0s-.03-.04-.04-.07h0s-.02-.05-.02-.07h0s0-.07.01-.1c.04-.11.79-2.18,2-2.68.39-.16.78-.15,1.16.03.41.19.61.45.59.75-.03.47-.67.94-1.39,1.33.76-.07,1.53-.05,2.01.22.25.15.41.35.48.61.14.53-.04.81-.22.95-.19.15-.46.21-.79.21-1.25,0-3.24-.91-3.71-1.14Zm.82-.15c1.32.56,2.96,1.05,3.38.71.04-.03.15-.12.06-.47-.03-.13-.12-.23-.26-.31-.25-.14-.63-.2-1.06-.2-.69,0-1.51.14-2.13.28Zm1.24-2.39c-.7.29-1.26,1.31-1.54,1.93,1.33-.5,2.61-1.2,2.63-1.6,0-.12-.2-.24-.32-.3-.14-.07-.28-.1-.41-.1-.12,0-.24.03-.36.08Z"/>
      <polygon class="cls-25" points="124.23 336.02 139.08 333.99 137.83 339.53 125.58 341.07 124.23 336.02"/>
      <path class="cls-17" d="m108.83,350.88c.02-.73,8.98-.16,8.98-.16,0,0,5.51,5.61,10.86,6.87,5.35,1.26,2.36,4.47-3.62,4.47h-14.8c-4.25,0-1.59-3.62-1.42-11.18Z"/>
      <path class="cls-25" d="m118.8,351.88s-.05-.03-.07-.06h0s-.03-.04-.04-.07h0s-.02-.05-.02-.07h0s0-.07.01-.1c.04-.11.79-2.18,2-2.68.39-.16.78-.15,1.16.03.41.19.61.45.59.75-.03.47-.67.94-1.39,1.33.76-.07,1.53-.05,2.01.22.25.15.41.35.48.61.14.53-.04.81-.22.95-.19.15-.46.21-.79.21-1.25,0-3.24-.91-3.71-1.14Zm.82-.15c1.32.56,2.96,1.05,3.38.71.04-.03.15-.12.06-.47-.03-.13-.12-.23-.26-.31-.25-.14-.63-.2-1.06-.2-.69,0-1.51.14-2.13.28Zm1.24-2.39c-.7.29-1.26,1.31-1.54,1.93,1.33-.5,2.61-1.2,2.63-1.6,0-.12-.2-.24-.32-.3-.14-.07-.28-.1-.41-.1-.12,0-.24.03-.36.08Z"/>
      <polygon class="cls-25" points="111.54 336.02 127.4 333.99 126.07 339.53 112.99 341.07 111.54 336.02"/>
      <g>
        <polygon points="107.26 172.14 105.7 176.6 136.99 184.87 138.83 179.59 107.26 172.14"/>
        <rect class="cls-17" x="115.25" y="173.37" width="1.6" height="8.16" transform="translate(54.33 -25.4) rotate(16.26)"/>
        <rect class="cls-2" x="123.6" y="177.23" width="7.08" height="5.37" transform="translate(47.56 -25.51) rotate(14.07)"/>
        <rect class="cls-17" x="134.58" y="177.81" width="1.6" height="8.16" transform="translate(56.39 -30.65) rotate(16.27)"/>
      </g>
      <path class="cls-25" d="m162.52,143.76c-1.36,1.77-2.62,3.43-3.78,5.02-4.56,6.1-7.81,10.43-10.29,13.92-3.4,4.79-5.35,8-7.24,12.04-.81,1.71-1.61,3.58-2.5,5.79l-31.46-8.39c3.55-13.16,6.79-22.57,9.36-29.24.87-2.24,1.66-4.17,2.36-5.83.7-1.66,1.31-3.04,1.82-4.2.02-.06.05-.12.08-.19,1.59-3.56,5.55-5.44,9.32-4.42,2.26.61,4.91,1.38,7.36,2.21,4.56,1.69,8.99,3.7,13.28,6.01,4.06,2.14,7.96,4.57,11.69,7.28Z"/>
      <g>
        <path class="cls-26" d="m142.21,142.64c-5.3-6.02-4.84-10.15-4.84-10.15,6.93-.24,9.24-9.2,9.24-9.2l6,7.67c-1.23,1.02-2.19,1.95-2.95,2.78-3.9,4.31-1.96,6.09-1.96,6.09-.82,3.47-5.5,2.81-5.5,2.81Z"/>
        <path class="cls-14" d="m152.62,130.96c-1.23,1.02-2.19,1.95-2.95,2.78-2.76-3.85-3.06-10.45-3.06-10.45l6,7.67Z"/>
      </g>
      <g>
        <path class="cls-26" d="m159.15,102.65c8.1,1.97,9.65,6.94,8.21,15.43-1.8,10.61-5.92,17.46-15.5,12.76-13.01-6.37-6.16-31.47,7.29-28.19Z"/>
        <path class="cls-11" d="m162.24,116.36s.61,2.39,1.54,3.93c0,0-.96.93-2.36.4l.82-4.33Z"/>
        <g>
          <path class="cls-17" d="m157.44,114.49c-.15.67-.63,1.13-1.07,1.03s-.69-.72-.54-1.39c.15-.67.63-1.13,1.07-1.03.45.1.69.72.54,1.39Z"/>
          <path class="cls-17" d="m156.71,113.09l1.58-.25s-.99,1.07-1.58.25Z"/>
        </g>
        <g>
          <path class="cls-17" d="m165.79,116.17c-.15.67-.63,1.13-1.07,1.03-.45-.1-.69-.72-.54-1.39.15-.67.63-1.13,1.07-1.03.45.1.69.72.54,1.39Z"/>
          <path class="cls-17" d="m165.05,114.77l1.58-.25s-.99,1.07-1.58.25Z"/>
        </g>
        <path class="cls-18" d="m158.72,108.88s-2.2-.85-3.81.37"/>
        <path class="cls-18" d="m164.69,109.97s1.56-.18,3.07,1.45"/>
        <path class="cls-17" d="m146.98,114.15s5.41-5.73,6.08-11.01c0,0,17.64-2.65,14.47,13.83,0,0,5.09-14.08-8.75-17.79-13.82-3.71-18.74,16.67-13.03,24.49,0,0-2.13-5.93,1.23-9.52Z"/>
        <path class="cls-26" d="m147.88,116.18c.26-1.32-.54-3.85-3.03-4.18-2.58-.34-5.03,4.52.91,7.28.85.4,1.57-.36,2.12-3.1Z"/>
        <path class="cls-17" d="m172.41,120.62c-2.11-1.99-1.78-5.4-.14-8.84,1.65-3.44-2.61-5.98-2.61-5.98,0,0-.34-4.34-3.68-6.09-.61-.32-3.38,0-3.38,0-3.64-3.98-9.49-7.28-14.08-2.07-2.71,3.07-5.4-.08-9.69,6.33-3.1,4.62-.94,8.7-1.84,10.19-4.16,6.84,1.25,8.69,2.55,11.07,0,0,2.86-1.36,2.62-2.18-1.94-6.55,1.46-10.81,4.09-9.76,2.63,1.05,4.52.76,6.43-1.65,1.91-2.41.58-5.02,4.99-5.6,4.41-.59,4.87-3.13,4.87-3.13,0,0-.06,3.35,3.63,5.28s2.24,4.26,1.72,7.55c-.51,3.29,1.11,4.56,3.97,6.94s-.17,4.12-.17,4.12c2.34-1.13,2.82-4.18.72-6.17Z"/>
        <g>
          <path class="cls-17" d="m160.81,124.36c-.82.67-2,2.09-2,2.09-.15-.08-.3-.17-.44-.26-1.98-1.19-2.51-2.39-2.49-3.37.01-.53.19-1,.39-1.36.22-.41.47-.65.47-.65.67,1.26,2.43,2.51,3.4,3.13.4.27.67.42.67.42Z"/>
          <path class="cls-2" d="m160.14,123.94l-.61.6c-1.86-1.12-3.02-2.16-3.27-3.08.22-.41.47-.65.47-.65.67,1.26,2.43,2.51,3.4,3.13Z"/>
          <path class="cls-21" d="m158.37,126.19c-1.98-1.19-2.51-2.39-2.49-3.37.66.43,1.41,1.02,1.94,1.75.41.56.54,1.12.55,1.61Z"/>
        </g>
      </g>
      <path class="cls-25" d="m140.26,127.98s5.66,7.23,12.35,7.36c0,0-3.33,5.41-2.27,8.18,0,0-4.22,4.35-10.02.53s-6.73-13.98-6.73-13.98c0,0,4.16-.22,6.67-2.09Z"/>
      <path class="cls-25" d="m128.3,127.98s-12.41-3.03-21.11-4.36c-8.7-1.33,1.88-28.67,1.88-28.67l-5.27-2.57s-12.13,26.23-6.65,34.42c2.98,4.44,21.82,10.27,21.82,10.27l9.33-9.08Z"/>
      <path class="cls-17" d="m168.45,136.27s.67-1.71,2.62,0,2.48-1,3.67-.76c1.19.23,1.32-1.84,4.22-2.52,2.9-.68,3.3-.68,3.82-1.99.53-1.32,2.64-1.32,2.64-1.32,0,0-1.98-1.83-.53-3.49,1.45-1.65-.13-5.33-.13-5.33,0,0,2.77-.81,3.82,1.17,1.06,1.98.92,2.52.92,2.52,0,0,.4-3.21-.53-3.85,0,0,4.22,2.66,2.51,5.75-1.71,3.1-4.22,3.76-4.22,3.76,0,0-.92,3.24-2.37,3.53-1.45.29-2.37,1.22-3.43,2.01-1.05.79-.92.75-2.9,1.1-1.98.35-2.64,3.21-3.82,3.23s-1.58-.29-2.77,0-1.64,2.42-3.52,1.35-2.85-.58-3.75-1.35c-.9-.77-5.09.29-5.24-2.35-.15-2.64,6.66-4.35,8.99-1.45Z"/>
      <path class="cls-14" d="m128.28,136.09c-.34.45-6.54,8.39-11.67,6.81.87-2.24,1.66-4.17,2.36-5.83,0,0,6.34,1.76,9.31-.98Z"/>
      <path class="cls-14" d="m135.55,129.81s2.07,8.82,7.55,11.1,6.51-.41,6.51-.41c0,0-.55,7.72-6.51,4.83-6.57-3.18-9-9.62-7.55-15.53Z"/>
      <polygon class="cls-4" points="138.16 169.43 132.81 164.36 124.73 165.97 128.9 159.23 125.51 152.83 133.44 153.73 139.43 148.17 140.16 155.46 147.25 158.43 139.77 162.03 138.16 169.43"/>
    </g>
  </g>
</svg>