<svg width="48" height="48" viewBox="0 0 48 48" fill="none" xmlns="http://www.w3.org/2000/svg" svg-inline="" role="presentation" focusable="false" tabindex="-1"><path opacity=".35" d="M24 4C12.954 4 4 12.954 4 24a19.9 19.9 0 002.086 8.854l-2.01 8.038c-.458 1.83 1.2 3.49 3.032 3.032l8.038-2.01A19.9 19.9 0 0024 44c11.046 0 20-8.954 20-20S35.046 4 24 4z" fill="#276EF1"></path><path d="M17.01 25.98a4.99 4.99 0 100-9.98 4.99 4.99 0 000 9.98z" fill="#276EF1"></path><path d="M18.57 31.222C20.134 28.232 22 23.778 22 20h-6v10.6c0 1.428 1.908 1.886 2.57.622zM31.01 25.98a4.99 4.99 0 100-9.98 4.99 4.99 0 000 9.98z" fill="#276EF1"></path><path d="M32.57 31.222C34.134 28.232 36 23.778 36 20h-6v10.6c0 1.428 1.908 1.886 2.57.622z" fill="#276EF1"></path></svg>