<svg width="48" height="48" viewBox="0 0 48 48" fill="none" xmlns="http://www.w3.org/2000/svg" svg-inline="" role="presentation" focusable="false" tabindex="-1"><path opacity=".35" d="M32.572 7.617L7.978 32.177a3.377 3.377 0 00-.942 1.816L6.03 39.83a1.852 1.852 0 002.144 2.14l5.768-1.004a3.393 3.393 0 001.808-.936l24.632-24.602-7.81-7.81z" fill="#276EF1"></path><path d="M29.034 11.148L7.978 32.178a3.377 3.377 0 00-.942 1.816l-.392 2.272 5.086 5.086 2.21-.384a3.393 3.393 0 001.808-.936l21.1-21.074-7.814-7.81zM40.09 15.721l.294-.292a5.524 5.524 0 00-7.81-7.81l-.294.292 7.81 7.81z" fill="#276EF1"></path><path opacity=".35" d="M40.828 32.344L15.656 7.172a4 4 0 00-5.655 0L7.171 9.998a4 4 0 000 5.656l25.172 25.172a4 4 0 005.656 0L40.828 38a4 4 0 000-5.656z" fill="#276EF1"></path></svg>