<svg width="750" height="697" viewBox="0 0 750 697" fill="none" xmlns="http://www.w3.org/2000/svg" svg-inline="" role="presentation" focusable="false" tabindex="-1"><g clip-path="url(#clip0_1190_1090)"><rect x="1" y="1" width="748" height="695" rx="20" fill="#F8F8FB"></rect><path fill="#fff" d="M-41-8h1477v49H-41z"></path><rect x="42.858" y="15.456" width="42.69" height="11.42" rx="5.71" fill="#F2F2F7"></rect><rect x="163.858" y="15.456" width="42.69" height="11.42" rx="5.71" fill="#F2F2F7"></rect><rect x="224.858" y="15.456" width="42.69" height="11.42" rx="5.71" fill="#F2F2F7"></rect><rect x="285.858" y="15.456" width="42.69" height="11.42" rx="5.71" fill="#F2F2F7"></rect><rect x="140.756" y="163.769" width="482.487" height="453.75" rx="23.444" fill="#fff"></rect><g class="sales-showcase__chat-bubble-left" data-svg-origin="179.3249969482422 205.36199951171875" style="transform-origin: 0px 0px; opacity: 1;" transform="matrix(1,0,0,1,0,0)"><path d="M179.325 229.562c0-13.365 10.835-24.2 24.2-24.2h15.625c14.394 0 26.062 11.669 26.062 26.063 0 14.394-11.668 26.062-26.062 26.062h-39.825v-27.925z" fill="#F2F2F7"></path><text fill="#061938" font-family="Gilroy" font-size="21.175" font-weight="500" letter-spacing="0em" style="white-space:pre"><tspan x="203.525" y="236.877">Hi</tspan></text></g><g class="sales-showcase__chat-bubble-left" data-svg-origin="179.3249969482422 280.98699951171875" style="transform-origin: 0px 0px; opacity: 1;" transform="matrix(1,0,0,1,0,0)"><path d="M179.325 305.187c0-13.365 10.835-24.2 24.2-24.2h278.162c14.394 0 26.063 11.669 26.063 26.063 0 14.394-11.669 26.062-26.063 26.062H179.325v-27.925z" fill="#F2F2F7"></path><text fill="#061938" font-family="Gilroy" font-size="21.175" font-weight="500" letter-spacing="0em" style="white-space:pre"><tspan x="208.062" y="312.502">I’d like to request for a topup</tspan></text></g><g class="sales-showcase__chat-bubble-left-2" data-svg-origin="179.32498168945312 492.73699951171875" style="transform-origin: 0px 0px; opacity: 0;" transform="matrix(1,0,0,1,-60,0)"><path d="M179.325 516.937c0-13.365 10.835-24.2 24.2-24.2h102.65c13.559 0 24.55 10.992 24.55 24.55 0 13.559-10.991 24.55-24.55 24.55h-126.85v-24.9z" fill="#F2F2F7"></path><text fill="#061938" font-family="Gilroy" font-size="21.175" font-weight="500" letter-spacing="0em" style="white-space:pre"><tspan x="203.525" y="522.739">John Cally</tspan></text></g><g class="sales-showcase__chat-bubble-right" data-svg-origin="192.125 368.7120056152344" style="transform-origin: 0px 0px; opacity: 1;" transform="matrix(1,0,0,1,0,0)"><path d="M192.125 394.775c0-14.394 11.669-26.063 26.062-26.063H545.35c13.365 0 24.2 10.835 24.2 24.2v27.925H218.188c-14.394 0-26.063-11.668-26.063-26.062z" fill="#DBF4FF"></path><text fill="#061938" font-family="Gilroy" font-size="21.175" font-weight="500" letter-spacing="0em" style="white-space:pre"><tspan x="220.863" y="400.227">Thank you, what’s your full name?</tspan></text></g><circle cx="460.65" cy="556.263" r="9.075" fill="#F2F2F7" class="sales-showcase__indicator" data-svg-origin="451.5749816894531 547.18798828125" style="transform-origin: 0px 0px; opacity: 0;" transform="matrix(1,0,0,1,0,60)"></circle><circle cx="490.9" cy="556.263" r="9.075" fill="#F2F2F7" class="sales-showcase__indicator" data-svg-origin="481.8249816894531 547.18798828125" style="transform-origin: 0px 0px; opacity: 0;" transform="matrix(1,0,0,1,0,60)"></circle><circle cx="521.15" cy="556.263" r="9.075" fill="#F2F2F7" class="sales-showcase__indicator" data-svg-origin="512.0750122070312 547.18798828125" style="transform-origin: 0px 0px; opacity: 0;" transform="matrix(1,0,0,1,0,60)"></circle><g class="sales-showcase__chat-assigned-info" data-svg-origin="177.812744140625 444.3370056152344" style="transform-origin: 0px 0px; opacity: 0;" transform="matrix(1,0,0,1,-60,0)"><path d="M190.669 449.631v2.841c0 .602-.239 1.179-.665 1.604l-3.781 3.781-1.696 1.696a2.268 2.268 0 01-3.208 0l-.574-.573 2.842 2.841a2.268 2.268 0 003.208 0l1.696-1.696 3.781-3.781a2.258 2.258 0 00.666-1.603V451.9a2.27 2.27 0 00-2.269-2.269z" fill="#DC50FF"></path><path opacity=".35" d="M188.4 447.362h-2.841c-.602 0-1.179.239-1.604.665l-5.478 5.477a2.27 2.27 0 000 3.209l2.842 2.841a2.268 2.268 0 003.208 0l1.696-1.695 3.781-3.782a2.27 2.27 0 00.665-1.605v-2.841a2.269 2.269 0 00-2.269-2.269zm-1.134 2.269a1.133 1.133 0 110 2.268 1.135 1.135 0 110-2.268z" fill="#DC50FF"></path><path d="M185.153 452.877a.754.754 0 00-1.069 0l-2.269 2.268a.756.756 0 101.069 1.07l2.269-2.269a.754.754 0 000-1.069z" fill="#DC50FF"></path><rect x="200.5" y="444.337" width="87.725" height="21.175" rx="4.537" fill="#AE7EEC" fill-opacity=".2"></rect><text fill="#061938" font-family="Gilroy" font-size="12.1" font-weight="600" letter-spacing="1.512" style="white-space:pre"><tspan x="209.575" y="458.24">REQUESTS</tspan></text><text fill="#061938" font-family="Gilroy" font-size="15.125" font-weight="600" letter-spacing=".302" style="white-space:pre"><tspan x="373.216" y="459.069">Caroline. M</tspan></text><text fill="#647084" font-family="Gilroy" font-size="15.125" font-weight="500" letter-spacing=".302" style="white-space:pre"><tspan x="298.812" y="459.069">Added by </tspan></text></g><rect x="140.756" y="163.769" width="482.487" height="453.75" rx="23.444" stroke="#F2F2F7" stroke-width="1.512"></rect><g class="sales-showcase__pill" data-svg-origin="140.75599670410156 93.75599670410156" style="transform-origin: 0px 0px; opacity: 1;" transform="matrix(1,0,0,1,0,0)"><rect x="140.756" y="93.756" width="197.288" height="50.587" rx="25.294" fill="#fff"></rect><path d="M192.937 108.462v5.683a4.533 4.533 0 01-1.329 3.208l-7.563 7.562-3.391 3.391a4.536 4.536 0 01-6.417 0l-1.147-1.146 5.683 5.682a4.536 4.536 0 006.417 0l3.391-3.391 7.563-7.562a4.523 4.523 0 001.331-3.207V113a4.538 4.538 0 00-4.538-4.538z" fill="#DC50FF"></path><path opacity=".35" d="M188.4 103.925h-5.683a4.533 4.533 0 00-3.208 1.329l-10.955 10.955a4.539 4.539 0 000 6.418l5.683 5.682a4.536 4.536 0 006.417 0l3.391-3.391 7.563-7.562a4.546 4.546 0 001.329-3.211v-5.683a4.537 4.537 0 00-4.537-4.537zm-2.269 4.537a2.268 2.268 0 110 4.538 2.27 2.27 0 010-4.538z" fill="#DC50FF"></path><path d="M181.906 114.955a1.51 1.51 0 00-2.138 0l-4.538 4.538a1.51 1.51 0 000 2.138 1.51 1.51 0 002.139 0l4.537-4.537a1.51 1.51 0 000-2.139z" fill="#DC50FF"></path><text fill="#647084" font-family="Gilroy" font-size="24.2" font-weight="500" letter-spacing="0" style="white-space:pre"><tspan x="212.6" y="125.343">Requests</tspan></text><rect x="140.756" y="93.756" width="197.288" height="50.587" rx="25.294" stroke="#F2F2F7" stroke-width="1.512"></rect></g></g><rect x=".5" y=".5" width="749" height="696" rx="20.5" stroke="#000" stroke-opacity=".07"></rect><defs><clipPath id="clip0_1190_1090"><rect x="1" y="1" width="748" height="695" rx="20" fill="#fff"></rect></clipPath></defs></svg>