<svg id="Component_3_3" data-name="Component 3 – 3" xmlns="http://www.w3.org/2000/svg" xmlns:xlink="http://www.w3.org/1999/xlink" width="204.821" height="67" viewBox="0 0 204.821 67">
  <defs>
    <clipPath id="clip-path">
      <rect id="Rectangle_16" data-name="Rectangle 16" width="204.821" height="67" fill="none"/>
    </clipPath>
  </defs>
  <g id="Group_14" data-name="Group 14" clip-path="url(#clip-path)">
    <path id="Rectangle_13" data-name="Rectangle 13" d="M2.048,0H202.773a2.048,2.048,0,0,1,2.048,2.048v62.9A2.047,2.047,0,0,1,202.774,67H2.047A2.047,2.047,0,0,1,0,64.953V2.048A2.048,2.048,0,0,1,2.048,0Z" transform="translate(0 0.002)" fill="#231f20"/>
    <path id="Path_30" data-name="Path 30" d="M23.711,2.591H7.026A3.617,3.617,0,0,0,3.408,6.213V43.176A3.62,3.62,0,0,0,7.026,46.8H23.711a3.624,3.624,0,0,0,3.622-3.622V6.213a3.621,3.621,0,0,0-3.622-3.622M15.371,44.135a2.41,2.41,0,1,1,2.41-2.41,2.411,2.411,0,0,1-2.41,2.41m9.119-6H6.252V10.874H24.49Z" transform="translate(11.664 8.868)" fill="#fff"/>
    <path id="Path_31" data-name="Path 31" d="M13.7,9.263l-1.013,3.069h-1.3L14.7,2.567h1.517l3.339,9.765H18.208L17.164,9.263Zm3.2-.986-.969-2.813c-.208-.637-.354-1.216-.5-1.778H15.4c-.133.562-.292,1.172-.486,1.765l-.951,2.826Z" transform="translate(38.961 8.786)" fill="#fff"/>
    <path id="Path_32" data-name="Path 32" d="M14.58,3.189l1.375,3.927a18.909,18.909,0,0,1,.566,1.809h.044c.159-.579.363-1.159.593-1.809l1.362-3.927h1.336L17.1,10.2H15.885L13.218,3.189Z" transform="translate(45.238 10.915)" fill="#fff"/>
    <path id="Path_33" data-name="Path 33" d="M20.292,8.642a11.313,11.313,0,0,0,.106,1.681h-1.15l-.111-.884h-.044a2.588,2.588,0,0,1-2.149,1.044A2,2,0,0,1,14.8,8.47c0-1.694,1.5-2.623,4.215-2.609V5.715A1.438,1.438,0,0,0,17.427,4.1a3.392,3.392,0,0,0-1.84.517l-.292-.854a4.555,4.555,0,0,1,2.317-.606c2.158,0,2.68,1.459,2.68,2.866Zm-1.243-1.9c-1.393-.031-2.967.217-2.967,1.579A1.115,1.115,0,0,0,17.267,9.54a1.771,1.771,0,0,0,1.725-1.172,1.435,1.435,0,0,0,.057-.407Z" transform="translate(50.666 10.795)" fill="#fff"/>
    <path id="Path_34" data-name="Path 34" d="M17.244,4.164a.792.792,0,0,1-.8-.827.8.8,0,0,1,.827-.809.783.783,0,0,1,.809.809.8.8,0,0,1-.823.827Zm-.606,1.291h1.274V12.47H16.638Z" transform="translate(56.292 8.652)" fill="#fff"/>
    <rect id="Rectangle_14" data-name="Rectangle 14" width="1.274" height="10.287" transform="translate(76.247 10.831)" fill="#fff"/>
    <path id="Path_35" data-name="Path 35" d="M23.359,8.642a11.354,11.354,0,0,0,.1,1.681H22.315L22.2,9.438h-.044a2.586,2.586,0,0,1-2.145,1.044A2,2,0,0,1,17.866,8.47c0-1.694,1.508-2.623,4.219-2.609V5.715a1.439,1.439,0,0,0-1.6-1.619,3.392,3.392,0,0,0-1.84.517l-.292-.854a4.56,4.56,0,0,1,2.322-.606c2.158,0,2.68,1.459,2.68,2.866Zm-1.247-1.9c-1.389-.031-2.972.217-2.972,1.579a1.118,1.118,0,0,0,1.19,1.216,1.771,1.771,0,0,0,1.725-1.172,1.293,1.293,0,0,0,.057-.407Z" transform="translate(61.145 10.795)" fill="#fff"/>
    <path id="Path_36" data-name="Path 36" d="M19.6,2.45h1.274V6.837H20.9a2.6,2.6,0,0,1,2.393-1.274c1.734,0,2.95,1.446,2.95,3.564,0,2.521-1.592,3.763-3.158,3.763a2.494,2.494,0,0,1-2.339-1.318h-.031l-.08,1.159h-1.1c.044-.478.057-1.185.057-1.809Zm1.274,7.474a2.266,2.266,0,0,0,.044.464,1.983,1.983,0,0,0,1.911,1.49c1.349,0,2.132-1.083,2.132-2.693,0-1.42-.725-2.623-2.087-2.623a2.018,2.018,0,0,0-1.924,1.566,1.953,1.953,0,0,0-.075.535Z" transform="translate(66.875 8.385)" fill="#fff"/>
    <rect id="Rectangle_15" data-name="Rectangle 15" width="1.274" height="10.287" transform="translate(94.645 10.831)" fill="#fff"/>
    <path id="Path_37" data-name="Path 37" d="M23.265,7.046a2.241,2.241,0,0,0,2.393,2.437A4.816,4.816,0,0,0,27.6,9.134l.23.9a5.715,5.715,0,0,1-2.348.451,3.274,3.274,0,0,1-3.45-3.538c0-2.127,1.265-3.794,3.308-3.794,2.282,0,2.879,2.017,2.879,3.3a3.527,3.527,0,0,1-.044.61Zm3.724-.911a1.821,1.821,0,0,0-1.751-2.074,2.106,2.106,0,0,0-1.959,2.074Z" transform="translate(75.417 10.781)" fill="#fff"/>
    <path id="Path_38" data-name="Path 38" d="M27.7,10.482a3.34,3.34,0,0,1-3.361-3.609,3.431,3.431,0,0,1,3.476-3.719,3.314,3.314,0,0,1,3.379,3.591,3.436,3.436,0,0,1-3.48,3.737Zm.044-.955c1.216,0,2.127-1.145,2.127-2.737,0-1.19-.593-2.68-2.1-2.68S25.63,5.5,25.63,6.833c0,1.535.867,2.693,2.1,2.693Z" transform="translate(83.299 10.795)" fill="#fff"/>
    <path id="Path_39" data-name="Path 39" d="M26.284,5.21c0-.739-.018-1.318-.062-1.9h1.132l.071,1.141h.031a2.6,2.6,0,0,1,2.317-1.3c.969,0,2.481.579,2.481,2.985v4.184H30.976V6.281c0-1.128-.42-2.087-1.623-2.087a1.847,1.847,0,0,0-1.712,1.3,1.929,1.929,0,0,0-.084.6v4.228H26.284Z" transform="translate(89.743 10.795)" fill="#fff"/>
    <path id="Path_40" data-name="Path 40" d="M30.87,2.81V4.491h1.822v.969H30.87V9.24c0,.871.243,1.362.951,1.362a2.371,2.371,0,0,0,.739-.084l.058.969a3.388,3.388,0,0,1-1.123.172,1.826,1.826,0,0,1-1.38-.531,2.745,2.745,0,0,1-.491-1.844V5.459H28.535V4.491h1.088V3.2Z" transform="translate(97.659 9.617)" fill="#fff"/>
    <path id="Path_41" data-name="Path 41" d="M29.783,2.449h1.274V6.823h.031a2.255,2.255,0,0,1,.911-.9,2.514,2.514,0,0,1,1.3-.363c.942,0,2.446.579,2.446,3v4.175H34.475V8.707c0-1.145-.42-2.087-1.623-2.087A1.846,1.846,0,0,0,31.145,7.9a1.551,1.551,0,0,0-.088.606v4.232H29.783Z" transform="translate(101.931 8.382)" fill="#fff"/>
    <path id="Path_42" data-name="Path 42" d="M32.7,7.046a2.236,2.236,0,0,0,2.388,2.437,4.816,4.816,0,0,0,1.946-.349l.23.9a5.715,5.715,0,0,1-2.348.451,3.274,3.274,0,0,1-3.45-3.538c0-2.127,1.26-3.794,3.3-3.794,2.291,0,2.883,2.017,2.883,3.3a3.607,3.607,0,0,1-.04.61Zm3.724-.911a1.824,1.824,0,0,0-1.751-2.074,2.106,2.106,0,0,0-1.959,2.074Z" transform="translate(107.701 10.781)" fill="#fff"/>
    <path id="Path_43" data-name="Path 43" d="M34.641,4.164a.792.792,0,0,1-.8-.827.8.8,0,0,1,.827-.809.783.783,0,0,1,.809.809.8.8,0,0,1-.827.827Zm-.61,1.291H35.3V12.47H34.031Z" transform="translate(115.833 8.652)" fill="#fff"/>
    <path id="Path_44" data-name="Path 44" d="M34.647,2.754a13.044,13.044,0,0,1,2.419-.2A4.006,4.006,0,0,1,39.8,3.36,2.645,2.645,0,0,1,40.675,5.4a2.822,2.822,0,0,1-.77,2.087,4.036,4.036,0,0,1-2.985,1.07,4.444,4.444,0,0,1-1.013-.084v3.909h-1.26Zm1.26,4.692a4.381,4.381,0,0,0,1.044.1c1.535,0,2.45-.752,2.45-2.07S38.486,3.55,37.1,3.55a6.269,6.269,0,0,0-1.19.1Z" transform="translate(118.577 8.731)" fill="#fff"/>
    <path id="Path_45" data-name="Path 45" d="M36.347,2.449h1.274V6.823h.031a2.282,2.282,0,0,1,.911-.9,2.53,2.53,0,0,1,1.309-.363c.938,0,2.446.579,2.446,3v4.175H41.048V8.707c0-1.145-.425-2.087-1.627-2.087A1.847,1.847,0,0,0,37.709,7.9a1.551,1.551,0,0,0-.088.606v4.232H36.347Z" transform="translate(124.396 8.382)" fill="#fff"/>
    <path id="Path_46" data-name="Path 46" d="M41.4,10.482a3.34,3.34,0,0,1-3.361-3.609,3.428,3.428,0,0,1,3.476-3.719,3.313,3.313,0,0,1,3.374,3.591,3.433,3.433,0,0,1-3.476,3.737Zm.044-.955c1.216,0,2.127-1.145,2.127-2.737,0-1.19-.593-2.68-2.1-2.68-1.49,0-2.145,1.389-2.145,2.724,0,1.535.871,2.693,2.1,2.693Z" transform="translate(130.173 10.795)" fill="#fff"/>
    <path id="Path_47" data-name="Path 47" d="M39.976,5.21c0-.739-.013-1.318-.058-1.9h1.128l.075,1.141h.031a2.594,2.594,0,0,1,2.317-1.3c.969,0,2.472.579,2.472,2.985v4.184H44.668V6.281c0-1.128-.42-2.087-1.623-2.087a1.846,1.846,0,0,0-1.707,1.3,1.926,1.926,0,0,0-.088.6v4.228H39.976Z" transform="translate(136.617 10.795)" fill="#fff"/>
    <path id="Path_48" data-name="Path 48" d="M42.848,7.046a2.239,2.239,0,0,0,2.393,2.437,4.767,4.767,0,0,0,1.937-.349l.234.9a5.715,5.715,0,0,1-2.348.451,3.27,3.27,0,0,1-3.445-3.538c0-2.127,1.26-3.794,3.3-3.794,2.291,0,2.883,2.017,2.883,3.3a3.608,3.608,0,0,1-.04.61Zm3.724-.911a1.824,1.824,0,0,0-1.751-2.074,2.1,2.1,0,0,0-1.959,2.074Z" transform="translate(142.439 10.781)" fill="#fff"/>
    <path id="Path_49" data-name="Path 49" d="M19.911,6.271,11.323,31.554h3.932l2.565-7.761h8.319l2.636,7.761h4.042L24.192,6.271Zm2.039,4.157c.292,1.128.6,2.3,1,3.564l2.317,6.7H18.682l2.282-6.744c.349-1.1.677-2.278.986-3.525" transform="translate(38.752 21.463)" fill="#fff"/>
    <path id="Path_50" data-name="Path 50" d="M26.229,7.753a7.149,7.149,0,0,0-6.081,2.919L20,8.155H16.5l.022.323c.1,1.566.146,3.29.146,5.767v19.49h3.825v-9.1a6.726,6.726,0,0,0,5.232,2.247,7.9,7.9,0,0,0,5.8-2.463,10.456,10.456,0,0,0,2.561-7.359,10.171,10.171,0,0,0-2.224-6.718,7.28,7.28,0,0,0-5.625-2.592m-.951,3.166c3.41,0,4.935,3.158,4.935,6.289,0,4.038-1.946,6.545-5.081,6.545a4.637,4.637,0,0,1-4.506-3.547,4.913,4.913,0,0,1-.137-1.238V15.89a5.569,5.569,0,0,1,.124-.946c.018-.1.04-.208.053-.31a4.842,4.842,0,0,1,4.613-3.715" transform="translate(56.453 26.535)" fill="#fff"/>
    <path id="Path_51" data-name="Path 51" d="M30.684,7.753A7.149,7.149,0,0,0,24.6,10.672l-.155-2.516h-3.5l.022.323c.1,1.566.146,3.29.146,5.767v19.49h3.825v-9.1a6.723,6.723,0,0,0,5.227,2.247,7.9,7.9,0,0,0,5.8-2.463,10.474,10.474,0,0,0,2.556-7.359A10.171,10.171,0,0,0,36.3,10.345a7.271,7.271,0,0,0-5.621-2.592m-.951,3.166c3.41,0,4.935,3.158,4.935,6.289,0,4.038-1.95,6.545-5.081,6.545a4.633,4.633,0,0,1-4.506-3.547,4.913,4.913,0,0,1-.137-1.238V15.89a5.513,5.513,0,0,1,.124-.946l.053-.31a4.842,4.842,0,0,1,4.613-3.715" transform="translate(71.7 26.535)" fill="#fff"/>
    <path id="Path_52" data-name="Path 52" d="M35.779,17.3c-3.569-1.384-4.714-2.472-4.714-4.48,0-1.689,1.344-3.4,4.347-3.4A8.7,8.7,0,0,1,39.9,10.548l.323.2,1.079-3.193-.212-.124a11.083,11.083,0,0,0-5.572-1.252c-4.878,0-8.283,2.883-8.283,7.005,0,3.326,2.132,5.647,6.713,7.31,3.246,1.216,4.453,2.459,4.453,4.59,0,2.41-1.862,3.909-4.86,3.909a10.463,10.463,0,0,1-5.515-1.566l-.332-.212-1.026,3.268.186.124a13.121,13.121,0,0,0,6.466,1.663c6.576,0,8.907-4.011,8.907-7.443,0-3.538-1.866-5.723-6.452-7.531" transform="translate(91.287 21.148)" fill="#fff"/>
    <path id="Path_53" data-name="Path 53" d="M36.776,6.859l-3.75,1.176v3.18H30.279v3.056h2.746v9.367c0,2.264.429,3.852,1.322,4.856a4.9,4.9,0,0,0,3.7,1.451,9,9,0,0,0,2.959-.456l.212-.075-.181-3.065-.367.115a5.883,5.883,0,0,1-1.782.2c-1.482,0-2.114-.938-2.114-3.14V14.271h4.617V11.215H36.776Z" transform="translate(103.628 23.475)" fill="#fff"/>
    <path id="Path_54" data-name="Path 54" d="M41.972,7.753c-5.356,0-9.093,3.993-9.093,9.712,0,5.55,3.618,9.42,8.8,9.42h.035c4.378,0,9.088-3.047,9.088-9.747a9.658,9.658,0,0,0-2.437-6.766,8.512,8.512,0,0,0-6.395-2.618m-.111,3.021c3.441,0,5.006,3.357,5.006,6.474,0,3.834-2.136,6.62-5.077,6.62h-.04c-2.9,0-5.006-2.737-5.006-6.51,0-3.277,1.583-6.585,5.117-6.585" transform="translate(112.526 26.535)" fill="#fff"/>
    <path id="Path_55" data-name="Path 55" d="M46.951,7.93l-.23-.057a3.663,3.663,0,0,0-.951-.119,5.455,5.455,0,0,0-4.8,3.078l-.111-2.676H37.429l.022.323c.1,1.512.142,3.211.142,5.506l-.035,12.5h3.825V16.731a10.282,10.282,0,0,1,.106-1.482c.433-2.339,2.012-3.856,4.024-3.856a10.094,10.094,0,0,1,1.03.066l.407.04Z" transform="translate(128.099 26.535)" fill="#fff"/>
    <path id="Path_56" data-name="Path 56" d="M48.222,7.745c-5.1,0-8.65,4.069-8.65,9.893,0,5.612,3.538,9.238,9.013,9.238a14.7,14.7,0,0,0,6.054-1.159l.234-.106-.734-2.852-.318.133a11.937,11.937,0,0,1-4.794.854c-1.667,0-5.5-.548-5.731-5.546l12.347.035.053-.243a8.793,8.793,0,0,0,.111-1.6c0-3.989-1.986-8.65-7.585-8.65m-.256,2.91a3.766,3.766,0,0,1,2.8,1.07,5.427,5.427,0,0,1,1.322,3.564H43.366c.354-2.211,1.738-4.635,4.6-4.635" transform="translate(135.433 26.507)" fill="#fff"/>
  </g>
</svg>
