<svg id="Component_2_3" data-name="Component 2 – 3" xmlns="http://www.w3.org/2000/svg" xmlns:xlink="http://www.w3.org/1999/xlink" width="204.821" height="67" viewBox="0 0 204.821 67">
  <defs>
    <clipPath id="clip-path">
      <rect id="Rectangle_6" data-name="Rectangle 6" width="204.821" height="67" fill="none"/>
    </clipPath>
    <clipPath id="clip-path-2">
      <path id="Path_3" data-name="Path 3" d="M3.474,4.28V46.187a.921.921,0,0,0,.566.96L26.351,25.021,4.226,3.086A1.113,1.113,0,0,0,3.474,4.28" transform="translate(-3.474 -3.086)" fill="none"/>
    </clipPath>
    <linearGradient id="linear-gradient" x1="-0.672" y1="1.211" x2="-0.478" y2="1.211" gradientUnits="objectBoundingBox">
      <stop offset="0" stop-color="#257db0"/>
      <stop offset="0.197" stop-color="#3b8eb2"/>
      <stop offset="0.739" stop-color="#73bcb9"/>
      <stop offset="1" stop-color="#89cebc"/>
    </linearGradient>
    <clipPath id="clip-path-3">
      <path id="Path_4" data-name="Path 4" d="M3.644,3.12,25.769,25.056l6.147-6.094-9.234-5.329S13.276,8.206,8.115,5.225L4.8,3.306a1.836,1.836,0,0,0-.836-.23,1.258,1.258,0,0,0-.318.044" transform="translate(-3.644 -3.076)" fill="none"/>
    </clipPath>
    <linearGradient id="linear-gradient-2" x1="-0.57" y1="2.426" x2="-0.414" y2="2.426" gradientUnits="objectBoundingBox">
      <stop offset="0" stop-color="#51bfac"/>
      <stop offset="1" stop-color="#dee899"/>
    </linearGradient>
    <clipPath id="clip-path-4">
      <path id="Path_5" data-name="Path 5" d="M3.6,30.171a1.187,1.187,0,0,0,.907-.124L22.8,19.487l.009,0,.009,0,0,0L32.06,14.14,25.913,8.046Z" transform="translate(-3.602 -8.046)" fill="none"/>
    </clipPath>
    <linearGradient id="linear-gradient-3" x1="-0.56" y1="1.417" x2="-0.404" y2="1.417" gradientUnits="objectBoundingBox">
      <stop offset="0" stop-color="#eb403d"/>
      <stop offset="0.211" stop-color="#d34253"/>
      <stop offset="0.742" stop-color="#9d4787"/>
      <stop offset="1" stop-color="#894a9c"/>
    </linearGradient>
    <clipPath id="clip-path-5">
      <path id="Path_6" data-name="Path 6" d="M8.647,12.762l6.147,6.094,7.288-4.206c.765-.442,1.349-.783,1.588-.92,1.044-.6.942-1.424.062-1.9s-8.938-5.165-8.938-5.165Z" transform="translate(-8.647 -6.668)" fill="none"/>
    </clipPath>
    <linearGradient id="linear-gradient-4" x1="-2.38" y1="3.068" x2="-2.105" y2="3.068" gradientUnits="objectBoundingBox">
      <stop offset="0" stop-color="#f48779"/>
      <stop offset="0.616" stop-color="#f9b075"/>
      <stop offset="1" stop-color="#fdc674"/>
    </linearGradient>
  </defs>
  <g id="Group_2" data-name="Group 2">
    <g id="Group_1" data-name="Group 1" clip-path="url(#clip-path)">
      <path id="Rectangle_5" data-name="Rectangle 5" d="M2.048,0H202.774a2.047,2.047,0,0,1,2.047,2.047V64.953A2.047,2.047,0,0,1,202.774,67H2.047A2.047,2.047,0,0,1,0,64.953V2.048A2.048,2.048,0,0,1,2.048,0Z" transform="translate(0 0.002)" fill="#231f20"/>
    </g>
  </g>
  <g id="Group_4" data-name="Group 4" transform="translate(15.364 13.648)">
    <g id="Group_3" data-name="Group 3" clip-path="url(#clip-path-2)">
      <rect id="Rectangle_7" data-name="Rectangle 7" width="22.877" height="44.061" transform="translate(0 0)" fill="url(#linear-gradient)"/>
    </g>
  </g>
  <g id="Group_6" data-name="Group 6" transform="translate(16.115 13.604)">
    <g id="Group_5" data-name="Group 5" clip-path="url(#clip-path-3)">
      <rect id="Rectangle_8" data-name="Rectangle 8" width="28.273" height="21.98" transform="translate(0 0)" fill="url(#linear-gradient-2)"/>
    </g>
  </g>
  <g id="Group_8" data-name="Group 8" transform="translate(15.93 35.583)">
    <g id="Group_7" data-name="Group 7" clip-path="url(#clip-path-4)">
      <rect id="Rectangle_9" data-name="Rectangle 9" width="28.458" height="22.21" transform="translate(0 0)" fill="url(#linear-gradient-3)"/>
    </g>
  </g>
  <g id="Group_10" data-name="Group 10" transform="translate(38.241 29.489)">
    <g id="Group_9" data-name="Group 9" clip-path="url(#clip-path-5)">
      <rect id="Rectangle_10" data-name="Rectangle 10" width="16.067" height="12.188" transform="translate(0 0)" fill="url(#linear-gradient-4)"/>
    </g>
  </g>
  <g id="Group_12" data-name="Group 12">
    <g id="Group_11" data-name="Group 11" clip-path="url(#clip-path)">
      <path id="Path_7" data-name="Path 7" d="M40.793,20.638a5.693,5.693,0,0,1-2.353-.478A4.441,4.441,0,0,1,36.654,18.7h-.146a17.484,17.484,0,0,1,.146,2.189V26.32h-2V7.2h1.623l.279,1.8h.1a4.646,4.646,0,0,1,1.8-1.566,5.415,5.415,0,0,1,2.344-.482,4.868,4.868,0,0,1,4.051,1.8,7.872,7.872,0,0,1,1.428,5.033,7.849,7.849,0,0,1-1.451,5.05,4.891,4.891,0,0,1-4.029,1.8m-.287-11.98a3.546,3.546,0,0,0-2.923,1.119,5.725,5.725,0,0,0-.929,3.564v.447a6.6,6.6,0,0,0,.929,3.98,3.52,3.52,0,0,0,2.972,1.194,3.089,3.089,0,0,0,2.68-1.384,6.558,6.558,0,0,0,.969-3.817,6.323,6.323,0,0,0-.969-3.786,3.187,3.187,0,0,0-2.729-1.318" transform="translate(118.605 23.817)" fill="#f9f9f9"/>
      <rect id="Rectangle_11" data-name="Rectangle 11" width="1.999" height="18.733" transform="translate(167.509 25.482)" fill="#f9f9f9"/>
      <path id="Path_8" data-name="Path 8" d="M47.97,20.374l-.4-1.875h-.1a5.481,5.481,0,0,1-1.968,1.676,5.949,5.949,0,0,1-2.45.442A4.4,4.4,0,0,1,39.979,19.6a3.693,3.693,0,0,1-1.11-2.875q0-4,6.39-4.192l2.242-.071v-.818a3.348,3.348,0,0,0-.672-2.3,2.747,2.747,0,0,0-2.136-.739,8.739,8.739,0,0,0-3.733,1.008L40.346,8.1a9.4,9.4,0,0,1,2.14-.831,9.31,9.31,0,0,1,2.331-.3,5.015,5.015,0,0,1,3.494,1.048,4.363,4.363,0,0,1,1.141,3.357v9Zm-4.515-1.406a4.067,4.067,0,0,0,2.932-1.022,3.8,3.8,0,0,0,1.066-2.866V13.886l-2,.084a7.286,7.286,0,0,0-3.441.743,2.235,2.235,0,0,0-1.053,2.039,2.06,2.06,0,0,0,.659,1.65,2.728,2.728,0,0,0,1.835.566" transform="translate(133.027 23.838)" fill="#f9f9f9"/>
      <path id="Path_9" data-name="Path 9" d="M41.524,7.014h2.14l2.892,7.527a29.1,29.1,0,0,1,1.181,3.719h.093c.106-.411.327-1.11.659-2.105s1.424-4.038,3.268-9.141H53.9L48.228,22.037A7.491,7.491,0,0,1,46.26,25.2a4.182,4.182,0,0,1-2.764.933,7.978,7.978,0,0,1-1.8-.2v-1.6a6.893,6.893,0,0,0,1.482.146,3.058,3.058,0,0,0,2.937-2.313l.734-1.88Z" transform="translate(142.113 24.005)" fill="#f9f9f9"/>
      <path id="Path_10" data-name="Path 10" d="M35.639,8.061A4.639,4.639,0,0,1,37.6,11.785c0,2.043-1.154,3.012-2.317,3.918a1.952,1.952,0,0,0-.77,1.358,1.515,1.515,0,0,0,.712,1.185l1,.77c1.216,1.022,2.317,1.959,2.317,3.865,0,2.6-2.508,5.218-7.253,5.218-4.007,0-5.939-1.906-5.939-3.949a3.96,3.96,0,0,1,2.132-3.365,11.876,11.876,0,0,1,5.267-1.274,2.87,2.87,0,0,1-.827-1.875,2.5,2.5,0,0,1,.274-1.075c-.305.027-.61.053-.884.053a4.364,4.364,0,0,1-4.582-4.33,4.979,4.979,0,0,1,1.769-3.7,7.533,7.533,0,0,1,4.944-1.517h5.678l-1.765,1ZM33.68,20.316a3.921,3.921,0,0,0-.628-.031,10.954,10.954,0,0,0-2.9.447,3.1,3.1,0,0,0-2.379,2.839c0,1.959,1.906,3.37,4.865,3.37,2.645,0,4.055-1.274,4.055-2.981,0-1.411-.915-2.154-3.012-3.644m.8-5.245a2.8,2.8,0,0,0,.69-2.017c0-1.986-1.19-5.077-3.472-5.077a2.575,2.575,0,0,0-1.933.911,3.173,3.173,0,0,0-.615,2.043c0,1.849,1.079,4.913,3.454,4.913a2.819,2.819,0,0,0,1.875-.774" transform="translate(86.738 24.183)" fill="#f9f9f9"/>
      <path id="Path_11" data-name="Path 11" d="M28.945,20.179a6.5,6.5,0,0,1-6.722-6.505,6.83,6.83,0,0,1,7.138-6.7,6.441,6.441,0,0,1,6.585,6.505,6.736,6.736,0,0,1-7,6.7m3.445-2.233a4.984,4.984,0,0,0,.827-3.06c0-2.423-1.154-7.054-4.573-7.054a3.843,3.843,0,0,0-2.481.938,4.173,4.173,0,0,0-1.269,3.365c0,2.724,1.353,7.213,4.688,7.213a3.519,3.519,0,0,0,2.808-1.4" transform="translate(76.057 23.882)" fill="#f9f9f9"/>
      <path id="Path_12" data-name="Path 12" d="M25.569,20.179a6.5,6.5,0,0,1-6.722-6.505,6.83,6.83,0,0,1,7.138-6.7,6.444,6.444,0,0,1,6.585,6.505,6.736,6.736,0,0,1-7,6.7m3.445-2.233a5.014,5.014,0,0,0,.827-3.06c0-2.423-1.159-7.054-4.577-7.054a3.831,3.831,0,0,0-2.477.938,4.173,4.173,0,0,0-1.269,3.365c0,2.724,1.349,7.213,4.688,7.213a3.519,3.519,0,0,0,2.808-1.4" transform="translate(64.503 23.882)" fill="#f9f9f9"/>
      <path id="Path_13" data-name="Path 13" d="M33.141,24.571l-3.963.915a29.6,29.6,0,0,1-4.568.469c-7.646,0-10.556-5.625-10.556-10.03,0-5.373,4.126-10.357,11.193-10.357a16.047,16.047,0,0,1,4.237.579,10.839,10.839,0,0,1,3.657,1.72l-2.3,2.189-.969.221.69-1.11a7.906,7.906,0,0,0-5.926-2.6c-4.378,0-7.673,3.326-7.673,8.177,0,5.205,3.768,10.11,9.8,10.11a8.281,8.281,0,0,0,3.52-.694V19.7l-4.184.221,2.216-1.194h5.873l-.721.694a.648.648,0,0,0-.279.442c-.027.248-.053,1.053-.053,1.331Z" transform="translate(48.099 19.057)" fill="#f9f9f9"/>
      <path id="Path_14" data-name="Path 14" d="M34.2,24.25C33.288,24.166,33.1,24,33.1,22.919V7.241l.013-.181c.115-.969.389-1.132,1.252-1.632H30.4l-2.074,1h2.114V23.529c0,.553-.111.637-.747,1.468h4.9l1.026-.61c-.473-.057-.942-.084-1.415-.137" transform="translate(96.93 18.577)" fill="#f9f9f9"/>
      <path id="Path_15" data-name="Path 15" d="M39.974,19.195c-.305.164-.606.358-.907.5a6.432,6.432,0,0,1-2.671.522,5.876,5.876,0,0,1-3.662-1.07,7.133,7.133,0,0,1-2.8-5.807,6.237,6.237,0,0,1,6.3-6.355,5.365,5.365,0,0,1,2.835.77,4.571,4.571,0,0,1,1.924,2.724l-6.466,2.614-2.118.164c.685,3.494,3.051,5.528,5.67,5.528a7.067,7.067,0,0,0,3.352-.96ZM37.387,11c.522-.19.8-.358.8-.743a2.733,2.733,0,0,0-2.724-2.366c-1.1,0-3.162.854-3.162,3.825,0,.469.053.964.084,1.459Z" transform="translate(102.437 23.889)" fill="#f9f9f9"/>
      <path id="Path_16" data-name="Path 16" d="M33.438,7.166V8.984h-.221V7.166h-.6V6.98H34.04v.186Z" transform="translate(111.626 23.89)" fill="#f9f9f9"/>
      <path id="Path_17" data-name="Path 17" d="M34.532,8.983V7.152h-.009l-.562,1.831h-.172l-.562-1.831h-.009V8.983h-.2v-2h.345L33.873,8.6h.009l.5-1.619h.349v2Z" transform="translate(113.007 23.888)" fill="#f9f9f9"/>
      <path id="Path_18" data-name="Path 18" d="M19.518,8.684H18.142a9,9,0,0,0-.389-1.61h-1.99a8.191,8.191,0,0,0-.4,1.61h-1.3c0-.115.336-1.03,1-2.755a21.806,21.806,0,0,0,1-2.848H17.7a22.964,22.964,0,0,0,.911,2.808,24.254,24.254,0,0,1,.907,2.795M17.532,6.252a23.627,23.627,0,0,1-.734-2.4h-.071a24.227,24.227,0,0,1-.761,2.4Z" transform="translate(48.137 10.545)" fill="#f9f9f9"/>
      <path id="Path_19" data-name="Path 19" d="M20.126,8.681H19.065a10.3,10.3,0,0,0-1.185-1.862,10.207,10.207,0,0,1-1.411-2.432H16.4a15.382,15.382,0,0,1,.106,1.7c0,.712.018,1.574.062,2.592H15.509q.066-1.333.066-2.928,0-1.572-.066-2.671h1.278A8.083,8.083,0,0,0,17.853,4.9a10.8,10.8,0,0,1,1.3,2.291h.066a15.746,15.746,0,0,1-.106-1.72c0-.774-.018-1.574-.057-2.388h1.075c-.04.708-.062,1.6-.062,2.671s.022,2.052.062,2.928" transform="translate(53.079 10.548)" fill="#f9f9f9"/>
      <path id="Path_20" data-name="Path 20" d="M21.625,5.707a3.208,3.208,0,0,1-.783,2.136,2.754,2.754,0,0,1-2.2.911q-.637,0-1.751-.053.053-1.3.053-2.928c0-1.044-.018-1.937-.053-2.671h.752c.124,0,.305,0,.548-.013s.4-.013.478-.013a2.89,2.89,0,0,1,2.251.774,2.671,2.671,0,0,1,.7,1.857m-1.176.186A2.07,2.07,0,0,0,19.967,4.5a1.831,1.831,0,0,0-1.473-.566,4.369,4.369,0,0,0-.5.04c.027.575.04,1.172.04,1.8,0,.685.018,1.362.044,2.039a2.972,2.972,0,0,0,.557.053A1.628,1.628,0,0,0,20,7.3a2.234,2.234,0,0,0,.447-1.4" transform="translate(57.815 10.528)" fill="#f9f9f9"/>
      <path id="Path_21" data-name="Path 21" d="M22.771,8.7H21.5a8.421,8.421,0,0,0-.765-1.88,1.008,1.008,0,0,0-.862-.358c-.164,0-.327,0-.478,0,0,.739.013,1.482.04,2.233H18.238q.053-1.3.053-2.932,0-1.566-.053-2.671h.743c.084,0,.265,0,.54-.009s.526-.013.756-.013c1.318,0,1.977.447,1.977,1.349A1.52,1.52,0,0,1,21.126,5.92v.062a1.327,1.327,0,0,1,.761.677A14.639,14.639,0,0,1,22.771,8.7M21.157,4.743c0-.57-.367-.858-1.1-.858a3.743,3.743,0,0,0-.712.062c.031.447.044,1.026.044,1.738.159,0,.292.009.4.009.911,0,1.367-.318,1.367-.951" transform="translate(62.419 10.528)" fill="#f9f9f9"/>
      <path id="Path_22" data-name="Path 22" d="M24.89,5.878a3.081,3.081,0,0,1-.8,2.189,2.635,2.635,0,0,1-2.008.867,2.551,2.551,0,0,1-1.9-.8,2.813,2.813,0,0,1-.761-2.03,3.084,3.084,0,0,1,.8-2.189,2.632,2.632,0,0,1,2-.867,2.514,2.514,0,0,1,1.9.8,2.779,2.779,0,0,1,.765,2.03M23.709,6a2.243,2.243,0,0,0-.46-1.459,1.429,1.429,0,0,0-1.137-.557,1.305,1.305,0,0,0-1.066.562,2.258,2.258,0,0,0-.438,1.424,2.2,2.2,0,0,0,.46,1.455,1.409,1.409,0,0,0,1.137.562,1.309,1.309,0,0,0,1.061-.562A2.269,2.269,0,0,0,23.709,6" transform="translate(66.46 10.446)" fill="#f9f9f9"/>
      <path id="Path_23" data-name="Path 23" d="M22.148,8.681H20.932q.053-1.333.053-2.928,0-1.572-.053-2.671h1.216c-.035.721-.057,1.61-.057,2.671,0,1.079.022,2.056.057,2.928" transform="translate(71.639 10.548)" fill="#f9f9f9"/>
      <path id="Path_24" data-name="Path 24" d="M26.279,5.707A3.186,3.186,0,0,1,25.5,7.843a2.754,2.754,0,0,1-2.2.911q-.637,0-1.751-.053.053-1.3.053-2.928c0-1.044-.018-1.937-.053-2.671H22.3c.124,0,.305,0,.548-.013s.4-.013.478-.013a2.89,2.89,0,0,1,2.251.774,2.671,2.671,0,0,1,.7,1.857M25.1,5.893A2.07,2.07,0,0,0,24.621,4.5a1.831,1.831,0,0,0-1.473-.566,4.369,4.369,0,0,0-.5.04c.027.575.04,1.172.04,1.8,0,.685.018,1.362.044,2.039a2.983,2.983,0,0,0,.562.053,1.624,1.624,0,0,0,1.367-.57,2.234,2.234,0,0,0,.447-1.4" transform="translate(73.743 10.528)" fill="#f9f9f9"/>
      <path id="Path_25" data-name="Path 25" d="M28.707,8.684H27.332a8.784,8.784,0,0,0-.394-1.61H24.952a8.191,8.191,0,0,0-.4,1.61h-1.3c0-.115.336-1.03,1-2.755a21.805,21.805,0,0,0,1-2.848h1.627A22.963,22.963,0,0,0,27.8,5.889a24.253,24.253,0,0,1,.907,2.795M26.721,6.252a24.472,24.472,0,0,1-.739-2.4h-.066a24.228,24.228,0,0,1-.761,2.4Z" transform="translate(79.585 10.545)" fill="#f9f9f9"/>
      <path id="Path_26" data-name="Path 26" d="M28.784,4.57a1.677,1.677,0,0,1-.765,1.517,3.387,3.387,0,0,1-1.871.491c-.137,0-.23,0-.287-.009,0,.54.013,1.252.044,2.132H24.7c.035-.827.057-1.8.057-2.928,0-1.035-.022-1.924-.057-2.671h.747q.159,0,.61-.013t.783-.013a2.458,2.458,0,0,1,1.384.371,1.249,1.249,0,0,1,.562,1.123m-1.11.234c0-.615-.407-.92-1.221-.92a3.37,3.37,0,0,0-.646.066c.031.54.049,1.154.049,1.84.071,0,.155.009.248.009,1.048,0,1.57-.332,1.57-1" transform="translate(84.527 10.524)" fill="#f9f9f9"/>
      <path id="Path_27" data-name="Path 27" d="M29.95,4.57a1.677,1.677,0,0,1-.765,1.517,3.387,3.387,0,0,1-1.871.491c-.137,0-.234,0-.292-.009,0,.54.018,1.252.049,2.132H25.864c.035-.827.057-1.8.057-2.928,0-1.035-.022-1.924-.057-2.671h.747q.159,0,.61-.013T28,3.075a2.443,2.443,0,0,1,1.38.371A1.252,1.252,0,0,1,29.95,4.57M28.84,4.8c0-.615-.407-.92-1.221-.92a3.37,3.37,0,0,0-.646.066c.031.54.049,1.154.049,1.84.071,0,.155.009.248.009,1.048,0,1.57-.332,1.57-1" transform="translate(88.518 10.524)" fill="#f9f9f9"/>
      <path id="Path_28" data-name="Path 28" d="M32.932,5.878a3.084,3.084,0,0,1-.8,2.189,2.626,2.626,0,0,1-2,.867,2.537,2.537,0,0,1-1.9-.8,2.816,2.816,0,0,1-.765-2.03,3.087,3.087,0,0,1,.809-2.189,2.623,2.623,0,0,1,2-.867,2.524,2.524,0,0,1,1.9.8,2.8,2.8,0,0,1,.765,2.03M31.747,6a2.243,2.243,0,0,0-.46-1.459,1.417,1.417,0,0,0-1.137-.557,1.305,1.305,0,0,0-1.066.562,2.259,2.259,0,0,0-.438,1.424,2.2,2.2,0,0,0,.46,1.455,1.415,1.415,0,0,0,1.137.562,1.311,1.311,0,0,0,1.066-.562A2.267,2.267,0,0,0,31.747,6" transform="translate(93.97 10.446)" fill="#f9f9f9"/>
      <path id="Path_29" data-name="Path 29" d="M33.587,8.681H32.526A10.3,10.3,0,0,0,31.34,6.819,10.207,10.207,0,0,1,29.93,4.387h-.066a15.382,15.382,0,0,1,.106,1.7c0,.712.022,1.574.062,2.592H28.97q.066-1.333.066-2.928,0-1.572-.066-2.671h1.278A8.162,8.162,0,0,0,31.309,4.9a10.684,10.684,0,0,1,1.3,2.291h.066a15.744,15.744,0,0,1-.106-1.72c0-.774-.018-1.574-.057-2.388h1.075c-.04.708-.062,1.6-.062,2.671s.022,2.052.062,2.928" transform="translate(99.148 10.548)" fill="#f9f9f9"/>
    </g>
  </g>
</svg>
