<svg xmlns="http://www.w3.org/2000/svg" width="55.434" height="49.5" viewBox="0 0 55.434 49.5">
  <g id="Iconly_Light_Message" data-name="Iconly/Light/Message" transform="translate(0.75 0.75)">
    <g id="Message">
      <path id="Path_445" d="M31.727,0,19.765,9.631a6.234,6.234,0,0,1-7.7,0L0,0" transform="translate(11.089 15.595)" fill="none" stroke="#200e32" stroke-linecap="round" stroke-linejoin="round" stroke-width="1.5"/>
      <path id="Rectangle_511" d="M13.707,0H40.147a13.9,13.9,0,0,1,10.04,4.46,14.069,14.069,0,0,1,3.719,10.387V33.153A14.069,14.069,0,0,1,50.187,43.54,13.9,13.9,0,0,1,40.147,48H13.707C5.519,48,0,41.338,0,33.153V14.847C0,6.662,5.519,0,13.707,0Z" fill="none" stroke="#200e32" stroke-linecap="round" stroke-linejoin="round" stroke-width="1.5"/>
    </g>
  </g>
</svg>
