<?xml version="1.0" encoding="UTF-8"?>
<svg width="76px" height="76px" viewBox="0 0 76 76" version="1.1" xmlns="http://www.w3.org/2000/svg" xmlns:xlink="http://www.w3.org/1999/xlink">
    <title>3</title>
    <g id="3" stroke="none" stroke-width="1" fill="none" fill-rule="evenodd">
        <g id="PayPal-icon" transform="translate(10.000000, 10.000000)" fill="#000000">
            <path d="M51.6963426,27.6002349 C50.5847286,32.7834549 46.5570756,36.6376479 41.4353016,37.4193939 C40.7980566,37.5167079 40.0970136,37.5631599 39.2286846,37.5660999 C36.2366466,37.5755079 33.1949226,37.5743319 30.2537466,37.5730089 L27.1799766,37.5721269 L24.8332686,51.6298839 L15.2077086,51.6298839 L15.5128806,49.7454909 C15.6295986,49.0210749 15.7448466,48.3063609 15.8637696,47.5923819 C16.0804476,46.2927549 16.2974196,44.9931279 16.5145386,43.6936479 C17.1234126,40.0489299 17.7528666,36.2801439 18.3601236,32.5722159 C18.4893366,31.7837079 18.9368046,31.4067999 19.7110536,31.4098869 C21.7921326,31.4270859 23.9098146,31.4239989 25.9575246,31.4213529 L27.3000756,31.4197359 C34.9024746,31.4128269 41.1363036,26.4687759 42.8119566,19.1170119 C43.0189326,18.2091399 43.0653846,17.2592259 43.1144826,16.2535989 C43.1363856,15.8030439 43.1591706,15.3370539 43.1976846,14.8762089 C43.2051816,14.7859509 43.2032706,14.6768769 43.2007716,14.5259079 C43.1991546,14.4300639 43.1973906,14.3218719 43.1973906,14.1945699 L43.1973906,12.9466869 L44.2885716,13.5517389 C44.5162746,13.6778649 44.7367746,13.7951709 44.9508066,13.9090959 C45.4148856,14.1563499 45.8532396,14.3896389 46.2810096,14.6655579 C50.5844346,17.4393009 52.7606226,22.6373679 51.6963426,27.6002349 L51.6963426,27.6002349 Z M3.8188836,42.2177679 L10.3115796,3.2574759 L11.5321206,3.2574759 C13.1458866,3.2574759 14.7595056,3.2567409 16.3732716,3.2561529 C19.9662456,3.25471958 23.6818176,3.2529189 27.3366786,3.2595339 C30.4742466,3.2652669 33.3316326,4.2766269 35.5996956,6.1843929 C37.8814296,8.1037719 39.3473136,10.7478609 39.8390286,13.8314799 C40.3610256,17.1042879 39.5792796,20.3793009 37.6377036,23.0535249 C35.6915706,25.7340699 32.8066956,27.4967469 29.5146306,28.0166859 C28.8654786,28.1192919 28.1459136,28.1685369 27.2499486,28.1720649 C24.4532736,28.1823549 21.6104406,28.1807379 18.8615406,28.1794149 C17.8861956,28.1789739 16.9108506,28.1785329 15.9355056,28.1785329 L15.8336346,28.1785329 L13.4910426,42.2177679 L3.8188836,42.2177679 Z M42.7982856,9.7679589 C42.4172616,9.6796119 41.9299566,9.3948729 41.6999016,8.9584299 C38.6202516,3.1107699 33.7592556,0.1091769 27.2520066,0.0368529 C22.8589116,-0.0119511 18.3887886,-0.0018081 14.0656656,0.0083349 C11.9387226,0.0131859 9.7398966,0.0192129 7.5753216,0.0162729 C6.5522016,6.2600979 5.4940956,12.6019719 4.4703876,18.7364289 L3.8388756,22.5216789 C2.5604166,30.1890519 1.2813696,37.8562779 -2.94e-05,45.5233569 L1.6416666,45.5207109 C4.9825356,45.5154189 8.3232576,45.5101269 11.6641266,45.5055699 L11.6669196,45.5055699 C11.7505626,45.5055699 11.8344996,45.5102739 11.9440146,45.5173299 C11.9922306,45.5204169 12.0467676,45.5239449 12.1110066,45.5273259 L12.9315606,45.5706909 L11.3977626,54.8363949 L27.5673216,54.8363949 L29.9119716,40.7928969 L31.2013086,40.7928969 C32.1279966,40.7912799 33.0548316,40.7948079 33.9815196,40.7980419 C35.9743986,40.8055389 38.0351916,40.8136239 40.0557066,40.7658489 C43.6814616,40.6802949 47.1910866,39.2829129 49.9382226,36.8309529 C52.6822716,34.3814919 54.4750836,31.0513539 54.9864966,27.4535289 C56.1707286,19.1230389 51.0448386,11.6851329 42.7982856,9.7679589 L42.7982856,9.7679589 Z" id="Fill-1"></path>
        </g>
    </g>
</svg>