<?xml version="1.0" encoding="UTF-8"?>
<svg width="76px" height="76px" viewBox="0 0 76 76" version="1.1" xmlns="http://www.w3.org/2000/svg" xmlns:xlink="http://www.w3.org/1999/xlink">
    <title>2</title>
    <g id="2" stroke="none" stroke-width="1" fill="none" fill-rule="evenodd">
        <g id="Group-16" transform="translate(14.000000, 5.000000)">
            <g id="Group-3" transform="translate(0.000000, 0.855800)" fill="#121113">
                <path d="M35.1568,4.9738 C35.1568,6.7858 35.1548,8.5758 35.1588,10.3648 C35.1598,10.6808 35.1708,10.9978 35.2018,11.3128 C35.3218,12.5188 36.2938,13.5198 37.5178,13.5818 C38.8658,13.6498 40.2178,13.6228 41.5678,13.6328 C42.3148,13.6378 43.0618,13.6338 43.8098,13.6338 C40.9148,10.7358 38.0618,7.8808 35.1568,4.9738 L35.1568,4.9738 Z M2.73155,32.5818 C2.73155,41.4458 2.7308,50.3098 2.7328,59.1738 C2.7338,61.2658 3.7378,62.2688 5.8318,62.2688 C18.1578,62.2703 30.4828,62.2703 42.8078,62.2688 C44.9028,62.2688 45.9078,61.2668 45.9088,59.1758 C45.9108,45.0988 45.9078,31.0218 45.9198,16.9458 C45.9198,16.4898 45.8378,16.3448 45.3448,16.3508 C42.8978,16.3808 40.4488,16.3698 38.0008,16.3628 C34.7578,16.3548 32.4348,14.0308 32.4268,10.7858 C32.4208,8.3588 32.4058,5.9318 32.4408,3.5048 C32.4488,2.9558 32.2828,2.8678 31.7778,2.86879164 C23.1458,2.8858 14.5138,2.8808 5.8818,2.8828 C5.6298,2.8828 5.3758,2.8928 5.1248,2.9198 C4.0138,3.0398 3.2798,3.6388 2.8908,4.6818 C2.7158,5.1498 2.7338,5.6348 2.7338,6.1168 C2.73155,14.9388 2.73155,23.7608 2.73155,32.5818 L2.73155,32.5818 Z M4.3088,64.9998 C3.8438,64.6338 3.2348,64.6068 2.7318,64.2978 C1.0648,63.2718 0.1568,61.8088 0.0088,59.8648 C-0.0042,59.6968 0.0008,59.5278 0.0008,59.3588 C0.0008,41.5028 0.0018,23.6458 -0.0002,5.7898 C-0.0002,3.4948 0.9898,1.7898 3.0188,0.7118 C3.7338,0.3318 4.5138,0.1528 5.3268,0.1528 C14.7618,0.1498 24.1968,0.1528 33.6318,0.1438 C34.1598,0.1438 34.5658,0.3488 34.9208,0.7038 C39.3088,5.0918 43.6958,9.4808 48.0868,13.8658 C48.5018,14.2808 48.6488,14.7608 48.6488,15.3468 C48.6388,30.0158 48.6208,44.6848 48.6588192,59.3548 C48.6658,62.0468 46.7568,64.5608 44.1388,64.9018 C44.1158,64.9048 44.0998,64.9658 44.0798,64.9998 L4.3088,64.9998 Z" id="Fill-1"></path>
            </g>
            <path d="M24.2498,33.4327 C19.3768,33.4327 14.5048,33.4287 9.6318,33.4377034 C8.9998,33.4387 8.5178,33.2167 8.2378,32.6477 C8.0048,32.1737 8.0648,31.7027 8.3808,31.2777 C8.5868,30.9997 8.8478,30.7967 9.2108,30.7687 C9.5038,30.7457 9.7968,30.7047 10.0908,30.7037 C19.5828,30.7007 29.0748,30.7007 38.5668,30.7037 C38.8388,30.7037 39.1138,30.7227 39.3828,30.7657 C40.1148,30.8847 40.5798,31.4667 40.5298,32.1787 C40.4828,32.8517 39.9478,33.3767 39.2468,33.4277 C39.0578,33.4417 38.8678,33.4327 38.6778,33.4327 C33.8688,33.4327 29.0588,33.4327 24.2498,33.4327" id="Fill-4" fill="#131215"></path>
            <path d="M24.3252,41.5388 C19.4732,41.5388 14.6222,41.5378 9.7702,41.5408 C9.3632,41.5418 8.9692,41.5268 8.6352,41.2518 C8.2062,40.8988 8.0122,40.4418 8.1412,39.9048 C8.2712,39.3588 8.6052,38.9668 9.1992,38.8778 C9.4482,38.8408 9.7012,38.8108 9.9522,38.8098 C19.5282,38.8068 29.1052,38.8068 38.6812,38.8078 C39.2552,38.8078 39.8302,38.8238 40.2272,39.3348 C40.5492,39.7478 40.6392,40.2078 40.4262,40.6988 C40.2172,41.1798 39.8482,41.4678 39.3222,41.5278 C39.1342,41.5488 38.9432,41.5388 38.7532,41.5388 C33.9442,41.5388 29.1342,41.5388 24.3252,41.5388" id="Fill-6" fill="#131215"></path>
            <path d="M24.3049,49.6449 C19.4109,49.6449 14.5179,49.6409 9.6239,49.6489033 C8.9909,49.6499 8.5119,49.4229 8.2349,48.8529 C7.9919,48.3499 8.0819,47.8659 8.4209,47.4309 C8.6689,47.1149 9.0109,46.9709 9.4049,46.9439 C9.6149,46.9289 9.8249,46.9149 10.0349,46.9149 C19.5489,46.9129 29.0619,46.9129 38.5749,46.9149 C38.8059,46.9149 39.0389,46.9209 39.2669,46.9539 C40.0909,47.0719 40.5859,47.6459 40.5299,48.3989 C40.4759,49.1159 39.9029,49.6369 39.1129,49.6409 C37.2779,49.6519 35.4419,49.6449 33.6069,49.6449 C30.5069,49.6449 27.4059,49.6449 24.3049,49.6449" id="Fill-8" fill="#131215"></path>
            <path d="M13.5424,14.5477 C13.0594,14.5477 12.6584,14.5387 12.2584,14.5497 C11.4534,14.5707 10.9334,15.0187 10.8744,15.7257 C10.8084,16.5137 11.2384,17.0807 12.0944,17.1867 C12.7674,17.2697 13.4254,17.3487 14.0294,17.6807 C15.4664,18.4707 16.2144,19.6887 16.2074,21.3227 C16.1994,22.9137 15.4284,24.0887 14.0424,24.8367 C13.7174,25.0117 13.5434,25.1917 13.4694,25.5567 C13.3334,26.2357 12.8394,26.6517 12.2214,26.6937 C11.6374,26.7327 11.0994,26.3437 10.8844,25.6727 C10.7984,25.4047 10.6814,25.2997 10.3994,25.3197 C10.0634,25.3447 9.7234,25.3407 9.3874,25.3187 C8.6874,25.2727 8.1554,24.7397 8.1124,24.0647 C8.0654,23.3507 8.5284,22.7727 9.2664,22.6587 C10.1674,22.5187 11.0764,22.6327 11.9814,22.5947 C12.9684,22.5527 13.5014,22.0367 13.4564,21.1807 C13.4244,20.5767 13.0334,20.1207 12.4264,20.0007 C11.9754,19.9117 11.5084,19.8797 11.0684,19.7537 C9.4384,19.2847 8.2714,17.9127 8.1234,16.3387 C7.9584,14.5717 8.7944,13.0327 10.3784,12.2527 C10.6574,12.1157 10.7654,11.9517 10.8264,11.6567 C10.9844,10.8937 11.4304,10.5037 12.0934,10.4737 C12.7414,10.4437 13.1924,10.7517 13.4354,11.4667 C13.5334,11.7557 13.6924,11.7917 13.9484,11.7907 C14.3884,11.7887 14.8304,11.7387 15.2644,11.8867 C15.8394,12.0837 16.2094,12.5617 16.2134184,13.1577 C16.2164,13.7527 15.8524,14.2497 15.2814,14.4397 C14.6834,14.6397 14.0664,14.5017 13.5424,14.5477" id="Fill-10" fill="#0C0C0E"></path>
            <path d="M31.0851,25.3265 C28.4061,25.3265 25.7261,25.3315 23.0471,25.3235 C22.3151,25.3215 21.7831,24.9015 21.6631,24.2795 C21.5351,23.6165 21.8091,23.0365 22.3891,22.7585 C22.6791,22.6185 22.9961,22.5975 23.3101,22.5975 C28.4791,22.5945 33.6481,22.5945 38.8161,22.5975 C39.1511,22.5975 39.4901,22.6115 39.7981,22.7745 C40.3461,23.0635 40.6351,23.6715 40.5081,24.2585 C40.3731,24.8855 39.8341,25.3185 39.1231,25.3225 C37.3721,25.3335 35.6211,25.3265 33.8701,25.3265 C32.9421,25.3265 32.0131,25.3265 31.0851,25.3265" id="Fill-12" fill="#131214"></path>
            <path d="M17.4796,57.751 C14.8426,57.751 12.2056,57.755 9.5686,57.748 C8.8136,57.747 8.2636,57.319 8.1306,56.669 C8.0106,56.079 8.3046,55.47 8.8556,55.192 C9.1636,55.036 9.5026,55.021 9.8386,55.021 C14.9866,55.019 20.1346,55.017 25.2816,55.022 C26.3836,55.023 26.9796,55.491 27.0146,56.343 C27.0496,57.18 26.4586,57.746 25.5176,57.749 C22.9436,57.755 20.3696,57.751 17.7956,57.751 C17.6906,57.751 17.5846,57.751 17.4796,57.751" id="Fill-14" fill="#131214"></path>
        </g>
    </g>
</svg>