<svg id="icon-built_in_payment_processing-12680" data-name="icon-built in payment processing-12680" xmlns="http://www.w3.org/2000/svg" width="61.542" height="61.38" viewBox="0 0 61.542 61.38">
    <path id="Path_235" data-name="Path 235" d="M37.479,26.036s.924,3.434,3.587,3.593c0,0-3.553,1.227-3.613,3.852,0,0-.7-3.681-3.506-3.814C33.946,29.668,37.215,29.173,37.479,26.036Z" transform="translate(-28.687 -23.004)" fill="#d7e057"/>
    <path id="Path_236" data-name="Path 236" d="M36.359,32.8a.407.407,0,0,1-.4-.33c-.007-.034-.677-3.368-3.125-3.483a.407.407,0,0,1-.042-.809,3.765,3.765,0,0,0,3.188-3.264.407.407,0,0,1,.8-.072c.009.031.884,3.154,3.218,3.293a.407.407,0,0,1,.109.791c-.033.011-3.287,1.169-3.34,3.477a.406.406,0,0,1-.373.4Zm-2.1-4.267a4.739,4.739,0,0,1,2.058,2.408,5.785,5.785,0,0,1,2.427-2.286,4.968,4.968,0,0,1-2.261-2.366A4.365,4.365,0,0,1,34.259,28.53Z" transform="translate(-27.593 -21.913)" fill="#3a312a"/>
    <path id="Path_237" data-name="Path 237" d="M18.558,43.017s.654,2.429,2.537,2.541c0,0-2.513.868-2.556,2.725,0,0-.495-2.6-2.48-2.7A2.973,2.973,0,0,0,18.558,43.017Z" transform="translate(-15.652 -35.379)" fill="#d7e057"/>
    <path id="Path_238" data-name="Path 238" d="M17.446,47.6a.407.407,0,0,1-.4-.331c0-.022-.462-2.29-2.1-2.367a.407.407,0,0,1-.042-.809,2.548,2.548,0,0,0,2.154-2.2.407.407,0,0,1,.8-.072h0c.006.021.6,2.148,2.168,2.242a.407.407,0,0,1,.109.791c-.022.008-2.247.8-2.282,2.35a.407.407,0,0,1-.373.4ZM16.22,44.471A3.476,3.476,0,0,1,17.427,45.9a4.251,4.251,0,0,1,1.455-1.349,3.631,3.631,0,0,1-1.34-1.417A3.243,3.243,0,0,1,16.22,44.471Z" transform="translate(-14.559 -34.286)" fill="#3a312a"/>
    <path id="Path_239" data-name="Path 239" d="M18.558,16.359s.654,2.429,2.537,2.541c0,0-2.513.868-2.556,2.725,0,0-.495-2.6-2.48-2.7A2.972,2.972,0,0,0,18.558,16.359Z" transform="translate(-15.652 -15.952)" fill="#d7e057"/>
    <path id="Path_240" data-name="Path 240" d="M17.445,20.94a.407.407,0,0,1-.4-.331c0-.022-.462-2.29-2.1-2.367a.407.407,0,0,1-.042-.809,2.548,2.548,0,0,0,2.154-2.2.407.407,0,0,1,.8-.072h0c.006.021.6,2.148,2.168,2.242a.407.407,0,0,1,.109.791c-.022.008-2.247.8-2.282,2.35a.407.407,0,0,1-.373.4Zm-1.226-3.127a3.478,3.478,0,0,1,1.206,1.432A4.246,4.246,0,0,1,18.88,17.9a3.631,3.631,0,0,1-1.34-1.417A3.246,3.246,0,0,1,16.219,17.813Z" transform="translate(-14.558 -14.86)" fill="#3a312a"/>
    <path id="Path_241" data-name="Path 241" d="M67.241,24.221,44.895,46.568a2.781,2.781,0,0,0,0,3.932L63.788,69.393a2.781,2.781,0,0,0,3.932,0L96.395,40.718a2.781,2.781,0,0,0,0-3.932L77.5,17.893a2.781,2.781,0,0,0-3.932,0l-3.576,3.576Z" transform="translate(-36.072 -16.477)" fill="#f16c7a"/>
    <path id="Path_242" data-name="Path 242" d="M64.663,69.519a3.177,3.177,0,0,1-2.254-.932L43.516,49.694a3.191,3.191,0,0,1,0-4.507L65.863,22.84a.407.407,0,1,1,.575.575L44.092,45.762a2.374,2.374,0,0,0,0,3.357L62.984,68.012a2.377,2.377,0,0,0,3.357,0L95.016,39.336a2.374,2.374,0,0,0,0-3.357L76.123,17.087a2.374,2.374,0,0,0-3.357,0l-3.576,3.576a.407.407,0,0,1-.575-.575l3.576-3.576a3.188,3.188,0,0,1,4.507,0L95.592,35.4a3.191,3.191,0,0,1,0,4.507L66.917,68.587A3.177,3.177,0,0,1,64.663,69.519Z" transform="translate(-34.982 -15.383)" fill="#3a312a"/>
    <rect id="Rectangle_3314" data-name="Rectangle 3314" width="46.113" height="6.058" transform="translate(10.98 36.181) rotate(-45)" fill="#87796f"/>
    <path id="Path_243" data-name="Path 243" d="M58.226,64.239a.406.406,0,0,1-.288-.119l-4.284-4.284a.407.407,0,0,1,0-.575L86.262,26.654a.407.407,0,0,1,.575,0l4.284,4.284a.407.407,0,0,1,0,.575L58.514,64.12A.406.406,0,0,1,58.226,64.239Zm-3.708-4.691,3.708,3.708L90.258,31.225l-3.708-3.708Z" transform="translate(-42.962 -23.368)" fill="#3a312a"/>
    <path id="Path_244" data-name="Path 244" d="M16.344,140.453v9.687a2.78,2.78,0,0,0,2.78,2.78H59.677a2.78,2.78,0,0,0,2.78-2.78V123.421a2.78,2.78,0,0,0-2.78-2.78H19.124a2.78,2.78,0,0,0-2.78,2.78v17.032Z" transform="translate(-15.859 -91.947)" fill="#fce8cb"/>
    <path id="Path_245" data-name="Path 245" d="M58.584,152.234H18.031a3.191,3.191,0,0,1-3.187-3.187V139.36a.407.407,0,0,1,.814,0v9.687a2.376,2.376,0,0,0,2.373,2.373H58.584a2.376,2.376,0,0,0,2.373-2.373V122.328a2.376,2.376,0,0,0-2.373-2.373H18.031a2.376,2.376,0,0,0-2.373,2.373v13.061a.407.407,0,1,1-.814,0V122.328a3.191,3.191,0,0,1,3.187-3.187H58.584a3.191,3.191,0,0,1,3.187,3.187v26.719A3.191,3.191,0,0,1,58.584,152.234Z" transform="translate(-14.766 -90.854)" fill="#3a312a"/>
    <circle id="Ellipse_34" data-name="Ellipse 34" cx="5.012" cy="5.012" r="5.012" transform="translate(5.109 33.169)" fill="#d7e057"/>
    <path id="Path_246" data-name="Path 246" d="M37.311,146.477a5.419,5.419,0,1,1,5.419-5.419A5.425,5.425,0,0,1,37.311,146.477Zm0-10.023a4.6,4.6,0,1,0,4.6,4.6A4.61,4.61,0,0,0,37.311,136.454Z" transform="translate(-27.19 -102.878)" fill="#3a312a"/>
    <path id="Path_247" data-name="Path 247" d="M56.058,217.548H35.084a.407.407,0,1,1,0-.814H56.058a.407.407,0,0,1,0,.814Z" transform="translate(-29.219 -161.975)" fill="#3a312a"/>
    <path id="Path_248" data-name="Path 248" d="M56.058,199.548H35.084a.407.407,0,1,1,0-.814H56.058a.407.407,0,0,1,0,.814Z" transform="translate(-29.219 -148.857)" fill="#3a312a"/>
    <path id="Path_249" data-name="Path 249" d="M173.23,158.975h-.482a10.822,10.822,0,0,0-1.439-3.426l.355-.355a1.047,1.047,0,0,0,0-1.48l-1.885-1.885a1.047,1.047,0,0,0-1.48,0l-.368.368a10.816,10.816,0,0,0-3.413-1.407v-.527a1.047,1.047,0,0,0-1.047-1.047h-2.665a1.047,1.047,0,0,0-1.047,1.047v.527a15.325,15.325,0,0,0-3.413,1.407l-.368-.368a1.047,1.047,0,0,0-1.481,0l-1.885,1.885a1.047,1.047,0,0,0,0,1.48l.355.355a10.823,10.823,0,0,0-1.439,3.426h-.482A1.047,1.047,0,0,0,150,160.022v2.665a1.047,1.047,0,0,0,1.047,1.047h.457a10.819,10.819,0,0,0,1.419,3.471l-.31.311a1.047,1.047,0,0,0,0,1.481l1.885,1.885a1.047,1.047,0,0,0,1.481,0l.3-.3a10.818,10.818,0,0,0,3.484,1.451v.412a1.047,1.047,0,0,0,1.047,1.047h2.665a1.047,1.047,0,0,0,1.047-1.047v-.412A10.827,10.827,0,0,0,168,170.584l.3.3a1.047,1.047,0,0,0,1.48,0L171.663,169a1.047,1.047,0,0,0,0-1.481l-.311-.311a10.814,10.814,0,0,0,1.42-3.471h.457a1.047,1.047,0,0,0,1.047-1.047v-2.665A1.046,1.046,0,0,0,173.23,158.975ZM162.138,166.8a5.442,5.442,0,1,1,5.442-5.442A5.442,5.442,0,0,1,162.138,166.8Z" transform="translate(-113.26 -112.771)" fill="#8ac6dd"/>
    <path id="Path_250" data-name="Path 250" d="M162.379,172.806h-2.665a1.455,1.455,0,0,1-1.453-1.454v-.091A11.193,11.193,0,0,1,155.242,170l-.069.069a1.455,1.455,0,0,1-2.056,0l-1.885-1.885a1.456,1.456,0,0,1,0-2.056l.084-.084a11.189,11.189,0,0,1-1.229-3h-.134a1.455,1.455,0,0,1-1.453-1.454v-2.665a1.455,1.455,0,0,1,1.453-1.454h.163a11.189,11.189,0,0,1,1.242-2.96l-.127-.127a1.455,1.455,0,0,1,0-2.056l1.885-1.885a1.453,1.453,0,0,1,2.056,0l.145.145a16.359,16.359,0,0,1,2.942-1.2v-.222a1.455,1.455,0,0,1,1.453-1.454h2.665a1.455,1.455,0,0,1,1.453,1.454v.206a11.2,11.2,0,0,1,2.945,1.214l.142-.142a1.453,1.453,0,0,1,2.056,0l1.885,1.885a1.455,1.455,0,0,1,0,2.056l-.127.127a11.189,11.189,0,0,1,1.243,2.96h.163a1.455,1.455,0,0,1,1.454,1.454v2.665a1.455,1.455,0,0,1-1.454,1.454H172a11.188,11.188,0,0,1-1.229,3l.084.084a1.456,1.456,0,0,1,0,2.056l-1.885,1.885a1.455,1.455,0,0,1-2.056,0L166.85,170a11.192,11.192,0,0,1-3.018,1.257v.091A1.455,1.455,0,0,1,162.379,172.806Zm-7.2-3.724a.409.409,0,0,1,.219.064,10.387,10.387,0,0,0,3.353,1.4.407.407,0,0,1,.318.4v.412a.64.64,0,0,0,.64.64h2.665a.64.64,0,0,0,.64-.64v-.412a.407.407,0,0,1,.318-.4,10.385,10.385,0,0,0,3.353-1.4.407.407,0,0,1,.507.055l.3.3a.641.641,0,0,0,.9,0l1.885-1.885a.641.641,0,0,0,0-.905l-.311-.311a.407.407,0,0,1-.057-.5,10.378,10.378,0,0,0,1.366-3.34.407.407,0,0,1,.4-.321h.457a.641.641,0,0,0,.64-.64v-2.665a.641.641,0,0,0-.64-.64h-.482a.407.407,0,0,1-.4-.316,10.4,10.4,0,0,0-1.385-3.3.407.407,0,0,1,.055-.507l.355-.355a.64.64,0,0,0,0-.9l-1.885-1.885a.655.655,0,0,0-.9,0l-.368.368a.407.407,0,0,1-.5.056,10.392,10.392,0,0,0-3.285-1.354.407.407,0,0,1-.318-.4v-.527a.64.64,0,0,0-.64-.64h-2.665a.64.64,0,0,0-.64.64v.527a.407.407,0,0,1-.3.393,14.844,14.844,0,0,0-3.3,1.358.407.407,0,0,1-.5-.056l-.368-.368a.655.655,0,0,0-.9,0l-1.885,1.885a.64.64,0,0,0,0,.9l.355.355a.407.407,0,0,1,.055.507,10.408,10.408,0,0,0-1.384,3.3.407.407,0,0,1-.4.316h-.482a.64.64,0,0,0-.64.64v2.665a.64.64,0,0,0,.64.64h.457a.407.407,0,0,1,.4.321,10.385,10.385,0,0,0,1.366,3.34.407.407,0,0,1-.057.5l-.311.311a.641.641,0,0,0,0,.905l1.885,1.885a.641.641,0,0,0,.9,0l.3-.3A.4.4,0,0,1,155.183,169.082Zm5.863-2.973a5.849,5.849,0,1,1,5.849-5.849A5.856,5.856,0,0,1,161.046,166.109Zm0-10.884a5.035,5.035,0,1,0,5.035,5.035A5.041,5.041,0,0,0,161.046,155.226Z" transform="translate(-112.168 -111.677)" fill="#3a312a"/>
    <path id="Path_251" data-name="Path 251" d="M197.67,59.792a2.358,2.358,0,0,1-.694,1.676L184.891,73.556h-.4a1.443,1.443,0,0,0-.543.106V69.877l8.113-8.113a2.783,2.783,0,0,0,0-3.933l-9.564-9.564,2.319-2.317,12.163,12.163A2.359,2.359,0,0,1,197.67,59.792Z" transform="translate(-136.94 -37.517)" fill="#d34e5c"/>
    <path id="Path_252" data-name="Path 252" d="M157.368,21.143l-2.317,2.319L151.5,19.915l.637-.64a2.377,2.377,0,0,1,3.358,0Z" transform="translate(-114.356 -17.571)" fill="#d34e5c"/>
    <rect id="Rectangle_3315" data-name="Rectangle 3315" width="3.277" height="5.245" transform="translate(41.27 6.464) rotate(-44.968)" fill="#695b51"/>
</svg>
