<svg id="gift" xmlns="http://www.w3.org/2000/svg" width="37.114" height="37.114" viewBox="0 0 37.114 37.114">
  <g id="Group_79" data-name="Group 79">
    <path id="Path_233" data-name="Path 233" d="M6.959,5.8a5.8,5.8,0,1,1,11.6,0,5.8,5.8,0,0,1,11.6,0v.014a6.883,6.883,0,0,1-.088,1.146h4.727a2.32,2.32,0,0,1,2.32,2.32v4.639a2.32,2.32,0,0,1-2.32,2.32v17.4a3.479,3.479,0,0,1-3.479,3.479H5.8A3.479,3.479,0,0,1,2.32,33.635v-17.4A2.32,2.32,0,0,1,0,13.918V9.279a2.32,2.32,0,0,1,2.32-2.32H7.047a6.884,6.884,0,0,1-.088-1.146Zm2.477,1.16h6.8V5.8a3.479,3.479,0,1,0-6.959,0,4.032,4.032,0,0,0,.1,1,1.211,1.211,0,0,0,.053.162Zm11.44,0h6.8a1.3,1.3,0,0,0,.053-.162,4.032,4.032,0,0,0,.1-1,3.479,3.479,0,1,0-6.959,0ZM2.32,9.279v4.639H16.237V9.279Zm18.557,0v4.639H34.795V9.279Zm11.6,6.959h-11.6V34.795H31.315a1.16,1.16,0,0,0,1.16-1.16ZM16.237,34.795V16.237H4.639v17.4a1.16,1.16,0,0,0,1.16,1.16Z"/>
  </g>
</svg>
