<svg id="replicate" xmlns="http://www.w3.org/2000/svg" width="23.066" height="23.066" viewBox="0 0 23.066 23.066">
  <path id="Path_227" data-name="Path 227" d="M147.3,16.943h1.648v-3.3A1.649,1.649,0,0,0,147.3,12H144v1.648h3.3Z" transform="translate(-125.876 -12)" fill="#44843f"/>
  <path id="Path_228" data-name="Path 228" d="M102,12h3.3v1.648H102Z" transform="translate(-89.643 -12)" fill="#44843f"/>
  <path id="Path_229" data-name="Path 229" d="M168,66h1.648v3.3H168Z" transform="translate(-146.581 -58.586)" fill="#44843f"/>
  <path id="Path_230" data-name="Path 230" d="M33.419,25.181v3.3h-3.3V18.59a1.649,1.649,0,0,0-1.648-1.648H18.59v-3.3h3.3V12h-3.3a1.649,1.649,0,0,0-1.648,1.648v3.3h-3.3A1.649,1.649,0,0,0,12,18.59V33.419a1.649,1.649,0,0,0,1.648,1.648H28.476a1.649,1.649,0,0,0,1.648-1.648v-3.3h3.3a1.649,1.649,0,0,0,1.648-1.648v-3.3Zm-4.943,8.238H13.648V18.59H28.476Z" transform="translate(-12 -12)" fill="#44843f"/>
</svg>
