<svg id="send-o" xmlns="http://www.w3.org/2000/svg" width="40.803" height="40.823" viewBox="0 0 40.803 40.823">
  <path id="Path_232" data-name="Path 232" d="M40.141,3.681a1.423,1.423,0,0,1,.615,1.457L34.927,40.109a1.435,1.435,0,0,1-.729,1.025,1.4,1.4,0,0,1-.706.182,1.532,1.532,0,0,1-.546-.114l-12-4.9-6.785,7.445a1.342,1.342,0,0,1-1.07.478,1.3,1.3,0,0,1-.524-.091,1.367,1.367,0,0,1-.683-.535,1.466,1.466,0,0,1-.25-.831V32.482L.89,28.088a1.337,1.337,0,0,1-.911-1.252,1.328,1.328,0,0,1,.729-1.343L38.593,3.636A1.322,1.322,0,0,1,40.141,3.681ZM32.355,37.81,37.386,7.688,4.738,26.517l7.65,3.119L32.036,15.088,21.153,33.233Z" transform="translate(0.026 -3.407)"/>
</svg>
