<svg xmlns="http://www.w3.org/2000/svg" width="27.993" height="32" viewBox="0 0 27.993 32">
  <g id="suitcase_outline" transform="translate(1 1)">
    <path id="Path_118002" data-name="Path 118002" d="M45,43.412V39.882m0,3.529v3.529m0-3.529h9.747a3.4,3.4,0,0,0,3.249-3.529M45,43.412H35.249A3.4,3.4,0,0,1,32,39.882m25.993,0V50.471A3.4,3.4,0,0,1,54.744,54H35.249A3.4,3.4,0,0,1,32,50.471V39.882m25.993,0V32.824a3.4,3.4,0,0,0-3.249-3.529H35.249A3.4,3.4,0,0,0,32,32.824v7.059M49.87,29.294V27.529A3.4,3.4,0,0,0,46.621,24H43.372a3.4,3.4,0,0,0-3.249,3.529v1.765" transform="translate(-32 -24)" fill="none" stroke="#959595" stroke-linecap="round" stroke-linejoin="round" stroke-width="2"/>
  </g>
</svg>
